<svg width="20" height="20" viewBox="0 0 20 20" fill="none" xmlns="http://www.w3.org/2000/svg">
<circle cx="10" cy="10" r="9.5" fill="#4F5A7D" stroke="white"/>
<path d="M15 6.82692H11.9231V9.47308C11.9231 9.47308 11.9231 9.47308 11.9231 9.51923C11.9254 10.2189 12.3995 10.8289 13.0769 11.0038V13.75H12.6923C12.4799 13.75 12.3077 13.9222 12.3077 14.1346C12.3077 14.347 12.4799 14.5192 12.6923 14.5192H14.2308C14.4432 14.5192 14.6154 14.347 14.6154 14.1346C14.6154 13.9222 14.4432 13.75 14.2308 13.75H13.8462V11.0038C14.5236 10.8289 14.9977 10.2189 15 9.51923C15 9.51923 15 9.51923 15 9.47308V6.82692ZM14.2308 9.51923C14.2308 9.94408 13.8864 10.2885 13.4615 10.2885C13.0367 10.2885 12.6923 9.94408 12.6923 9.51923V7.59615H14.2308V9.51923ZM8.46154 5.67308V5.28846C8.67392 5.28846 8.84615 5.11623 8.84615 4.90385C8.84615 4.69146 8.67392 4.51923 8.46154 4.51923V4.13462C8.46154 3.92223 8.28931 3.75 8.07692 3.75H7.30769C7.09531 3.75 6.92308 3.92223 6.92308 4.13462V4.51923C6.71069 4.51923 6.53846 4.69146 6.53846 4.90385C6.53846 5.11623 6.71069 5.28846 6.92308 5.28846V5.67308C6.92308 6.77308 5 8.03462 5 9.13462V13.75C5 14.1748 5.34438 14.5192 5.76923 14.5192H9.61538C10.0245 14.4835 10.3488 14.1591 10.3846 13.75V9.13462C10.3846 8.09615 8.46154 6.71154 8.46154 5.67308ZM7.69231 12.9808C6.63023 12.9808 5.76923 12.1198 5.76923 11.0577C5.76923 9.99562 6.63023 9.13462 7.69231 9.13462C8.75438 9.13462 9.61538 9.99562 9.61538 11.0577C9.61538 12.1198 8.75438 12.9808 7.69231 12.9808Z" fill="white"/>
</svg>
