<svg width="20" height="20" viewBox="0 0 20 20" fill="none" xmlns="http://www.w3.org/2000/svg">
<circle cx="10" cy="10" r="9.5" fill="#4F5A7D" stroke="white"/>
<path d="M8.16167 7.40167L8.75 11.6667C8.74761 11.7768 8.76754 11.8862 8.80857 11.9884C8.8496 12.0906 8.9109 12.1834 8.98876 12.2612C9.06662 12.3391 9.15944 12.4004 9.26163 12.4414C9.36381 12.4825 9.47324 12.5024 9.58333 12.5H10.4167C10.5268 12.5024 10.6362 12.4825 10.7384 12.4414C10.8406 12.4004 10.9334 12.3391 11.0112 12.2612C11.0891 12.1834 11.1504 12.0906 11.1914 11.9884C11.2325 11.8862 11.2524 11.7768 11.25 11.6667L11.8383 7.40167C11.8383 6.25 10 6.25 10 6.25C10 6.25 8.15917 6.25 8.16167 7.40167ZM6.66667 7.91667C5.41667 7.91667 5.41667 8.75 5.41667 8.75L6.25 12.0833H7.5C7.67144 12.0837 7.83629 12.0173 7.95975 11.8984C8.08321 11.7794 8.15561 11.6172 8.16167 11.4458L7.5 7.91667H6.66667ZM5 10C4.67271 9.99717 4.35682 10.1201 4.1175 10.3433C3.90776 10.534 3.77671 10.7961 3.75 11.0783V12.9167H4.485C4.6019 12.928 4.71988 12.9149 4.83148 12.8783C4.94309 12.8418 5.0459 12.7825 5.13344 12.7042C5.22098 12.6259 5.29134 12.5303 5.34009 12.4234C5.38883 12.3166 5.41491 12.2008 5.41667 12.0833L5 10ZM13.3333 7.91667C14.5833 7.91667 14.5833 8.75 14.5833 8.75L13.75 12.0833H12.5C12.3286 12.0837 12.1637 12.0173 12.0402 11.8984C11.9168 11.7794 11.8444 11.6172 11.8383 11.4458L12.5 7.91667H13.3333ZM15 10C15.3273 9.99717 15.6432 10.1201 15.8825 10.3433C16.0922 10.534 16.2233 10.7961 16.25 11.0783V12.9167H15.515C15.3981 12.928 15.2801 12.9149 15.1685 12.8783C15.0569 12.8418 14.9541 12.7825 14.8666 12.7042C14.779 12.6259 14.7087 12.5303 14.6599 12.4234C14.6112 12.3166 14.5851 12.2008 14.5833 12.0833L15 10Z" fill="white"/>
</svg>
