<svg width="20" height="20" viewBox="0 0 20 20" fill="none" xmlns="http://www.w3.org/2000/svg">
<circle cx="10" cy="10" r="9.5" fill="#4F5A7D" stroke="white"/>
<path d="M14.1667 7.26852V4.62963C14.1667 4.62963 13.287 3.75 10.2083 3.75C7.12963 3.75 6.25 4.62963 6.25 4.62963V7.26852C6.27533 8.49252 6.57599 9.69506 7.12963 10.787C7.67984 12.0491 7.67984 13.4833 7.12963 14.7454C7.12963 14.7454 7.12963 15.625 10.2083 15.625C13.287 15.625 13.287 14.7454 13.287 14.7454C12.7368 13.4833 12.7368 12.0491 13.287 10.787C13.8407 9.69506 14.1413 8.49252 14.1667 7.26852ZM10.2083 14.7454C9.50762 14.7762 8.80647 14.6929 8.13241 14.4991C8.31097 13.8636 8.39982 13.2064 8.3963 12.5463H12.0204C12.0169 13.2064 12.1057 13.8636 12.2843 14.4991C11.6102 14.6929 10.909 14.7762 10.2083 14.7454ZM10.2083 7.26852C9.16474 7.29482 8.12414 7.14616 7.12963 6.8287V5.06944C8.12449 4.75375 9.16483 4.60518 10.2083 4.62963C11.2518 4.60518 12.2922 4.75375 13.287 5.06944V6.8287C12.2925 7.14616 11.2519 7.29482 10.2083 7.26852Z" fill="white"/>
</svg>
