<svg width="20" height="20" viewBox="0 0 20 20" fill="none" xmlns="http://www.w3.org/2000/svg">
<circle cx="10" cy="10" r="9.5" fill="#4F5A7D" stroke="white"/>
<path d="M6.47662 7.15935C7.10759 7.15935 7.65849 6.81654 7.95324 6.30701H14.1477C14.6184 6.30701 15 5.9254 15 5.45468C15 4.98395 14.6184 4.60234 14.1477 4.60234H7.95324C7.65849 4.09281 7.10759 3.75 6.47662 3.75C5.84566 3.75 5.29475 4.09281 5 4.60234H6.47662V6.30701H5C5.29475 6.81654 5.84566 7.15935 6.47662 7.15935ZM5.74911 10.87C5.66919 10.95 5.62429 11.0584 5.62429 11.1714V14.4042C5.62429 14.6396 5.81509 14.8304 6.05045 14.8304H7.32896C7.56433 14.8304 7.75513 14.6396 7.75513 14.4042V13.9781H12.8692V14.4042C12.8692 14.6396 13.06 14.8304 13.2953 14.8304H14.5738C14.8092 14.8304 15 14.6396 15 14.4042V11.1714C15 11.0584 14.9551 10.95 14.8752 10.87L14.1477 10.1425L12.9933 8.21859C12.9163 8.09023 12.7775 8.01169 12.6279 8.01169H7.99642C7.84672 8.01169 7.708 8.09023 7.63099 8.21859L6.47662 10.1425L5.74911 10.87ZM13.4094 10.5687H7.21494L8.23772 8.86403H12.3866L13.4094 10.5687ZM8.60747 12.1267V12.4438C8.60747 12.5851 8.49298 12.6995 8.35177 12.6995H6.73232C6.5911 12.6995 6.47662 12.5851 6.47662 12.4438V11.7329C6.47662 11.5716 6.62425 11.4505 6.78247 11.4822L8.33339 11.7924C8.49275 11.8243 8.60747 11.9641 8.60747 12.1267ZM14.1477 11.8369V12.4438C14.1477 12.5851 14.0332 12.6995 13.892 12.6995H12.2725C12.1313 12.6995 12.0168 12.5851 12.0168 12.4438V12.0568C12.0168 11.9349 12.1029 11.83 12.2224 11.8061L13.7399 11.5026C13.9509 11.4604 14.1477 11.6218 14.1477 11.8369Z" fill="white"/>
</svg>
