<svg width="20" height="20" viewBox="0 0 20 20" fill="none" xmlns="http://www.w3.org/2000/svg">
<circle cx="10" cy="10" r="9.5" fill="#4F5A7D" stroke="white"/>
<path d="M16.0962 8.70385L14.9038 7.59615L13.8462 5.48077C13.7553 5.33307 13.628 5.21124 13.4764 5.12704C13.3249 5.04283 13.1542 4.99908 12.9808 5H7.01923C6.84584 4.99908 6.67514 5.04283 6.52357 5.12704C6.372 5.21124 6.24467 5.33307 6.15385 5.48077L5.09615 7.59615L3.90385 8.70385C3.85527 8.74889 3.81654 8.80349 3.79006 8.86422C3.76359 8.92494 3.74995 8.99048 3.75 9.05673V13.1731C3.75 13.3006 3.80065 13.4229 3.89081 13.513C3.98098 13.6032 4.10326 13.6538 4.23077 13.6538H6.15385C6.34615 13.6538 6.63462 13.4615 6.63462 13.2692V12.6923H13.3654V13.1731C13.3654 13.3654 13.5577 13.6538 13.75 13.6538H15.7692C15.8967 13.6538 16.019 13.6032 16.1092 13.513C16.1993 13.4229 16.25 13.3006 16.25 13.1731V9.05673C16.2501 8.99048 16.2364 8.92494 16.2099 8.86422C16.1835 8.80349 16.1447 8.74889 16.0962 8.70385ZM7.11538 5.96154H12.8846L13.8462 7.88461H6.15385L7.11538 5.96154ZM7.59615 10.3846C7.59615 10.5769 7.30769 10.7692 7.11538 10.7692H5.09615C4.90385 10.7692 4.71154 10.4808 4.71154 10.2885V9.23077C4.80769 8.94231 5 8.75 5.28846 8.84615L7.21154 9.23077C7.40385 9.23077 7.59615 9.51923 7.59615 9.71154V10.3846ZM15.2885 10.2885C15.2885 10.4808 15.0962 10.7692 14.9038 10.7692H12.8846C12.6923 10.7692 12.4038 10.5769 12.4038 10.3846V9.71154C12.4038 9.51923 12.5962 9.23077 12.7885 9.23077L14.7115 8.84615C15 8.75 15.1923 8.94231 15.2885 9.23077V10.2885Z" fill="white"/>
</svg>
