<svg width="20" height="20" viewBox="0 0 20 20" fill="none" xmlns="http://www.w3.org/2000/svg">
<circle cx="10" cy="10" r="9.5" fill="#4F5A7D" stroke="white"/>
<path d="M7.13551 15.9216C6.22698 15.9216 6.62673 13.4958 6.35417 11.3789C6.26332 10.6884 5.44565 10.0252 5.33663 9.50737C4.99139 7.74483 4.43719 4.51048 6.49954 4.11073C8.56189 3.71097 8.62549 5.92778 10.0246 5.92778C11.4237 5.92778 11.451 3.78366 13.5224 4.11073C15.5939 4.4378 14.967 7.65397 14.6944 9.47102C14.6036 9.87986 13.6951 10.8156 13.6224 11.3426C13.3226 13.523 13.9131 15.8852 12.8956 15.8852C12.0506 15.8852 11.6963 13.414 11.0785 11.7968C10.8332 11.0428 10.497 10.4704 10.0246 10.4704C8.62549 10.4704 8.39836 15.9216 7.13551 15.9216Z" fill="white"/>
</svg>
