<svg width="20" height="20" viewBox="0 0 20 20" fill="none" xmlns="http://www.w3.org/2000/svg">
<circle cx="10" cy="10" r="9.5" fill="#4F5A7D" stroke="white"/>
<path d="M15.468 3.7507C15.468 3.7507 14.1103 3.71047 13.5684 4.23895C13.0475 4.74693 12.8322 5.13509 12.8322 6.19196H3.75L5.11176 10.8933C5.11518 10.9004 5.1214 10.9072 5.12511 10.9143C5.35401 11.5561 5.95233 12.0184 6.66616 12.0453C6.66909 12.0465 6.67951 12.051 6.67951 12.051H13.0268V12.2455C13.0268 12.2455 13.0275 12.5396 12.8322 12.9302C12.6369 13.3208 12.5397 13.5157 11.7585 13.5157H5.4112C4.4347 13.5157 4.4347 14.9805 5.4112 14.9805H6.58224H6.67951H11.4648H11.562H11.6612C12.833 14.9805 13.7103 14.2966 14.0033 13.613C14.2962 12.9294 14.297 12.3447 14.297 12.3447V12.051V6.19196C14.297 5.68066 14.5202 5.21546 14.9798 5.21546H15.5176C15.9221 5.21546 16.25 4.88755 16.25 4.48308C16.25 4.07861 15.9221 3.7507 15.5176 3.7507H15.468ZM11.562 14.9805C10.9761 14.9805 10.5855 15.3711 10.5855 15.957C10.5855 16.5429 10.9761 16.9335 11.562 16.9335C12.1479 16.9335 12.5385 16.5429 12.5385 15.957C12.5385 15.3711 12.1479 14.9805 11.562 14.9805ZM6.67951 14.9805C6.09361 14.9805 5.70301 15.3711 5.70301 15.957C5.70301 16.5429 6.09361 16.9335 6.67951 16.9335C7.26541 16.9335 7.65601 16.5429 7.65601 15.957C7.65601 15.3711 7.26541 14.9805 6.67951 14.9805Z" fill="white"/>
</svg>
