<svg width="20" height="20" viewBox="0 0 20 20" fill="none" xmlns="http://www.w3.org/2000/svg">
<circle cx="10" cy="10" r="9.5" fill="#4F5A7D" stroke="white"/>
<path d="M17.3864 5.90909C17.3864 5.90909 15.5682 5.36364 14.2045 6.36364L10.2955 9.09091C9.56818 8.54545 8.47727 7.90909 7.38636 7.54545V6.81818C7.38636 5.81818 6.56818 5 5.56818 5C4.56818 5 3.75 5.81818 3.75 6.81818V8.18182C3.75 8.63636 4.20455 8.63636 4.20455 8.63636H5.56818H6.02273C7.84091 8.63636 9.20455 10 9.20455 10C9.20455 10 7.84091 11.3636 6.02273 11.3636H5.56818H4.20455C4.20455 11.3636 3.75 11.3636 3.75 11.8182V13.1818C3.75 14.1818 4.56818 15 5.56818 15C6.56818 15 7.38636 14.1818 7.38636 13.1818V12.4545C8.47727 12.0909 9.56818 11.4545 10.2955 10.9091L14.2045 13.6364C15.5682 14.6364 17.3864 14.0909 17.3864 14.0909L11.4773 10L17.3864 5.90909ZM6.47727 7.72727H5.56818H4.65909V6.81818C4.65909 6.27273 5.02273 5.90909 5.56818 5.90909C6.11364 5.90909 6.47727 6.27273 6.47727 6.81818V7.72727ZM6.47727 13.1818C6.47727 13.7273 6.11364 14.0909 5.56818 14.0909C5.02273 14.0909 4.65909 13.7273 4.65909 13.1818V12.2727H5.56818H6.47727V13.1818ZM10.3409 10.4545C10.0899 10.4545 9.88636 10.251 9.88636 10C9.88636 9.749 10.0899 9.54545 10.3409 9.54545C10.5919 9.54545 10.7955 9.749 10.7955 10C10.7955 10.251 10.5919 10.4545 10.3409 10.4545Z" fill="white"/>
</svg>
