<svg width="20" height="20" viewBox="0 0 20 20" fill="none" xmlns="http://www.w3.org/2000/svg">
<circle cx="10" cy="10" r="9.5" fill="#4F5A7D" stroke="white"/>
<path d="M8.75332 4.58389C8.75332 4.41896 8.80222 4.25774 8.89385 4.1206C8.98548 3.98347 9.11572 3.87659 9.26809 3.81348C9.42046 3.75036 9.58813 3.73385 9.74988 3.76602C9.91164 3.7982 10.0602 3.87762 10.1768 3.99424C10.2935 4.11086 10.3729 4.25945 10.4051 4.4212C10.4372 4.58296 10.4207 4.75063 10.3576 4.903C10.2945 5.05537 10.1876 5.18561 10.0505 5.27724C9.91335 5.36887 9.75213 5.41777 9.5872 5.41777C9.36604 5.41777 9.15394 5.32992 8.99756 5.17353C8.84117 5.01715 8.75332 4.80505 8.75332 4.58389ZM10.4211 6.6686C10.4221 6.65249 10.4221 6.63634 10.4211 6.62024C10.4147 6.51608 10.3671 6.41874 10.2889 6.34962C10.2107 6.28051 10.1083 6.24527 10.0041 6.25166H9.17026C9.15415 6.25069 9.138 6.25069 9.12189 6.25166C9.01774 6.2581 8.9204 6.30563 8.85128 6.38382C8.78216 6.46201 8.74693 6.56444 8.75332 6.6686V9.5872H10.4211V6.6686ZM16.1332 9.70728L14.4237 7.75265L14.4946 7.32821C14.498 7.31086 14.5002 7.29331 14.5013 7.27567C14.5013 7.22038 14.4793 7.16735 14.4402 7.12826C14.4011 7.08916 14.3481 7.0672 14.2928 7.0672C14.2457 7.07173 14.2005 7.08777 14.1611 7.1139L11.255 9.5872H10.4211L11.255 10.4211V11.6719C11.255 11.7825 11.211 11.8885 11.1329 11.9667C11.0547 12.0449 10.9486 12.0889 10.838 12.0889C10.7275 12.0889 10.6214 12.0449 10.5432 11.9667C10.465 11.8885 10.4211 11.7825 10.4211 11.6719V10.838L8.75332 9.5872H7.08554C6.88086 9.58726 6.67932 9.63754 6.4986 9.73365C6.31788 9.82975 6.16351 9.96873 6.04902 10.1384C5.9402 9.97267 5.7927 9.8359 5.61925 9.73988C5.44579 9.64385 5.25158 9.59145 5.05336 9.5872H5.00083C4.84199 9.58152 4.6836 9.60723 4.53471 9.66286C4.38583 9.71849 4.24938 9.80295 4.13319 9.9114C4.017 10.0198 3.92334 10.1501 3.85759 10.2948C3.79183 10.4395 3.75527 10.5958 3.75 10.7546L3.75 10.8264C3.75977 11.3905 3.92075 11.9417 4.21614 12.4224C4.2358 12.4462 4.26002 12.4659 4.28737 12.4802C4.31472 12.4945 4.34465 12.5032 4.37541 12.5058C4.4307 12.5058 4.48373 12.4838 4.52283 12.4447C4.56192 12.4056 4.58389 12.3526 4.58389 12.2973V11.255C4.58389 11.255 4.56721 10.4845 5.2118 10.4211C5.62875 10.3811 5.83471 10.6321 5.83471 10.838V12.9227L5.41777 14.5905V16.0498C5.41777 16.1051 5.43974 16.1581 5.47883 16.1972C5.51793 16.2363 5.57095 16.2583 5.62624 16.2583C5.67907 16.2576 5.72974 16.2372 5.7683 16.2011C5.80687 16.165 5.83056 16.1158 5.83471 16.0632V14.5905L7.08554 12.9227V13.7566L7.50249 16.0915C7.51284 16.1384 7.53874 16.1804 7.57599 16.2107C7.61323 16.2409 7.65963 16.2577 7.70762 16.2583C7.735 16.2587 7.7622 16.2538 7.78766 16.2437C7.81312 16.2336 7.83635 16.2186 7.85602 16.1996C7.87569 16.1805 7.89141 16.1578 7.90229 16.1327C7.91317 16.1076 7.919 16.0805 7.91943 16.0532L7.79852 14.0068L8.33637 12.9227H10.4211V13.7566L10.8447 16.1024C10.8572 16.1465 10.8836 16.1855 10.9199 16.2136C10.9562 16.2417 11.0006 16.2573 11.0465 16.2583C11.1018 16.2583 11.1548 16.2363 11.1939 16.1972C11.233 16.1581 11.255 16.1051 11.255 16.0498V13.7566L11.561 12.9227C11.7673 12.816 11.9282 12.6383 12.0138 12.4224L13.8158 9.28117C13.8972 9.42718 14.0268 9.54032 14.1825 9.60118C14.3381 9.66205 14.5101 9.66683 14.6689 9.61472L15.5578 10.2968C15.6403 10.3651 15.7428 10.4046 15.8497 10.4094C15.9442 10.4086 16.0355 10.3748 16.1078 10.314C16.1801 10.2531 16.2289 10.1689 16.2458 10.0759C16.2548 10.0099 16.2494 9.94285 16.2299 9.87922C16.2105 9.81559 16.1775 9.75693 16.1332 9.70728Z" fill="white"/>
</svg>
