<svg width="20" height="20" viewBox="0 0 20 20" fill="none" xmlns="http://www.w3.org/2000/svg">
<circle cx="10" cy="10" r="9.5" fill="#4F5A7D" stroke="white"/>
<path d="M14.5455 13.75H14.0909V13.2955C14.0909 13.0227 13.9091 12.8409 13.6364 12.8409H13.1818V8.29545H14.0909L15 6.47727C14.0909 6.56818 13.1818 6.56818 12.2727 6.47727C11.5455 5.93182 11 5.38636 10.4545 4.65909V4.20455C10.4545 3.93182 10.2727 3.75 10 3.75C9.72727 3.75 9.54545 3.93182 9.54545 4.20455V4.65909C9 5.38636 8.45455 5.93182 7.72727 6.47727C6.81818 6.56818 5.90909 6.56818 5 6.47727L5.90909 8.29545H6.81818V12.8409H6.36364C6.09091 12.8409 5.90909 13.0227 5.90909 13.2955V13.75H5.45455C5.18182 13.75 5 13.9318 5 14.2045V14.6591H15V14.2045C15 13.9318 14.8182 13.75 14.5455 13.75ZM9.54545 12.8409H7.72727V8.29545H9.54545V12.8409ZM12.2727 12.8409H10.4545V8.29545H12.2727V12.8409Z" fill="white"/>
</svg>
