<svg width="20" height="20" viewBox="0 0 20 20" fill="none" xmlns="http://www.w3.org/2000/svg">
<circle cx="10" cy="10" r="9.5" fill="#4F5A7D" stroke="white"/>
<path d="M14.922 7.08613L14.5673 6.73139L14.7403 6.48913C14.7576 6.46317 14.775 6.44587 14.7923 6.41991C14.9284 6.26445 15.0024 6.06417 14.9999 5.85752C14.9976 5.69606 14.9501 5.53848 14.8628 5.4026C14.7756 5.26672 14.6521 5.15797 14.5062 5.08865C14.3604 5.01933 14.198 4.99221 14.0376 5.01035C13.8771 5.02849 13.7249 5.09118 13.5983 5.19131C13.5723 5.20861 13.5464 5.23457 13.5204 5.25187L13.2695 5.43357L12.9355 5.0996C12.8809 5.03986 12.8048 5.00417 12.724 5.00034C12.6431 4.99651 12.564 5.02485 12.504 5.07916C12.444 5.13348 12.4079 5.20934 12.4036 5.29018C12.3994 5.37102 12.4273 5.45026 12.4813 5.51057L12.8421 5.87137L12.4095 6.30397L12.0703 5.96481C12.0157 5.90507 11.9396 5.86938 11.8588 5.86556C11.7779 5.86173 11.6988 5.89006 11.6388 5.94438C11.5787 5.99869 11.5427 6.07456 11.5384 6.15539C11.5341 6.23623 11.5621 6.31547 11.6161 6.37579L11.9717 6.73139L11.5391 7.16399L11.2094 6.83435C11.1826 6.80435 11.1501 6.77993 11.1139 6.76248C11.0776 6.74503 11.0383 6.73489 10.9981 6.73264C10.917 6.7281 10.8374 6.75597 10.7768 6.81012C10.7162 6.86428 10.6796 6.94028 10.6751 7.02141C10.6706 7.10254 10.6984 7.18215 10.7526 7.24273L10.7768 7.26695L11.1065 7.5966L10.6738 8.02921L10.3321 7.68745C10.2759 7.63156 10.2002 7.59966 10.1209 7.59843C10.0416 7.5972 9.965 7.62675 9.90707 7.68087C9.84915 7.73498 9.81446 7.80945 9.8103 7.88861C9.80614 7.96777 9.83284 8.04546 9.88477 8.10535L10.2412 8.46181L9.80863 8.89442L9.49283 8.57862C9.44246 8.51482 9.36882 8.47365 9.28809 8.46416C9.20737 8.45467 9.12618 8.47763 9.06239 8.528C8.99859 8.57837 8.95742 8.65202 8.94793 8.73274C8.93844 8.81346 8.9614 8.89465 9.01177 8.95844C9.02994 8.98094 9.38295 9.32702 9.38295 9.32702L8.94342 9.75963L8.60253 9.42047C8.54457 9.3666 8.4696 9.33469 8.3906 9.33027C8.31159 9.32585 8.23353 9.34918 8.16992 9.39624C8.11479 9.45352 8.08203 9.52868 8.07759 9.60805C8.07314 9.68743 8.09731 9.76577 8.14569 9.82885L8.16473 9.84615L8.51081 10.1922L8.07821 10.6248L7.73212 10.2788C7.67308 10.2246 7.59591 10.1946 7.51582 10.1946C7.43573 10.1946 7.35856 10.2246 7.29952 10.2788L8.29278 11.2686L13.3474 6.22091L13.7021 5.86618H14.1347V6.29878L13.78 6.65352L8.72798 11.7055L9.72211 12.7014C9.77917 12.6438 9.81119 12.5661 9.81119 12.485C9.81119 12.404 9.77917 12.3263 9.72211 12.2687L9.71519 12.261L9.37603 11.9227L9.80863 11.4901L10.1409 11.8223C10.195 11.8829 10.271 11.9195 10.3522 11.924C10.4333 11.9285 10.5129 11.9007 10.5735 11.8465C10.6341 11.7924 10.6706 11.7164 10.6752 11.6352C10.6797 11.5541 10.6519 11.4745 10.5977 11.4139L10.2412 11.0574L10.6738 10.6248L11.0026 10.9536C11.0568 11.0142 11.1328 11.0508 11.2139 11.0553C11.295 11.0599 11.3747 11.032 11.4352 10.9778C11.4958 10.9237 11.5324 10.8477 11.5369 10.7666C11.5415 10.6854 11.5136 10.6058 11.4595 10.5452L11.4422 10.5279L11.1065 10.1922L11.5391 9.75963L11.8652 10.0858C11.8933 10.1188 11.9282 10.1454 11.9675 10.1637C12.0067 10.1821 12.0495 10.1918 12.0928 10.1922C12.1541 10.1949 12.2147 10.1787 12.2664 10.1458C12.3182 10.113 12.3587 10.0651 12.3824 10.0085C12.4062 9.95201 12.4121 9.88956 12.3993 9.82959C12.3864 9.76962 12.3556 9.71502 12.3108 9.67311L11.9717 9.32702L12.4043 8.89442L12.7331 9.2232C12.7872 9.28378 12.8632 9.32036 12.9443 9.32491C13.0255 9.32945 13.1051 9.30158 13.1657 9.24743C13.2262 9.19327 13.2628 9.11727 13.2674 9.03614C13.2719 8.95501 13.244 8.8754 13.1899 8.81482L13.1657 8.79059L12.8369 8.46181L13.2695 8.02921L13.5991 8.35885C13.6533 8.41943 13.7293 8.45602 13.8104 8.46056C13.8915 8.4651 13.9712 8.43723 14.0317 8.38308C14.0923 8.32892 14.1289 8.25292 14.1334 8.17179C14.138 8.09066 14.1101 8.01105 14.056 7.95047L14.0343 7.92884L13.7021 7.5966L14.1347 7.16399L14.4652 7.49451C14.5194 7.55508 14.5954 7.59167 14.6765 7.59621C14.7576 7.60076 14.8372 7.57289 14.8978 7.51873C14.9584 7.46458 14.995 7.38857 14.9995 7.30745C15.0041 7.22632 14.9762 7.1467 14.922 7.08613ZM6.68522 10.9848C6.25521 10.5548 6.03717 10.1922 5.48257 10.1922H4.18475C4.07002 10.1922 3.95998 10.2378 3.87885 10.3189C3.79772 10.4001 3.75215 10.5101 3.75215 10.6248V13.2205C3.7297 13.6919 3.88397 14.1547 4.18475 14.5183L4.8899 15.22C5.0597 15.4113 5.26551 15.5673 5.4956 15.679C5.72568 15.7908 5.97552 15.8561 6.23085 15.8713C6.48619 15.8865 6.74201 15.8512 6.98371 15.7675C7.22542 15.6838 7.44827 15.5533 7.63955 15.3835L9.37603 13.6531L6.68522 10.9848ZM5.91518 12.7879L4.84404 13.859C4.70465 13.6745 4.62549 13.4516 4.61736 13.2205V11.0574H5.48257C5.59647 11.076 5.6996 11.1358 5.77242 11.2253C5.82548 11.2681 5.86654 11.3239 5.89156 11.3873C5.91659 11.4507 5.92472 11.5195 5.91518 11.587V12.7879Z" fill="white"/>
</svg>
