<svg width="20" height="20" viewBox="0 0 20 20" fill="none" xmlns="http://www.w3.org/2000/svg">
<circle cx="10" cy="10" r="9.5" fill="#4F5A7D" stroke="white"/>
<path d="M10 3.75C9.71154 3.75 9.61538 3.94231 9.42308 4.13462L3.84615 13.2692C3.75 13.3654 3.75 13.5577 3.75 13.6538C3.75 14.1346 4.13462 14.3269 4.42308 14.3269H15.5769C15.9615 14.3269 16.25 14.1346 16.25 13.6538C16.25 13.4615 16.25 13.4615 16.1538 13.2692L10.6731 4.13462C10.4808 3.94231 10.2885 3.75 10 3.75ZM10 5.19231L13.1731 10.4808H12.4038L10.9615 9.03846L10 10.4808L9.03846 9.03846L7.59615 10.4808H6.73077L10 5.19231Z" fill="white"/>
</svg>
