<svg width="20" height="20" viewBox="0 0 20 20" fill="none" xmlns="http://www.w3.org/2000/svg">
<circle cx="10" cy="10" r="9.5" fill="#4F5A7D" stroke="white"/>
<path d="M12.6111 11.8194L14.0833 10.3333C14.3796 10.037 14.6065 9.69907 14.7639 9.31944C14.9213 8.93982 15 8.54167 15 8.125C15 7.25463 14.6969 6.51611 14.0906 5.90944C13.4843 5.30278 12.7457 4.99963 11.875 5C11.4583 5 11.0602 5.0787 10.6806 5.23611C10.3009 5.39352 9.96296 5.62037 9.66667 5.91667L8.18056 7.38889L12.6111 11.8194ZM8.125 15C8.54167 15 8.93981 14.9213 9.31944 14.7639C9.69907 14.6065 10.037 14.3796 10.3333 14.0833L11.8194 12.6111L7.38889 8.18056L5.91667 9.66667C5.62037 9.96296 5.39352 10.3009 5.23611 10.6806C5.0787 11.0602 5 11.4583 5 11.875C5 12.7454 5.30333 13.4837 5.91 14.09C6.51667 14.6963 7.255 14.9996 8.125 15Z" fill="white"/>
</svg>
