<svg width="20" height="20" viewBox="0 0 20 20" fill="none" xmlns="http://www.w3.org/2000/svg">
<circle cx="10" cy="10" r="9.5" fill="#4F5A7D" stroke="white"/>
<path d="M5.04414 4.78916C5.23309 4.06482 5.97342 3.63081 6.69776 3.81967C7.4221 4.00853 7.85611 4.74895 7.66726 5.47329C7.48626 6.16736 6.7959 6.60019 6.09234 6.46085C5.35806 6.31537 4.88068 5.60224 5.02607 4.86787C5.03131 4.84148 5.03737 4.81518 5.04414 4.78916ZM14.9839 14.8826C15.0772 15.3729 14.7552 15.8458 14.265 15.9391C14.2636 15.9394 14.2624 15.9396 14.261 15.9398C13.8768 16.0175 13.4863 15.8387 13.2942 15.497L11.7761 12.4518L10.4659 12.7139L10.2671 12.7862H10.2128V14.729L10.7731 14.5934H10.8996C11.159 14.5983 11.3654 14.8125 11.3605 15.0721C11.357 15.2586 11.2435 15.4254 11.0713 15.497L6.55319 16.4007C6.50231 16.4092 6.45044 16.4092 6.39957 16.4007C6.14005 16.4007 5.92969 16.1903 5.92969 15.9308C5.92969 15.7411 6.04373 15.57 6.21885 15.497L9.96886 14.747V12.7862L7.05921 13.3103C6.91102 13.3485 6.7556 13.3485 6.6074 13.3103C6.30071 13.2319 6.05728 12.9989 5.96583 12.6958H5.94776L5.04414 9.01809C5.01595 8.89014 5.01595 8.75749 5.04414 8.62954C5.12872 8.27984 5.41264 8.01372 5.76704 7.95182L10.014 7.48194V3.75H10.2128V7.45483H10.2671L10.4659 7.43676L10.8273 7.36447H11.0171C11.2586 7.42257 11.4079 7.66474 11.3514 7.90664C11.3117 8.11899 11.1246 8.27179 10.9086 8.26809L10.4659 8.34038H10.2671H10.2128V10.9247H10.2671L10.4659 10.8705L12.1014 10.5452C12.4877 10.5134 12.8513 10.7315 13.005 11.0874L14.8122 14.6476C14.8818 14.7161 14.9397 14.7955 14.9839 14.8826ZM10.014 8.38556L7.755 8.62954L8.42367 11.2862L10.014 10.9789V8.38556Z" fill="white"/>
</svg>
