<svg width="20" height="20" viewBox="0 0 20 20" fill="none" xmlns="http://www.w3.org/2000/svg">
<circle cx="10" cy="10" r="9.5" fill="#4F5A7D" stroke="white"/>
<path d="M5.90909 3.75C5.407 3.75 5 4.157 5 4.65909V11.9318C5 12.4339 5.407 12.8409 5.90909 12.8409H14.0909C14.593 12.8409 15 12.4339 15 11.9318V4.65909C15 4.157 14.593 3.75 14.0909 3.75H5.90909ZM8.40909 4.20455H8.41797H11.5998C11.7253 4.20455 11.8271 4.30627 11.8271 4.43182C11.8271 4.55736 11.7253 4.65909 11.5998 4.65909H8.40909C8.28355 4.65909 8.18182 4.55736 8.18182 4.43182C8.18182 4.30627 8.28355 4.20455 8.40909 4.20455ZM6.36364 5.56818H9.54545V9.20455H6.36364C6.11264 9.20455 5.90909 9.001 5.90909 8.75V6.02273C5.90909 5.77173 6.11264 5.56818 6.36364 5.56818ZM10.4545 5.56818H13.6364C13.8874 5.56818 14.0909 5.77173 14.0909 6.02273V8.75C14.0909 9.001 13.8874 9.20455 13.6364 9.20455H10.4545V5.56818ZM7.72727 10.1136C8.22936 10.1136 8.63636 10.5206 8.63636 11.0227C8.63636 11.5248 8.22936 11.9318 7.72727 11.9318C7.22518 11.9318 6.81818 11.5248 6.81818 11.0227C6.81818 10.5206 7.22518 10.1136 7.72727 10.1136ZM12.2727 10.1136C12.7748 10.1136 13.1818 10.5206 13.1818 11.0227C13.1818 11.5248 12.7748 11.9318 12.2727 11.9318C11.7706 11.9318 11.3636 11.5248 11.3636 11.0227C11.3636 10.5206 11.7706 10.1136 12.2727 10.1136ZM12.6776 13.7447C12.6187 13.7497 12.5591 13.7669 12.5036 13.7962C12.3006 13.9031 12.2093 14.1445 12.2905 14.359L12.445 14.6591H7.55504L7.67223 14.4141C7.76105 14.1792 7.64249 13.9169 7.40767 13.8281C7.19313 13.747 6.95172 13.8383 6.84482 14.0412L5.93572 15.8594C5.91645 15.9117 5.90782 15.967 5.90909 16.0227C5.90909 16.2737 6.11264 16.4773 6.36364 16.4773C6.52745 16.4764 6.67735 16.3858 6.75426 16.2411V16.195H6.81818L7.1005 15.5682H12.8995L13.1818 16.195V16.2411C13.2587 16.3858 13.4086 16.4764 13.5724 16.4773C13.8234 16.4773 14.027 16.2737 14.027 16.0227C14.0451 15.9511 14.0451 15.876 14.027 15.8043L13.1179 13.9861C13.0301 13.8196 12.8541 13.7296 12.6776 13.7447Z" fill="white"/>
</svg>
