<svg width="20" height="20" viewBox="0 0 20 20" fill="none" xmlns="http://www.w3.org/2000/svg">
<circle cx="10" cy="10" r="9.5" fill="#4F5A7D" stroke="white"/>
<path d="M8.33333 3.75C8.33333 3.75 7.70833 3.75 7.5 4.58333L6.25 9.16667V12.0833C6.25 12.9167 7.08333 12.9167 7.08333 12.9167H12.9167C12.9167 12.9167 13.75 12.9167 13.75 12.0833V9.16667L12.5 4.58333C12.2727 3.75 11.6667 3.75 11.6667 3.75H8.33333ZM9.16667 5H10.8333C10.8333 5 11.2797 5 11.4583 5.83333L12.0833 8.75C12.2622 9.58475 11.25 9.58333 11.25 9.58333H8.75C8.75 9.58333 7.73783 9.58475 7.91667 8.75L8.54167 5.83333C8.72025 5 9.16667 5 9.16667 5ZM7.91667 10.4167C8.37692 10.4167 8.75 10.7897 8.75 11.25C8.75 11.7102 8.37692 12.0833 7.91667 12.0833C7.45642 12.0833 7.08333 11.7102 7.08333 11.25C7.08333 10.7897 7.45642 10.4167 7.91667 10.4167ZM9.375 10.4167H10.625C10.7404 10.4167 10.8333 10.5096 10.8333 10.625C10.8333 10.7404 10.7404 10.8333 10.625 10.8333H9.375C9.25958 10.8333 9.16667 10.7404 9.16667 10.625C9.16667 10.5096 9.25958 10.4167 9.375 10.4167ZM12.0833 10.4167C12.5436 10.4167 12.9167 10.7897 12.9167 11.25C12.9167 11.7102 12.5436 12.0833 12.0833 12.0833C11.6231 12.0833 11.25 11.7102 11.25 11.25C11.25 10.7897 11.6231 10.4167 12.0833 10.4167ZM7.1875 13.75L6.25 16.25H7.5L7.8125 15.4167H12.1875L12.5 16.25H13.75L12.8125 13.75H11.5625L11.875 14.5833H8.125L8.4375 13.75H7.1875Z" fill="white"/>
</svg>
