<svg width="20" height="20" viewBox="0 0 20 20" fill="none" xmlns="http://www.w3.org/2000/svg">
<circle cx="10" cy="10" r="9.5" fill="#4F5A7D" stroke="white"/>
<path d="M7.04508 3.75L6.25626 8.08848C6.14078 8.72348 7.66153 9.02007 7.63669 9.66611L7.43948 14.7934C7.40919 15.5817 8.2283 15.5822 8.2283 15.5822C8.2283 15.5822 9.0474 15.5817 9.01711 14.7934L8.81991 9.66611C8.79514 9.02117 10.1872 8.73468 10.2003 8.08848L9.41152 3.75H9.01711L9.21432 6.90526L8.6227 7.29967L8.4255 3.75H8.03109L7.83389 7.29967L7.24228 6.90526L7.43948 3.75H7.04508ZM13.75 3.75C13.1691 3.75 12.2006 4.26659 11.8134 5.04105C11.4907 5.62194 11.3836 6.91962 11.3836 7.69407V9.66611C11.3836 10.3115 12.2441 10.4549 12.5668 10.4549L12.1724 14.7934C12.101 15.579 12.9612 15.5822 12.9612 15.5822C12.9612 15.5822 13.75 15.5822 13.75 14.7934V3.75Z" fill="white"/>
</svg>
