<svg width="20" height="20" viewBox="0 0 20 20" fill="none" xmlns="http://www.w3.org/2000/svg">
<circle cx="10" cy="10" r="9.5" fill="#4F5A7D" stroke="white"/>
<path d="M13.0322 4.00396C13.0322 4.83455 12.3588 5.50792 11.5282 5.50792C10.6976 5.50792 10.0242 4.83455 10.0242 4.00396C10.0242 3.17337 10.6976 2.5 11.5282 2.5C12.3588 2.5 13.0322 3.17337 13.0322 4.00396ZM13.0322 13.529C12.4784 13.529 12.0295 13.9779 12.0295 14.5317C12.0295 15.0854 12.4784 15.5343 13.0322 15.5343C13.5859 15.5343 14.0348 15.0854 14.0348 14.5317C14.0348 13.9779 13.5859 13.529 13.0322 13.529ZM14.877 8.60608L12.962 6.69104C12.8716 6.57824 12.7355 6.51197 12.591 6.51056H5.51236C5.23553 6.51056 5.01104 6.73505 5.01104 7.01188C5.01104 7.28871 5.23553 7.5132 5.51236 7.5132H8.21949L5.01104 13.8298C4.9972 13.896 4.9972 13.9642 5.01104 14.0304C4.95289 14.3072 5.13025 14.5788 5.40708 14.637C5.68391 14.6951 5.95553 14.5178 6.01368 14.2409L7.01632 12.5264H9.0216L7.08651 16.7776C7.03918 16.8562 7.01492 16.9466 7.01632 17.0383C6.96098 17.3151 7.14055 17.5845 7.41738 17.6399C7.69421 17.6952 7.96362 17.5156 8.01896 17.2388L12.7314 7.83405L14.1752 9.31796C14.3867 9.49663 14.703 9.46996 14.8816 9.2585C15.0412 9.0696 15.0393 8.79267 14.877 8.60608Z" fill="white"/>
</svg>
