<svg width="17" height="20" viewBox="0 0 17 20" fill="none" xmlns="http://www.w3.org/2000/svg">
<path d="M13.75 7.07692V6.82692H13.5H10.4231H10.1731V7.07692V9.72308V9.72308V9.72308V9.72309V9.72309V9.7231V9.7231V9.72311V9.72311V9.72312V9.72312V9.72313V9.72313V9.72314V9.72314V9.72315V9.72316V9.72316V9.72316V9.72317V9.72317V9.72318V9.72318V9.72319V9.72319V9.7232V9.7232V9.72321V9.72321V9.72322V9.72322V9.72323V9.72323V9.72324V9.72325V9.72325V9.72326V9.72327V9.72327V9.72328V9.72329V9.7233V9.7233V9.72331V9.72332V9.72333V9.72334V9.72334V9.72335V9.72336V9.72337V9.72338V9.72339V9.7234V9.72341V9.72342V9.72343V9.72344V9.72345V9.72346V9.72348V9.72349V9.7235V9.72351V9.72352V9.72354V9.72355V9.72356V9.72357V9.72359V9.7236V9.72361V9.72363V9.72364V9.72366V9.72367V9.72369V9.7237V9.72372V9.72373V9.72375V9.72376V9.72378V9.7238V9.72382V9.72383V9.72385V9.72387V9.72389V9.7239V9.72392V9.72394V9.72396V9.72398V9.724V9.72402V9.72404V9.72406V9.72408V9.7241V9.72413V9.72415V9.72417V9.72419V9.72421V9.72424V9.72426V9.72428V9.72431V9.72433V9.72436V9.72438V9.72441V9.72443V9.72446V9.72449V9.72451V9.72454V9.72457V9.72459V9.72462V9.72465V9.72468V9.72471V9.72474V9.72477V9.7248V9.72483V9.72486V9.72489V9.72492V9.72495V9.72498V9.72502V9.72505V9.72508V9.72512V9.72515V9.72518V9.72522V9.72525V9.72529V9.72533V9.72536V9.7254V9.72544V9.72547V9.72551V9.72555V9.72559V9.72563V9.72567V9.72571V9.72575V9.72579V9.72583V9.72587V9.72591V9.72595V9.726V9.72604V9.72608V9.72613V9.72617V9.72622V9.72626V9.72631V9.72635V9.7264V9.72645V9.72649V9.72654V9.72659V9.72664V9.72669V9.72674V9.72679V9.72684V9.72689V9.72694V9.72699V9.72705V9.7271V9.72715V9.72721V9.72726V9.72732V9.72737V9.72743V9.72748V9.72754V9.7276V9.72765V9.72771V9.72777V9.72783V9.72789V9.72795V9.72801V9.72807V9.72813V9.7282V9.72826V9.72832V9.72839V9.72845V9.72851V9.72858V9.72865V9.72871V9.72878V9.72885V9.72891V9.72898V9.72905V9.72912V9.72919V9.72926V9.72933V9.7294V9.72948V9.72955V9.72962V9.7297V9.72977V9.72985V9.72992V9.73V9.73007V9.73015V9.73023V9.73031V9.73039V9.73046V9.73055V9.73063V9.73071V9.73079V9.73087V9.73095V9.73104V9.73112V9.73121V9.73129V9.73138V9.73146V9.73155V9.73164V9.73173V9.73182V9.7319V9.732V9.73209V9.73218V9.73227V9.73236V9.73245V9.73255V9.73264V9.73274V9.73283V9.73293V9.73303V9.73312V9.73322V9.73332V9.73342V9.73352V9.73362V9.73372V9.73383V9.73393V9.73403V9.73414V9.73424V9.73434V9.73445V9.73456V9.73466V9.73477V9.73488V9.73499V9.7351V9.73521V9.73532V9.73543V9.73555V9.73566V9.73577V9.73589V9.736V9.73612V9.73624V9.73636V9.73647V9.73659V9.73671V9.73683V9.73695V9.73708V9.7372V9.73732V9.73744V9.73757V9.73769V9.73782V9.73795V9.73807V9.7382V9.73833V9.73846V9.73859V9.73872V9.73885V9.73899V9.73912V9.73925V9.73939V9.73953V9.73966V9.7398V9.73994V9.74008V9.74021V9.74035V9.7405V9.74064V9.74078V9.74092V9.74107V9.74121V9.74136V9.7415V9.74165V9.7418V9.74195V9.7421V9.74225V9.7424V9.74255V9.7427V9.74285V9.74301V9.74316V9.74332V9.74347V9.74363V9.74379V9.74395V9.74411V9.74427V9.74443V9.74459V9.74476V9.74492V9.74508V9.74525V9.74542V9.74558V9.74575V9.74592V9.74609V9.74626V9.74643V9.7466V9.74678V9.74695V9.74713V9.7473V9.74748V9.74765V9.74783V9.74801V9.74819V9.74837V9.74855V9.74874V9.74892V9.7491V9.74929V9.74947V9.74966V9.74985V9.75004V9.75023V9.75042V9.75061V9.7508V9.75099V9.75119V9.75138V9.75158V9.75177V9.75197V9.75217V9.75237V9.75257V9.75277V9.75297V9.75318V9.75338V9.75358V9.75379V9.754V9.7542V9.75441V9.75462V9.75483V9.75504V9.75526V9.75547V9.75568V9.7559V9.75611V9.75633V9.75655V9.75677V9.75699V9.75721V9.75743V9.75765V9.75787V9.7581V9.75833V9.75855V9.75878V9.75901V9.75924V9.75947V9.7597V9.75993V9.76016V9.7604V9.76063V9.76087V9.76111V9.76134V9.76158V9.76182V9.76207V9.76231V9.76255V9.76279V9.76304V9.76329V9.76353V9.76378V9.76403V9.76428V9.76453V9.76478V9.76504V9.76529V9.76555V9.7658V9.76606V9.76632V9.76658V9.76684V9.7671V9.76736V9.76763V9.76789V9.76816V9.76842V9.76869V9.76896L10.1731 9.76923L10.1731 9.77006C10.1755 10.5172 10.6408 11.1764 11.3269 11.4364V13.75H11.1923C10.8419 13.75 10.5577 14.0342 10.5577 14.3846C10.5577 14.7351 10.8419 15.0192 11.1923 15.0192H12.7308C13.0812 15.0192 13.3654 14.7351 13.3654 14.3846C13.3654 14.0342 13.0812 13.75 12.7308 13.75H12.5962V11.4364C13.2823 11.1764 13.7475 10.5172 13.75 9.77006V9.76923V9.76922V9.76922V9.76921V9.7692V9.76919V9.76919V9.76918V9.76917V9.76916V9.76915V9.76914V9.76913V9.76912V9.76911V9.7691V9.76909V9.76908V9.76907V9.76905V9.76904V9.76903V9.76902V9.76901V9.769V9.769V9.76899V9.76898V9.76897V9.76896V9.76895V9.76895V9.76894V9.76893V9.76892V9.76891V9.7689V9.76889V9.76888V9.76887V9.76886V9.76884V9.76883V9.76882V9.76881V9.7688V9.76879V9.76877V9.76876V9.76875V9.76873V9.76872V9.76871V9.76869V9.76868V9.76867V9.76865V9.76864V9.76862V9.76861V9.76859V9.76858V9.76856V9.76854V9.76853V9.76851V9.76849V9.76848V9.76846V9.76844V9.76842V9.7684V9.76838V9.76837V9.76835V9.76833V9.76831V9.76829V9.76827V9.76825V9.76823V9.7682V9.76818V9.76816V9.76814V9.76812V9.76809V9.76807V9.76805V9.76802V9.768V9.76797V9.76795V9.76793V9.7679V9.76787V9.76785V9.76782V9.7678V9.76777V9.76774V9.76771V9.76769V9.76766V9.76763V9.7676V9.76757V9.76754V9.76751V9.76748V9.76745V9.76742V9.76739V9.76736V9.76732V9.76729V9.76726V9.76723V9.76719V9.76716V9.76712V9.76709V9.76705V9.76702V9.76698V9.76695V9.76691V9.76687V9.76683V9.7668V9.76676V9.76672V9.76668V9.76664V9.7666V9.76656V9.76652V9.76648V9.76644V9.7664V9.76635V9.76631V9.76627V9.76622V9.76618V9.76614V9.76609V9.76605V9.766V9.76595V9.76591V9.76586V9.76581V9.76577V9.76572V9.76567V9.76562V9.76557V9.76552V9.76547V9.76542V9.76537V9.76531V9.76526V9.76521V9.76516V9.7651V9.76505V9.76499V9.76494V9.76488V9.76482V9.76477V9.76471V9.76465V9.7646V9.76454V9.76448V9.76442V9.76436V9.7643V9.76424V9.76417V9.76411V9.76405V9.76399V9.76392V9.76386V9.76379V9.76373V9.76366V9.7636V9.76353V9.76346V9.76339V9.76333V9.76326V9.76319V9.76312V9.76305V9.76298V9.7629V9.76283V9.76276V9.76269V9.76261V9.76254V9.76246V9.76239V9.76231V9.76223V9.76216V9.76208V9.762V9.76192V9.76184V9.76176V9.76168V9.7616V9.76152V9.76144V9.76135V9.76127V9.76119V9.7611V9.76102V9.76093V9.76084V9.76076V9.76067V9.76058V9.76049V9.7604V9.76031V9.76022V9.76013V9.76004V9.75995V9.75985V9.75976V9.75967V9.75957V9.75947V9.75938V9.75928V9.75918V9.75909V9.75899V9.75889V9.75879V9.75869V9.75858V9.75848V9.75838V9.75828V9.75817V9.75807V9.75796V9.75786V9.75775V9.75764V9.75753V9.75743V9.75732V9.75721V9.7571V9.75699V9.75687V9.75676V9.75665V9.75653V9.75642V9.7563V9.75619V9.75607V9.75595V9.75583V9.75572V9.7556V9.75548V9.75535V9.75523V9.75511V9.75499V9.75486V9.75474V9.75461V9.75449V9.75436V9.75423V9.75411V9.75398V9.75385V9.75372V9.75358V9.75345V9.75332V9.75319V9.75305V9.75292V9.75278V9.75265V9.75251V9.75237V9.75223V9.75209V9.75195V9.75181V9.75167V9.75153V9.75139V9.75124V9.7511V9.75095V9.75081V9.75066V9.75051V9.75036V9.75021V9.75006V9.74991V9.74976V9.74961V9.74945V9.7493V9.74915V9.74899V9.74883V9.74868V9.74852V9.74836V9.7482V9.74804V9.74788V9.74771V9.74755V9.74739V9.74722V9.74706V9.74689V9.74672V9.74656V9.74639V9.74622V9.74605V9.74588V9.7457V9.74553V9.74536V9.74518V9.74501V9.74483V9.74465V9.74448V9.7443V9.74412V9.74394V9.74375V9.74357V9.74339V9.7432V9.74302V9.74283V9.74265V9.74246V9.74227V9.74208V9.74189V9.7417V9.74151V9.74131V9.74112V9.74093V9.74073V9.74053V9.74034V9.74014V9.73994V9.73974V9.73954V9.73934V9.73913V9.73893V9.73872V9.73852V9.73831V9.7381V9.7379V9.73769V9.73748V9.73726V9.73705V9.73684V9.73663V9.73641V9.73619V9.73598V9.73576V9.73554V9.73532V9.7351V9.73488V9.73466V9.73443V9.73421V9.73398V9.73376V9.73353V9.7333V9.73307V9.73284V9.73261V9.73238V9.73214V9.73191V9.73167V9.73144V9.7312V9.73096V9.73072V9.73048V9.73024V9.73V9.72976V9.72951V9.72927V9.72902V9.72878V9.72853V9.72828V9.72803V9.72778V9.72752V9.72727V9.72702V9.72676V9.7265V9.72625V9.72599V9.72573V9.72547V9.72521V9.72494V9.72468V9.72442V9.72415V9.72388V9.72362V9.72335V9.72308V7.07692ZM5.17308 5.73731V5.92308C5.17308 6.12842 5.08187 6.36519 4.91025 6.64137C4.74 6.91537 4.51057 7.19772 4.26768 7.49598L4.26172 7.50331C4.02561 7.79325 3.77687 8.09869 3.58814 8.40243C3.39917 8.70653 3.25 9.03995 3.25 9.38462V14C3.25 14.5629 3.70631 15.0192 4.26923 15.0192H8.11538H8.12629L8.13716 15.0183C8.66711 14.9719 9.08733 14.5517 9.13367 14.0218L9.13462 14.0109V14V9.38462C9.13462 9.05373 8.98387 8.72331 8.79687 8.42037C8.60881 8.11571 8.36084 7.80328 8.12448 7.50546L8.1189 7.49843C7.87617 7.19259 7.64579 6.90177 7.47475 6.62469C7.30118 6.3435 7.21154 6.11142 7.21154 5.92308V5.73731C7.43771 5.64026 7.59615 5.41554 7.59615 5.15385C7.59615 4.89216 7.43771 4.66743 7.21154 4.57038V4.38462C7.21154 4.03416 6.92738 3.75 6.57692 3.75H5.80769C5.45724 3.75 5.17308 4.03416 5.17308 4.38462V4.57038C4.9469 4.66743 4.78846 4.89216 4.78846 5.15385C4.78846 5.41554 4.9469 5.64026 5.17308 5.73731ZM12.4808 9.76923C12.4808 10.056 12.2483 10.2885 11.9615 10.2885C11.6748 10.2885 11.4423 10.056 11.4423 9.76923V8.09615H12.4808V9.76923ZM6.19231 12.9808C5.2683 12.9808 4.51923 12.2317 4.51923 11.3077C4.51923 10.3837 5.2683 9.63462 6.19231 9.63462C7.11631 9.63462 7.86538 10.3837 7.86538 11.3077C7.86538 12.2317 7.11631 12.9808 6.19231 12.9808Z" fill="#4F5A7D" stroke="white" stroke-width="0.5"/>
</svg>
