<svg width="17" height="20" viewBox="0 0 17 20" fill="none" xmlns="http://www.w3.org/2000/svg">
<path d="M13.15 8.43078L13.1425 8.46063L12.3425 11.6606L12.2952 11.85H12.1L10.9005 11.85C10.9004 11.85 10.9003 11.85 10.9002 11.85H10.9V11.6L13.15 8.43078ZM13.15 8.43078V8.4M13.15 8.43078V8.4M13.15 8.4H12.9H13.15ZM6.4852 7.10614L6.48524 7.12303L6.48755 7.13976L7.04982 11.2158C7.04967 11.3481 7.07491 11.4792 7.12423 11.602L7.35623 11.5088L7.12423 11.602C7.1762 11.7314 7.25382 11.849 7.35243 11.9476C7.45104 12.0462 7.56859 12.1238 7.698 12.1758C7.82652 12.2274 7.96409 12.2526 8.10253 12.25H8.89747C9.03591 12.2526 9.17348 12.2274 9.302 12.1758L9.20884 11.9438L9.302 12.1758C9.43141 12.1238 9.54896 12.0462 9.64757 11.9476C9.74618 11.849 9.8238 11.7314 9.87577 11.602C9.92509 11.4792 9.95033 11.3481 9.95018 11.2158L10.5125 7.13976L10.5148 7.12276V7.1056C10.5148 6.37769 9.92189 6.04521 9.45713 5.89963C9.21541 5.82391 8.97717 5.78695 8.80171 5.76863C8.71336 5.7594 8.63944 5.75476 8.58701 5.75241C8.56076 5.75123 8.53981 5.75063 8.52504 5.75032L8.50759 5.75005L8.50252 5.75001L8.50094 5.75L8.50039 5.75L8.50017 5.75C8.50008 5.75 8.5 5.75 8.5 6C8.5 5.75 8.49992 5.75 8.49983 5.75L8.49961 5.75L8.49906 5.75L8.49748 5.75001L8.49241 5.75005L8.47494 5.75032C8.46015 5.75063 8.43918 5.75123 8.41291 5.75241C8.36042 5.75475 8.28642 5.7594 8.19798 5.76862C8.02235 5.78694 7.78389 5.8239 7.54202 5.89962C7.07711 6.04514 6.48362 6.37774 6.4852 7.10614ZM4.1 8.4H3.85L6.09953 11.85L6.1 11.6V11.85H6.0998C6.32914 11.8504 6.54966 11.7616 6.71482 11.6025C6.88005 11.4433 6.97694 11.2261 6.98504 10.9968L6.98602 10.9692L6.98092 10.9419L6.34572 7.55393L6.30748 7.35H6.1H5.3C4.639 7.35 4.25691 7.57413 4.05 7.85C3.95088 7.98217 3.90119 8.11447 3.87621 8.21437C3.86369 8.26445 3.85717 8.30719 3.85377 8.33899C3.85206 8.35493 3.85112 8.36826 3.8506 8.37853L3.85011 8.39166L3.85002 8.39644L3.85 8.39838L3.85 8.39923L3.85 8.39962C3.85 8.39981 3.85 8.4 4.1 8.4ZM3.94515 9.55097L3.9053 9.35177L3.70216 9.35001C3.32445 9.34674 2.95988 9.48837 2.68344 9.7457C2.43671 9.97056 2.28257 10.2793 2.25111 10.6116L2.25 10.6234V10.6352V12.4V12.65H2.5H3.19435C3.33676 12.662 3.48019 12.6453 3.61608 12.6008C3.75605 12.5549 3.88499 12.4805 3.99477 12.3823C4.10455 12.2841 4.1928 12.1642 4.25393 12.0302C4.31507 11.8962 4.34777 11.751 4.34997 11.6037L4.35037 11.5771L4.34515 11.551L3.94515 9.55097ZM13.2978 9.35001L13.0947 9.35177L13.0549 9.55097L12.6549 11.551L12.6496 11.5771L12.65 11.6037C12.6522 11.751 12.6849 11.8962 12.7461 12.0302C12.8072 12.1642 12.8954 12.2841 13.0052 12.3823C13.115 12.4805 13.244 12.5549 13.3839 12.6008C13.5198 12.6453 13.6632 12.662 13.8056 12.65H14.5H14.75V12.4V10.6352V10.6234L14.7489 10.6116C14.7174 10.2793 14.5633 9.97057 14.3166 9.74572C14.0401 9.48837 13.6756 9.34674 13.2978 9.35001Z" fill="#4F5A7D" stroke="white" stroke-width="0.5"/>
</svg>
