<svg width="17" height="20" viewBox="0 0 17 20" fill="none" xmlns="http://www.w3.org/2000/svg">
<path d="M12.7499 7.56073L12.75 7.56073V7.55556V4.88889V4.78534L12.6768 4.71211L12.5 4.88889C12.6768 4.71211 12.6766 4.71196 12.6765 4.7118L12.6761 4.71147L12.6754 4.71074L12.6737 4.70906L12.6692 4.70478L12.656 4.69267C12.6453 4.68308 12.6307 4.67053 12.6119 4.65548C12.5742 4.62535 12.5198 4.58524 12.446 4.53863C12.2983 4.44535 12.0738 4.32647 11.7521 4.2095C11.1088 3.97558 10.0791 3.75 8.5 3.75C6.92087 3.75 5.89117 3.97558 5.2479 4.2095C4.92622 4.32647 4.70169 4.44535 4.554 4.53863C4.4802 4.58524 4.42575 4.62535 4.3881 4.65548C4.36928 4.67053 4.35467 4.68308 4.34396 4.69267L4.33079 4.70478L4.32632 4.70906L4.3246 4.71074L4.32387 4.71147L4.32354 4.7118C4.32338 4.71196 4.32322 4.71211 4.5 4.88889L4.32322 4.71211L4.25 4.78534V4.88889V7.55556H4.24995L4.25005 7.56073C4.27638 8.83268 4.58826 10.0824 5.16256 11.2175C5.68794 12.4276 5.687 13.8017 5.15972 15.0112L5.13889 15.059V15.1111H5.38889C5.13889 15.1111 5.13889 15.1115 5.13889 15.112L5.13889 15.1129L5.13891 15.1147L5.139 15.1187L5.13938 15.1278C5.13975 15.1343 5.14036 15.1417 5.14133 15.1501C5.14328 15.1668 5.14667 15.1869 5.15243 15.2099C5.16401 15.2563 5.18489 15.3131 5.22156 15.376C5.29561 15.5029 5.42739 15.6433 5.65374 15.7726C6.09889 16.027 6.92883 16.25 8.5 16.25C10.0712 16.25 10.9011 16.027 11.3463 15.7726C11.5726 15.6433 11.7044 15.5029 11.7784 15.376C11.8151 15.3131 11.836 15.2563 11.8476 15.2099C11.8533 15.1869 11.8567 15.1668 11.8587 15.1501C11.8596 15.1417 11.8603 15.1343 11.8606 15.1278L11.861 15.1187L11.8611 15.1147L11.8611 15.1129L11.8611 15.112C11.8611 15.1115 11.8611 15.1111 11.6111 15.1111H11.8611V15.059L11.8403 15.0112C11.313 13.8017 11.3121 12.4276 11.8374 11.2175C12.4117 10.0824 12.7236 8.83268 12.7499 7.56073ZM8.51097 14.8614L8.5 14.8609L8.48903 14.8614C7.88935 14.8877 7.28932 14.8281 6.70723 14.6849C6.83105 14.1784 6.90103 13.6602 6.91596 13.1389H10.084C10.099 13.6602 10.1689 14.1784 10.2928 14.6849C9.71067 14.8281 9.11065 14.8877 8.51097 14.8614ZM8.5063 7.30563L8.50631 7.30532L8.4937 7.30563C7.52772 7.32998 6.56434 7.20195 5.63889 6.92659V5.51816C6.56476 5.24424 7.52807 5.11618 8.49414 5.13882L8.49414 5.13909L8.50586 5.13882C9.47193 5.11618 10.4352 5.24424 11.3611 5.51816V6.92659C10.4357 7.20195 9.47228 7.32998 8.5063 7.30563Z" fill="#4F5A7D" stroke="white" stroke-width="0.5"/>
</svg>
