<svg width="17" height="20" viewBox="0 0 17 20" fill="none" xmlns="http://www.w3.org/2000/svg">
<path d="M3.5 5.10234H4.72662V6.30701H3.5C3.41065 6.30701 3.32809 6.3547 3.28344 6.4321C3.2388 6.50951 3.23886 6.60485 3.2836 6.68219C3.62119 7.26579 4.25281 7.65935 4.97662 7.65935C5.64755 7.65935 6.23924 7.32121 6.591 6.80701H12.6477C13.2565 6.80701 13.75 6.31347 13.75 5.70468C13.75 5.09588 13.2565 4.60234 12.6477 4.60234H6.591C6.23924 4.08814 5.64755 3.75 4.97662 3.75C4.25281 3.75 3.62119 4.14356 3.2836 4.72716C3.23886 4.8045 3.2388 4.89985 3.28344 4.97725C3.32809 5.05465 3.41065 5.10234 3.5 5.10234ZM6.50513 14.6542V14.4781H11.1192V14.6542C11.1192 15.0276 11.4219 15.3304 11.7953 15.3304H13.0738C13.4472 15.3304 13.75 15.0276 13.75 14.6542V11.4214C13.75 11.242 13.6787 11.0701 13.5521 10.9433L13.552 10.9433L12.8462 10.2375L11.7077 8.34003C11.5855 8.13628 11.3653 8.01169 11.1279 8.01169H6.49642C6.2589 8.01169 6.03881 8.13631 5.91661 8.33997L4.77809 10.2375L4.07233 10.9433C3.94553 11.0701 3.87429 11.2421 3.87429 11.4214V14.6542C3.87429 15.0276 4.17701 15.3304 4.55045 15.3304H5.82896C6.20241 15.3304 6.50513 15.0276 6.50513 14.6542ZM5.23335 11.9774L5.23344 11.9774L6.78435 12.2875C6.82691 12.2961 6.85747 12.3334 6.85747 12.3767V12.6938C6.85747 12.697 6.85492 12.6995 6.85177 12.6995H5.23232C5.22917 12.6995 5.22662 12.697 5.22662 12.6938V11.9829C5.22662 11.9812 5.22692 11.9807 5.22698 11.9806C5.22719 11.9801 5.22771 11.9793 5.2287 11.9785C5.22968 11.9777 5.23056 11.9774 5.231 11.9773L5.23102 11.9772C5.23119 11.9772 5.23175 11.977 5.23335 11.9774ZM10.7713 12.3013L10.7714 12.3013L12.2889 11.9978C12.3452 11.9865 12.3977 12.0295 12.3977 12.0869V12.6938C12.3977 12.697 12.3951 12.6995 12.392 12.6995H10.7725C10.7694 12.6995 10.7668 12.697 10.7668 12.6938V12.3068C10.7668 12.3041 10.7687 12.3018 10.7713 12.3013ZM10.745 9.36403L11.4678 10.5687H6.15648L6.87926 9.36403H10.745Z" fill="#4F5A7D" stroke="white" stroke-width="0.5" stroke-linejoin="round"/>
</svg>
