<svg width="17" height="20" viewBox="0 0 17 20" fill="none" xmlns="http://www.w3.org/2000/svg">
<path d="M12.411 5.33993L12.4159 5.34973L13.411 7.33998L14.5223 8.37239L12.411 5.33993ZM12.411 5.33993L12.4053 5.33059M12.411 5.33993L12.4053 5.33059M12.4053 5.33059C12.2956 5.15222 12.1418 5.0051 11.9588 4.90342C11.7759 4.80184 11.5701 4.74901 11.3609 4.75M12.4053 5.33059L11.3615 5M4.58899 5.33993L4.59473 5.33059C4.70441 5.15222 4.85818 5.0051 5.04122 4.90342C5.22405 4.80184 5.42994 4.74901 5.63908 4.75M4.58899 5.33993L11.3615 5M4.58899 5.33993L4.58409 5.34973M4.58899 5.33993L4.58409 5.34973M5.63908 4.75C5.63932 4.75 5.63955 4.75 5.63979 4.75L5.63846 5V4.75H5.63908ZM5.63908 4.75H11.3609M11.3609 4.75C11.3607 4.75 11.3604 4.75 11.3602 4.75L11.3615 5M11.3609 4.75H11.3615V5M4.58409 5.34973L3.58896 7.33998M4.58409 5.34973L3.58896 7.33998M3.58896 7.33998L2.47769 8.37239C2.47768 8.3724 2.47767 8.37241 2.47765 8.37242L2.47753 8.37253L2.64769 8.55569M3.58896 7.33998L2.25 8.89446H2.5M2.64769 8.55569C2.60106 8.59894 2.56387 8.65135 2.53846 8.70965C2.51304 8.76794 2.49995 8.83086 2.5 8.89446M2.64769 8.55569L3.79231 7.49231L2.64769 8.55569ZM2.5 8.89446L2.25 8.89466M2.5 8.89446V12.8462C2.5 12.9686 2.54863 13.086 2.63518 13.1725C2.72174 13.2591 2.83913 13.3077 2.96154 13.3077H4.80769C4.99231 13.3077 5.26923 13.1231 5.26923 12.9385L2.25 8.89466M2.25 8.89466L2.25 12.8462C2.25 13.0349 2.32497 13.2158 2.4584 13.3493C2.59185 13.4827 2.77283 13.5577 2.96154 13.5577H4.80769C4.97008 13.5577 5.13694 13.4829 5.25769 13.3923C5.37137 13.3071 5.51923 13.1499 5.51923 12.9385V12.6346M2.25 8.89466L5.51923 12.6346M5.51923 12.6346H11.4808V12.8462C11.4808 13.0085 11.5556 13.1754 11.6462 13.2962C11.7314 13.4098 11.8885 13.5577 12.1 13.5577H14.0385C14.2272 13.5577 14.4082 13.4827 14.5416 13.3493C14.675 13.2158 14.75 13.0349 14.75 12.8462V8.89466V8.89446H14.5L5.51923 12.6346ZM3.89787 8.92948L3.91263 8.9344L3.92789 8.93745L5.77405 9.30668L5.79832 9.31154H5.81315C5.81483 9.31245 5.81711 9.31379 5.81998 9.3157C5.83472 9.32553 5.85534 9.3443 5.87692 9.37308C5.89811 9.40133 5.91577 9.43332 5.92758 9.46369C5.9399 9.49538 5.94231 9.51602 5.94231 9.52308V10.1593C5.94139 10.161 5.94005 10.1633 5.93814 10.1661C5.92831 10.1809 5.90955 10.2015 5.88077 10.2231C5.85252 10.2443 5.82053 10.2619 5.79016 10.2737C5.75846 10.2861 5.73782 10.2885 5.73077 10.2885H3.80224C3.80055 10.2875 3.79828 10.2862 3.79541 10.2843C3.78066 10.2745 3.76004 10.2557 3.73846 10.2269C3.71727 10.1987 3.69962 10.1667 3.68781 10.1363C3.67548 10.1046 3.67308 10.084 3.67308 10.0769V9.1049C3.70802 9.01466 3.74858 8.9626 3.78077 8.93846C3.79669 8.92652 3.81036 8.92134 3.82362 8.91935C3.83727 8.9173 3.86082 8.91713 3.89787 8.92948ZM11.18 9.3157C11.1829 9.31379 11.1852 9.31245 11.1869 9.31154H11.2017L11.226 9.30668L13.0721 8.93745L13.0874 8.9344L13.1021 8.92948C13.1392 8.91713 13.1627 8.9173 13.1764 8.91935C13.1896 8.92134 13.2033 8.92652 13.2192 8.93846C13.2514 8.9626 13.292 9.01466 13.3269 9.1049V10.0769C13.3269 10.084 13.3245 10.1046 13.3122 10.1363C13.3004 10.1667 13.2827 10.1987 13.2615 10.2269C13.24 10.2557 13.2193 10.2745 13.2046 10.2843C13.2017 10.2862 13.1995 10.2875 13.1978 10.2885H11.2692C11.2622 10.2885 11.2415 10.2861 11.2098 10.2737C11.1795 10.2619 11.1475 10.2443 11.1192 10.2231C11.0905 10.2015 11.0717 10.1809 11.0619 10.1661C11.0599 10.1633 11.0586 10.161 11.0577 10.1593V9.52308C11.0577 9.51602 11.0601 9.49538 11.0724 9.46369C11.0842 9.43332 11.1019 9.40133 11.1231 9.37308C11.1447 9.3443 11.1653 9.32553 11.18 9.3157ZM5.2122 7.51923L5.88528 6.17308H11.1147L11.7878 7.51923H5.2122Z" fill="#4F5A7D" stroke="white" stroke-width="0.5"/>
</svg>
