<svg width="17" height="20" viewBox="0 0 17 20" fill="none" xmlns="http://www.w3.org/2000/svg">
<path d="M9.18514 9.50358L9.15545 9.4442L9.10021 9.40737L6.33098 7.56122L6.19231 7.46877L6.05363 7.56122L3.2844 9.40737L3.22916 9.4442L3.19947 9.50358L2.27639 11.3497L2.25 11.4025V11.4615V15.1538V15.4038H2.5H4.34615H4.59615V15.1538V13.5577H7.78846V15.1538V15.4038H8.03846H9.88462H10.1346V15.1538V11.4615V11.4025L10.1082 11.3497L9.18514 9.50358ZM14.5 15.4038H14.75V15.1538V6.38462C14.75 5.95111 14.5778 5.53533 14.2713 5.22877C13.9647 4.92222 13.5489 4.75 13.1154 4.75C12.6819 4.75 12.2661 4.92222 11.9595 5.22877C11.6529 5.53533 11.4808 5.95111 11.4808 6.38462V15.1538V15.4038H11.7308H14.5ZM5.51923 11.2115V9.86538H6.86538V11.2115H5.51923Z" fill="#4F5A7D" stroke="white" stroke-width="0.5"/>
</svg>
