<svg width="17" height="20" viewBox="0 0 17 20" fill="none" xmlns="http://www.w3.org/2000/svg">
<path d="M8.74664 4.07278C8.53573 3.9366 8.25436 3.99705 8.11818 4.20796L6.74983 6.69587L8.74664 4.07278ZM8.74664 4.07278C8.80073 4.10778 8.84682 4.15378 8.88182 4.20796L8.74664 4.07278ZM13.75 10.3898V10.1377L13.4979 10.1398C11.7207 10.1548 10.1106 11.0903 9.20455 12.5586V9.73069H11.2273C12.1184 9.73069 12.8409 9.00821 12.8409 8.11705V5.38978C12.8409 5.16803 12.7365 4.9592 12.5591 4.82615C12.2481 4.5929 11.8072 4.65567 11.5735 4.96599C11.5733 4.96634 11.573 4.96669 11.5727 4.96704L10.4162 6.4789L9.10087 4.08748L9.09661 4.07974L9.09181 4.07231C9.0375 3.98823 8.96606 3.91699 8.88245 3.86289L8.88225 3.86276C8.55545 3.65174 8.1193 3.74535 7.90816 4.07235L7.90338 4.07976L7.89913 4.08748L6.58385 6.4789L5.42649 4.96601C5.29341 4.78922 5.08496 4.68523 4.86364 4.68523C4.47457 4.68523 4.15909 5.00071 4.15909 5.38978V8.11705C4.15909 9.00821 4.88157 9.73069 5.77273 9.73069H7.79545V12.5586C6.88944 11.0903 5.27928 10.1548 3.50211 10.1398L3.25 10.1377V10.3898C3.25 13.5073 5.32499 16.0943 8.5 16.0943C11.675 16.0943 13.75 13.5073 13.75 10.3898Z" fill="#4F5A7D" stroke="white" stroke-width="0.5"/>
</svg>
