<svg width="17" height="20" viewBox="0 0 17 20" fill="none" xmlns="http://www.w3.org/2000/svg">
<path d="M14.6423 6.00555L15.0695 5.70983L14.5718 5.56054L14.5 5.8C14.5718 5.56054 14.5717 5.56052 14.5717 5.56049L14.5714 5.56042L14.5709 5.56026L14.5693 5.5598L14.5645 5.55839L14.548 5.55376C14.534 5.54992 14.5142 5.54465 14.489 5.53841C14.4386 5.52594 14.3665 5.50955 14.2768 5.49293C14.0977 5.45976 13.8462 5.42534 13.5545 5.42004C12.9756 5.40952 12.2148 5.51355 11.5546 5.99661L8.26353 8.29271C7.65232 7.85511 6.81077 7.37322 5.95 7.06222V6.6C5.95 5.58193 5.11807 4.75 4.1 4.75C3.08193 4.75 2.25 5.58193 2.25 6.6V7.8C2.25 7.94375 2.28665 8.06818 2.35449 8.16992C2.42128 8.27011 2.50854 8.33378 2.5882 8.37361C2.66688 8.41295 2.74253 8.43137 2.7964 8.44035C2.82393 8.44494 2.84742 8.44733 2.865 8.44858C2.87384 8.44921 2.8813 8.44957 2.88718 8.44976L2.89482 8.44996L2.89773 8.44999L2.89894 8.45L2.89949 8.45L2.89975 8.45C2.89988 8.45 2.9 8.45 2.9 8.2V8.45H4.1H4.5C5.23853 8.45 5.89353 8.72766 6.37138 9.01437C6.6046 9.15431 6.79201 9.29425 6.92185 9.4C6.79201 9.50575 6.6046 9.64569 6.37138 9.78563C5.89353 10.0723 5.23853 10.35 4.5 10.35H4.1H2.9V10.6C2.9 10.35 2.89988 10.35 2.89975 10.35L2.89949 10.35L2.89894 10.35L2.89773 10.35L2.89482 10.35L2.88718 10.3502C2.8813 10.3504 2.87384 10.3508 2.865 10.3514C2.84742 10.3527 2.82393 10.3551 2.7964 10.3597C2.74253 10.3686 2.66688 10.3871 2.5882 10.4264C2.50854 10.4662 2.42128 10.5299 2.35449 10.6301C2.28665 10.7318 2.25 10.8563 2.25 11V12.2C2.25 13.2181 3.08193 14.05 4.1 14.05C5.11807 14.05 5.95 13.2181 5.95 12.2V11.7378C6.81077 11.4268 7.65232 10.9449 8.26353 10.5073L11.5546 12.8034C12.2148 13.2864 12.9756 13.3905 13.5545 13.38C13.8462 13.3747 14.0977 13.3402 14.2768 13.3071C14.3665 13.2905 14.4386 13.2741 14.489 13.2616C14.5142 13.2553 14.534 13.2501 14.548 13.2462L14.5645 13.2416L14.5693 13.2402L14.5709 13.2397L14.5714 13.2396L14.5717 13.2395C14.5717 13.2395 14.5718 13.2395 14.5 13L14.5718 13.2395L15.0695 13.0902L14.6423 12.7945L9.7392 9.4L14.6423 6.00555ZM4.65 7.15H4.1H3.55V6.6C3.55 6.41681 3.60997 6.28358 3.69678 6.19678C3.78358 6.10997 3.91681 6.05 4.1 6.05C4.28319 6.05 4.41642 6.10997 4.50322 6.19678C4.59003 6.28358 4.65 6.41681 4.65 6.6V7.15ZM4.65 12.2C4.65 12.3832 4.59003 12.5164 4.50322 12.6032C4.41642 12.69 4.28319 12.75 4.1 12.75C3.91681 12.75 3.78358 12.69 3.69678 12.6032C3.60997 12.5164 3.55 12.3832 3.55 12.2V11.65H4.1H4.65V12.2ZM8.3 9.55C8.21719 9.55 8.15 9.48281 8.15 9.4C8.15 9.31719 8.21719 9.25 8.3 9.25C8.38281 9.25 8.45 9.31719 8.45 9.4C8.45 9.48281 8.38281 9.55 8.3 9.55Z" fill="#4F5A7D" stroke="white" stroke-width="0.5"/>
</svg>
