<svg width="17" height="20" viewBox="0 0 17 20" fill="none" xmlns="http://www.w3.org/2000/svg">
<mask id="path-1-outside-1_3631_2756" maskUnits="userSpaceOnUse" x="1.5" y="3" width="14" height="14" fill="black">
<rect fill="white" x="1.5" y="3" width="14" height="14"/>
<path d="M3.42304 15.7696C3.42304 15.897 3.52638 16.0004 3.65385 16.0004H7.11517V13.2306H9.88495V16.0004H13.3463C13.4737 16.0004 13.5771 15.897 13.5771 15.7696V10.4616H3.42304V15.7696ZM14.4376 9.14977L13.5772 8.39371V4.92326C13.5772 4.41336 13.1638 4 12.6539 4C12.144 4 11.7306 4.41336 11.7306 4.92326V6.76979L8.66791 4.08309C8.58066 3.99049 8.43493 3.98595 8.34209 4.07294L8.33193 4.08309L2.56237 9.12688C2.47522 9.2199 2.47998 9.36597 2.57301 9.45313C2.61498 9.49245 2.67013 9.51468 2.72764 9.51548L4.3463 9.53856H14.2684C14.3959 9.53898 14.4996 9.43598 14.5 9.30851C14.5002 9.2496 14.4779 9.19275 14.4376 9.14977Z"/>
</mask>
<path d="M3.42304 15.7696C3.42304 15.897 3.52638 16.0004 3.65385 16.0004H7.11517V13.2306H9.88495V16.0004H13.3463C13.4737 16.0004 13.5771 15.897 13.5771 15.7696V10.4616H3.42304V15.7696ZM14.4376 9.14977L13.5772 8.39371V4.92326C13.5772 4.41336 13.1638 4 12.6539 4C12.144 4 11.7306 4.41336 11.7306 4.92326V6.76979L8.66791 4.08309C8.58066 3.99049 8.43493 3.98595 8.34209 4.07294L8.33193 4.08309L2.56237 9.12688C2.47522 9.2199 2.47998 9.36597 2.57301 9.45313C2.61498 9.49245 2.67013 9.51468 2.72764 9.51548L4.3463 9.53856H14.2684C14.3959 9.53898 14.4996 9.43598 14.5 9.30851C14.5002 9.2496 14.4779 9.19275 14.4376 9.14977Z" fill="#4F5A7D"/>
<path d="M7.11517 16.0004V16.5004H7.61517V16.0004H7.11517ZM7.11517 13.2306V12.7306H6.61517V13.2306H7.11517ZM9.88495 13.2306H10.385V12.7306H9.88495V13.2306ZM9.88495 16.0004H9.38495V16.5004H9.88495V16.0004ZM13.5771 10.4616H14.0771V9.96164H13.5771V10.4616ZM3.42304 10.4616V9.96164H2.92304V10.4616H3.42304ZM14.4376 9.14977L14.8023 8.80776L14.7858 8.79013L14.7676 8.77418L14.4376 9.14977ZM13.5772 8.39371H13.0772V8.61996L13.2471 8.7693L13.5772 8.39371ZM11.7306 6.76979L11.4009 7.14566L12.2306 7.87351V6.76979H11.7306ZM8.66791 4.08309L8.30399 4.42597L8.3203 4.44328L8.33818 4.45897L8.66791 4.08309ZM8.34209 4.07294L8.00022 3.70807L7.99429 3.71363L7.98854 3.71938L8.34209 4.07294ZM8.33193 4.08309L8.66102 4.45953L8.67363 4.4485L8.68548 4.43665L8.33193 4.08309ZM2.56237 9.12688L2.23329 8.75044L2.21453 8.76684L2.19749 8.78503L2.56237 9.12688ZM2.57301 9.45313L2.23116 9.81801L2.23116 9.81801L2.57301 9.45313ZM2.72764 9.51548L2.73477 9.01553L2.73454 9.01552L2.72764 9.51548ZM4.3463 9.53856L4.33917 10.0386H4.3463V9.53856ZM14.2684 9.53856L14.2701 9.03856H14.2684V9.53856ZM14.5 9.30851L15 9.31017V9.31015L14.5 9.30851ZM2.92304 15.7696C2.92304 16.1732 3.25024 16.5004 3.65385 16.5004V15.5004C3.80252 15.5004 3.92304 15.6209 3.92304 15.7696H2.92304ZM3.65385 16.5004H7.11517V15.5004H3.65385V16.5004ZM7.61517 16.0004V13.2306H6.61517V16.0004H7.61517ZM7.11517 13.7306H9.88495V12.7306H7.11517V13.7306ZM9.38495 13.2306V16.0004H10.385V13.2306H9.38495ZM9.88495 16.5004H13.3463V15.5004H9.88495V16.5004ZM13.3463 16.5004C13.7499 16.5004 14.0771 16.1732 14.0771 15.7696H13.0771C13.0771 15.6209 13.1976 15.5004 13.3463 15.5004V16.5004ZM14.0771 15.7696V10.4616H13.0771V15.7696H14.0771ZM13.5771 9.96164H3.42304V10.9616H13.5771V9.96164ZM2.92304 10.4616V15.7696H3.92304V10.4616H2.92304ZM14.7676 8.77418L13.9072 8.01812L13.2471 8.7693L14.1075 9.52536L14.7676 8.77418ZM14.0772 8.39371V4.92326H13.0772V8.39371H14.0772ZM14.0772 4.92326C14.0772 4.13722 13.44 3.5 12.6539 3.5V4.5C12.8877 4.5 13.0772 4.6895 13.0772 4.92326H14.0772ZM12.6539 3.5C11.8679 3.5 11.2306 4.13722 11.2306 4.92326H12.2306C12.2306 4.6895 12.4201 4.5 12.6539 4.5V3.5ZM11.2306 4.92326V6.76979H12.2306V4.92326H11.2306ZM12.0604 6.39391L8.99763 3.70722L8.33818 4.45897L11.4009 7.14566L12.0604 6.39391ZM9.03183 3.74022C8.75559 3.44703 8.29419 3.43264 8.00022 3.70807L8.68395 4.43781C8.57567 4.53926 8.40573 4.53395 8.30399 4.42597L9.03183 3.74022ZM7.98854 3.71938L7.97838 3.72954L8.68548 4.43665L8.69564 4.42649L7.98854 3.71938ZM8.00285 3.70666L2.23329 8.75044L2.89146 9.50331L8.66102 4.45953L8.00285 3.70666ZM2.19749 8.78503C1.92153 9.07958 1.93662 9.54207 2.23116 9.81801L2.91486 9.08825C3.02334 9.18988 3.02891 9.36022 2.92726 9.46873L2.19749 8.78503ZM2.23116 9.81801C2.36408 9.94254 2.53869 10.0129 2.72074 10.0154L2.73454 9.01552C2.80157 9.01645 2.86588 9.04236 2.91486 9.08825L2.23116 9.81801ZM2.72051 10.0154L4.33917 10.0385L4.35343 9.03861L2.73477 9.01553L2.72051 10.0154ZM4.3463 10.0386H14.2684V9.03856H4.3463V10.0386ZM14.2668 10.0386C14.6704 10.0399 14.9987 9.71378 15 9.31017L14 9.30684C14.0005 9.15819 14.1214 9.03807 14.2701 9.03856L14.2668 10.0386ZM15 9.31015C15.0006 9.12386 14.93 8.944 14.8023 8.80776L14.0728 9.49178C14.0257 9.4415 13.9998 9.37533 14 9.30686L15 9.31015Z" fill="white" mask="url(#path-1-outside-1_3631_2756)"/>
</svg>
