<svg width="17" height="20" viewBox="0 0 17 20" fill="none" xmlns="http://www.w3.org/2000/svg">
<mask id="path-1-outside-1_3631_2784" maskUnits="userSpaceOnUse" x="1.5" y="3" width="14" height="14" fill="black">
<rect fill="white" x="1.5" y="3" width="14" height="14"/>
<path d="M7.30318 4.80053C7.30318 4.6422 7.35013 4.48743 7.4381 4.35578C7.52606 4.22413 7.65109 4.12153 7.79736 4.06094C7.94364 4.00035 8.1046 3.98449 8.25989 4.01538C8.41518 4.04627 8.55782 4.12251 8.66977 4.23447C8.78173 4.34643 8.85797 4.48907 8.88886 4.64436C8.91975 4.79964 8.9039 4.9606 8.84331 5.10688C8.78272 5.25316 8.68011 5.37818 8.54846 5.46615C8.41682 5.55411 8.26204 5.60106 8.10371 5.60106C7.8914 5.60106 7.68778 5.51672 7.53765 5.36659C7.38753 5.21646 7.30318 5.01284 7.30318 4.80053ZM8.90424 6.80186C8.90517 6.78639 8.90517 6.77089 8.90424 6.75543C8.89807 6.65544 8.85243 6.56199 8.77737 6.49564C8.70231 6.42929 8.60397 6.39546 8.50398 6.40159H7.70345C7.68799 6.40066 7.67248 6.40066 7.65702 6.40159C7.55703 6.40777 7.46358 6.45341 7.39723 6.52847C7.33088 6.60353 7.29705 6.70186 7.30318 6.80186V9.60371H8.90424V6.80186ZM14.3879 9.71899L12.7468 7.84255L12.8148 7.43508C12.8181 7.41843 12.8202 7.40158 12.8212 7.38464C12.8212 7.33157 12.8002 7.28066 12.7626 7.24313C12.7251 7.2056 12.6742 7.18451 12.6211 7.18451C12.5759 7.18886 12.5325 7.20426 12.4946 7.22934L9.70477 9.60371H8.90424L9.70477 10.4042V11.605C9.70477 11.7112 9.6626 11.813 9.58754 11.8881C9.51248 11.9631 9.41067 12.0053 9.30451 12.0053C9.19835 12.0053 9.09654 11.9631 9.02148 11.8881C8.94641 11.813 8.90424 11.7112 8.90424 11.605V10.8045L7.30318 9.60371H5.70212C5.50563 9.60377 5.31215 9.65204 5.13866 9.7443C4.96517 9.83656 4.81697 9.96998 4.70706 10.1329C4.60259 9.97377 4.46099 9.84246 4.29448 9.75028C4.12796 9.6581 3.94152 9.60779 3.75123 9.60371H3.7008C3.54831 9.59826 3.39625 9.62294 3.25332 9.67635C3.1104 9.72975 2.97941 9.81083 2.86786 9.91494C2.75632 10.019 2.66641 10.1441 2.60328 10.2831C2.54016 10.422 2.50506 10.572 2.5 10.7245L2.5 10.7933C2.50938 11.3349 2.66392 11.864 2.9475 12.3255C2.96637 12.3484 2.98961 12.3672 3.01587 12.381C3.04213 12.3947 3.07087 12.4031 3.1004 12.4056C3.15348 12.4056 3.20438 12.3845 3.24191 12.347C3.27945 12.3094 3.30053 12.2585 3.30053 12.2054V11.2048C3.30053 11.2048 3.28452 10.4651 3.90333 10.4042C4.3036 10.3658 4.50133 10.6068 4.50133 10.8045V12.8058L4.10106 14.4069V15.8078C4.10106 15.8609 4.12215 15.9118 4.15968 15.9493C4.19721 15.9869 4.24812 16.008 4.30119 16.008C4.3519 16.0073 4.40055 15.9877 4.43757 15.9531C4.4746 15.9184 4.49734 15.8712 4.50133 15.8206V14.4069L5.70212 12.8058V13.6064L6.10239 15.8479C6.11232 15.8928 6.13719 15.9332 6.17295 15.9622C6.2087 15.9913 6.25324 16.0074 6.29932 16.008C6.3256 16.0084 6.35171 16.0036 6.37615 15.994C6.4006 15.9843 6.4229 15.9699 6.44178 15.9516C6.46066 15.9333 6.47576 15.9115 6.4862 15.8874C6.49664 15.8633 6.50224 15.8373 6.50265 15.811L6.38658 13.8465L6.90292 12.8058H8.90424V13.6064L9.31091 15.8583C9.32291 15.9007 9.34821 15.9381 9.38309 15.9651C9.41796 15.992 9.46058 16.007 9.50464 16.008C9.55772 16.008 9.60863 15.9869 9.64616 15.9493C9.68369 15.9118 9.70477 15.8609 9.70477 15.8078V13.6064L9.99857 12.8058C10.1966 12.7034 10.351 12.5328 10.4333 12.3255L12.1632 9.30992C12.2413 9.45009 12.3657 9.55871 12.5152 9.61714C12.6646 9.67557 12.8297 9.68016 12.9821 9.63013L13.8355 10.285C13.9147 10.3505 14.013 10.3884 14.1157 10.393C14.2064 10.3923 14.2941 10.3599 14.3635 10.3014C14.4329 10.2429 14.4797 10.1621 14.4959 10.0728C14.5046 10.0095 14.4994 9.94514 14.4807 9.88405C14.4621 9.82297 14.4304 9.76665 14.3879 9.71899Z"/>
</mask>
<path d="M7.30318 4.80053C7.30318 4.6422 7.35013 4.48743 7.4381 4.35578C7.52606 4.22413 7.65109 4.12153 7.79736 4.06094C7.94364 4.00035 8.1046 3.98449 8.25989 4.01538C8.41518 4.04627 8.55782 4.12251 8.66977 4.23447C8.78173 4.34643 8.85797 4.48907 8.88886 4.64436C8.91975 4.79964 8.9039 4.9606 8.84331 5.10688C8.78272 5.25316 8.68011 5.37818 8.54846 5.46615C8.41682 5.55411 8.26204 5.60106 8.10371 5.60106C7.8914 5.60106 7.68778 5.51672 7.53765 5.36659C7.38753 5.21646 7.30318 5.01284 7.30318 4.80053ZM8.90424 6.80186C8.90517 6.78639 8.90517 6.77089 8.90424 6.75543C8.89807 6.65544 8.85243 6.56199 8.77737 6.49564C8.70231 6.42929 8.60397 6.39546 8.50398 6.40159H7.70345C7.68799 6.40066 7.67248 6.40066 7.65702 6.40159C7.55703 6.40777 7.46358 6.45341 7.39723 6.52847C7.33088 6.60353 7.29705 6.70186 7.30318 6.80186V9.60371H8.90424V6.80186ZM14.3879 9.71899L12.7468 7.84255L12.8148 7.43508C12.8181 7.41843 12.8202 7.40158 12.8212 7.38464C12.8212 7.33157 12.8002 7.28066 12.7626 7.24313C12.7251 7.2056 12.6742 7.18451 12.6211 7.18451C12.5759 7.18886 12.5325 7.20426 12.4946 7.22934L9.70477 9.60371H8.90424L9.70477 10.4042V11.605C9.70477 11.7112 9.6626 11.813 9.58754 11.8881C9.51248 11.9631 9.41067 12.0053 9.30451 12.0053C9.19835 12.0053 9.09654 11.9631 9.02148 11.8881C8.94641 11.813 8.90424 11.7112 8.90424 11.605V10.8045L7.30318 9.60371H5.70212C5.50563 9.60377 5.31215 9.65204 5.13866 9.7443C4.96517 9.83656 4.81697 9.96998 4.70706 10.1329C4.60259 9.97377 4.46099 9.84246 4.29448 9.75028C4.12796 9.6581 3.94152 9.60779 3.75123 9.60371H3.7008C3.54831 9.59826 3.39625 9.62294 3.25332 9.67635C3.1104 9.72975 2.97941 9.81083 2.86786 9.91494C2.75632 10.019 2.66641 10.1441 2.60328 10.2831C2.54016 10.422 2.50506 10.572 2.5 10.7245L2.5 10.7933C2.50938 11.3349 2.66392 11.864 2.9475 12.3255C2.96637 12.3484 2.98961 12.3672 3.01587 12.381C3.04213 12.3947 3.07087 12.4031 3.1004 12.4056C3.15348 12.4056 3.20438 12.3845 3.24191 12.347C3.27945 12.3094 3.30053 12.2585 3.30053 12.2054V11.2048C3.30053 11.2048 3.28452 10.4651 3.90333 10.4042C4.3036 10.3658 4.50133 10.6068 4.50133 10.8045V12.8058L4.10106 14.4069V15.8078C4.10106 15.8609 4.12215 15.9118 4.15968 15.9493C4.19721 15.9869 4.24812 16.008 4.30119 16.008C4.3519 16.0073 4.40055 15.9877 4.43757 15.9531C4.4746 15.9184 4.49734 15.8712 4.50133 15.8206V14.4069L5.70212 12.8058V13.6064L6.10239 15.8479C6.11232 15.8928 6.13719 15.9332 6.17295 15.9622C6.2087 15.9913 6.25324 16.0074 6.29932 16.008C6.3256 16.0084 6.35171 16.0036 6.37615 15.994C6.4006 15.9843 6.4229 15.9699 6.44178 15.9516C6.46066 15.9333 6.47576 15.9115 6.4862 15.8874C6.49664 15.8633 6.50224 15.8373 6.50265 15.811L6.38658 13.8465L6.90292 12.8058H8.90424V13.6064L9.31091 15.8583C9.32291 15.9007 9.34821 15.9381 9.38309 15.9651C9.41796 15.992 9.46058 16.007 9.50464 16.008C9.55772 16.008 9.60863 15.9869 9.64616 15.9493C9.68369 15.9118 9.70477 15.8609 9.70477 15.8078V13.6064L9.99857 12.8058C10.1966 12.7034 10.351 12.5328 10.4333 12.3255L12.1632 9.30992C12.2413 9.45009 12.3657 9.55871 12.5152 9.61714C12.6646 9.67557 12.8297 9.68016 12.9821 9.63013L13.8355 10.285C13.9147 10.3505 14.013 10.3884 14.1157 10.393C14.2064 10.3923 14.2941 10.3599 14.3635 10.3014C14.4329 10.2429 14.4797 10.1621 14.4959 10.0728C14.5046 10.0095 14.4994 9.94514 14.4807 9.88405C14.4621 9.82297 14.4304 9.76665 14.3879 9.71899Z" fill="#4F5A7D"/>
<path d="M8.10371 5.60106V6.10106V5.60106ZM8.90424 6.80186L8.40514 6.7719L8.40424 6.78686V6.80186H8.90424ZM8.90424 6.75543L9.40335 6.72547L9.40329 6.72458L8.90424 6.75543ZM8.50398 6.40159V6.90159H8.5193L8.53459 6.90065L8.50398 6.40159ZM7.70345 6.40159L7.67349 6.90069L7.68846 6.90159H7.70345V6.40159ZM7.65702 6.40159L7.62706 5.90249L7.62618 5.90254L7.65702 6.40159ZM7.30318 6.80186H7.80318V6.78654L7.80225 6.77124L7.30318 6.80186ZM14.3879 9.71899L14.0115 10.0482L14.0147 10.0518L14.3879 9.71899ZM12.7468 7.84255L12.2536 7.76019L12.2146 7.99359L12.3704 8.17171L12.7468 7.84255ZM12.8148 7.43508L12.3239 7.33924L12.3217 7.35272L12.8148 7.43508ZM12.8212 7.38464L13.3203 7.41454L13.3212 7.39961V7.38464H12.8212ZM12.6211 7.18451V6.68451H12.5971L12.5732 6.68681L12.6211 7.18451ZM12.4946 7.22934L12.2184 6.81256L12.1934 6.82913L12.1706 6.84857L12.4946 7.22934ZM9.70477 9.60371V10.1037H9.88874L10.0288 9.98448L9.70477 9.60371ZM9.70477 10.4042H10.2048V10.1971L10.0583 10.0507L9.70477 10.4042ZM8.90424 10.8045H9.40424V10.5545L9.20424 10.4045L8.90424 10.8045ZM5.70212 9.60371V9.10371H5.70198L5.70212 9.60371ZM4.70706 10.1329L4.28911 10.4073L4.7014 11.0352L5.12153 10.4125L4.70706 10.1329ZM3.75123 9.60371L3.76195 9.10371H3.75123V9.60371ZM3.7008 9.60371L3.68292 10.1034L3.69186 10.1037H3.7008V9.60371ZM2.5 10.7245L2.00028 10.7079L2 10.7162V10.7245H2.5ZM2.5 10.7933H1.99993L2.00007 10.802L2.5 10.7933ZM2.9475 12.3255L2.52149 12.5873L2.53975 12.617L2.56196 12.6439L2.9475 12.3255ZM3.1004 12.4056L3.05839 12.9038L3.07936 12.9056H3.1004V12.4056ZM3.30053 12.2054H3.80053H3.30053ZM3.30053 11.2048H3.80065L3.80041 11.194L3.30053 11.2048ZM3.90333 10.4042L3.85555 9.90653L3.85441 9.90664L3.90333 10.4042ZM4.50133 12.8058L4.9864 12.9271L5.00133 12.8674V12.8058H4.50133ZM4.10106 14.4069L3.61599 14.2856L3.60106 14.3453V14.4069H4.10106ZM4.10106 15.8078H4.60106H4.10106ZM4.30119 16.008V16.508L4.30752 16.5079L4.30119 16.008ZM4.50133 15.8206L4.99978 15.86L5.00133 15.8403V15.8206H4.50133ZM4.50133 14.4069L4.10133 14.1069L4.00133 14.2402V14.4069H4.50133ZM5.70212 12.8058H6.20212V11.3058L5.30212 12.5058L5.70212 12.8058ZM5.70212 13.6064H5.20212V13.6507L5.20991 13.6943L5.70212 13.6064ZM6.10239 15.8479L5.61017 15.9357L5.61196 15.9457L5.61415 15.9557L6.10239 15.8479ZM6.29932 16.008L6.30738 15.508L6.3052 15.508L6.29932 16.008ZM6.50265 15.811L7.00259 15.819L7.00289 15.8002L7.00178 15.7815L6.50265 15.811ZM6.38658 13.8465L5.93868 13.6243L5.87961 13.7434L5.88745 13.876L6.38658 13.8465ZM6.90292 12.8058V12.3058H6.59284L6.45502 12.5836L6.90292 12.8058ZM8.90424 12.8058H9.40424V12.3058H8.90424V12.8058ZM8.90424 13.6064H8.40424V13.6512L8.4122 13.6952L8.90424 13.6064ZM9.31091 15.8583L8.81887 15.9471L8.82318 15.971L8.82979 15.9943L9.31091 15.8583ZM9.50464 16.008L9.49433 16.508H9.50464V16.008ZM9.70477 13.6064L9.23539 13.4341L9.20477 13.5175V13.6064H9.70477ZM9.99857 12.8058L9.76887 12.3617L9.59617 12.451L9.52918 12.6336L9.99857 12.8058ZM10.4333 12.3255L9.99955 12.0767L9.98171 12.1078L9.96849 12.1411L10.4333 12.3255ZM12.1632 9.30992L12.6 9.0666L12.1696 8.29396L11.7295 9.06112L12.1632 9.30992ZM12.9821 9.63013L13.2865 9.23346L13.0771 9.07274L12.8262 9.15506L12.9821 9.63013ZM13.8355 10.285L14.1542 9.89969L14.1472 9.89386L14.1399 9.88829L13.8355 10.285ZM14.1157 10.393L14.0931 10.8925L14.1065 10.8931L14.12 10.893L14.1157 10.393ZM14.4959 10.0728L14.9879 10.1621L14.9899 10.1513L14.9914 10.1404L14.4959 10.0728ZM7.80318 4.80053C7.80318 4.74109 7.82081 4.68299 7.85383 4.63357L7.02236 4.07799C6.87946 4.29187 6.80318 4.54331 6.80318 4.80053H7.80318ZM7.85383 4.63357C7.88685 4.58414 7.93379 4.54562 7.98871 4.52288L7.60602 3.599C7.36838 3.69743 7.16527 3.86412 7.02236 4.07799L7.85383 4.63357ZM7.98871 4.52288C8.04362 4.50013 8.10405 4.49418 8.16234 4.50577L8.35743 3.52499C8.10516 3.47481 7.84366 3.50056 7.60602 3.599L7.98871 4.52288ZM8.16234 4.50577C8.22064 4.51737 8.27419 4.54599 8.31622 4.58802L9.02333 3.88092C8.84145 3.69903 8.60971 3.57517 8.35743 3.52499L8.16234 4.50577ZM8.31622 4.58802C8.35825 4.63005 8.38687 4.6836 8.39847 4.7419L9.37926 4.54681C9.32907 4.29453 9.20521 4.0628 9.02333 3.88092L8.31622 4.58802ZM8.39847 4.7419C8.41007 4.8002 8.40411 4.86062 8.38137 4.91554L9.30525 5.29822C9.40368 5.06058 9.42944 4.79909 9.37926 4.54681L8.39847 4.7419ZM8.38137 4.91554C8.35862 4.97045 8.3201 5.01739 8.27068 5.05041L8.82625 5.88188C9.04012 5.73898 9.20681 5.53586 9.30525 5.29822L8.38137 4.91554ZM8.27068 5.05041C8.22126 5.08344 8.16315 5.10106 8.10371 5.10106V6.10106C8.36093 6.10106 8.61238 6.02479 8.82625 5.88188L8.27068 5.05041ZM8.10371 5.10106C8.02401 5.10106 7.94757 5.0694 7.89121 5.01304L7.1841 5.72014C7.428 5.96404 7.75879 6.10106 8.10371 6.10106V5.10106ZM7.89121 5.01304C7.83485 4.95668 7.80318 4.88024 7.80318 4.80053H6.80318C6.80318 5.14545 6.9402 5.47625 7.1841 5.72014L7.89121 5.01304ZM9.40335 6.83182C9.40547 6.7964 9.40547 6.76089 9.40335 6.72547L8.40514 6.78539C8.40487 6.78089 8.40487 6.77639 8.40514 6.7719L9.40335 6.83182ZM9.40329 6.72458C9.38894 6.49228 9.28291 6.27518 9.10853 6.12103L8.44621 6.87025C8.42195 6.8488 8.40719 6.81859 8.4052 6.78627L9.40329 6.72458ZM9.10853 6.12103C8.93414 5.96687 8.70568 5.88828 8.47337 5.90253L8.53459 6.90065C8.50227 6.90264 8.47048 6.8917 8.44621 6.87025L9.10853 6.12103ZM8.50398 5.90159H7.70345V6.90159H8.50398V5.90159ZM7.73341 5.90249C7.69799 5.90036 7.66248 5.90036 7.62706 5.90249L7.68698 6.90069C7.68249 6.90096 7.67798 6.90096 7.67349 6.90069L7.73341 5.90249ZM7.62618 5.90254C7.39387 5.9169 7.17677 6.02293 7.02262 6.19731L7.77184 6.85962C7.75039 6.88389 7.72018 6.89864 7.68786 6.90064L7.62618 5.90254ZM7.02262 6.19731C6.86846 6.37169 6.78987 6.60016 6.80412 6.83247L7.80225 6.77124C7.80423 6.80357 7.79329 6.83536 7.77184 6.85962L7.02262 6.19731ZM6.80318 6.80186V9.60371H7.80318V6.80186H6.80318ZM7.30318 10.1037H8.90424V9.10371H7.30318V10.1037ZM9.40424 9.60371V6.80186H8.40424V9.60371H9.40424ZM14.7642 9.38983L13.1232 7.51339L12.3704 8.17171L14.0115 10.0482L14.7642 9.38983ZM13.24 7.9249L13.308 7.51743L12.3217 7.35272L12.2536 7.76019L13.24 7.9249ZM13.3056 7.53087C13.3131 7.49246 13.318 7.45359 13.3203 7.41454L12.3221 7.35475C12.3224 7.34956 12.3231 7.34439 12.3241 7.33928L13.3056 7.53087ZM13.3212 7.38464C13.3212 7.19896 13.2475 7.02088 13.1162 6.88958L12.4091 7.59668C12.3528 7.54044 12.3212 7.46417 12.3212 7.38464H13.3212ZM13.1162 6.88958C12.9849 6.75827 12.8068 6.68451 12.6211 6.68451V7.68451C12.5416 7.68451 12.4653 7.65292 12.4091 7.59668L13.1162 6.88958ZM12.5732 6.68681C12.4464 6.69901 12.3246 6.7422 12.2184 6.81256L12.7708 7.64612C12.7404 7.66631 12.7054 7.67871 12.669 7.68221L12.5732 6.68681ZM12.1706 6.84857L9.38071 9.22295L10.0288 9.98448L12.8187 7.61011L12.1706 6.84857ZM9.70477 9.10371H8.90424V10.1037H9.70477V9.10371ZM8.55069 9.95727L9.35122 10.7578L10.0583 10.0507L9.2578 9.25016L8.55069 9.95727ZM9.20477 10.4042V11.605H10.2048V10.4042H9.20477ZM9.20477 11.605C9.20477 11.5786 9.21528 11.5532 9.23399 11.5345L9.94109 12.2416C10.1099 12.0728 10.2048 11.8438 10.2048 11.605H9.20477ZM9.23399 11.5345C9.25269 11.5158 9.27806 11.5053 9.30451 11.5053V12.5053C9.54327 12.5053 9.77226 12.4105 9.94109 12.2416L9.23399 11.5345ZM9.30451 11.5053C9.33096 11.5053 9.35633 11.5158 9.37503 11.5345L8.66793 12.2416C8.83676 12.4105 9.06575 12.5053 9.30451 12.5053V11.5053ZM9.37503 11.5345C9.39374 11.5532 9.40424 11.5786 9.40424 11.605H8.40424C8.40424 11.8438 8.49909 12.0728 8.66793 12.2416L9.37503 11.5345ZM9.40424 11.605V10.8045H8.40424V11.605H9.40424ZM9.20424 10.4045L7.60318 9.20371L7.00318 10.0037L8.60424 11.2045L9.20424 10.4045ZM7.30318 9.10371H5.70212V10.1037H7.30318V9.10371ZM5.70198 9.10371C5.42367 9.10379 5.14963 9.17217 4.9039 9.30284L5.37342 10.1858C5.47467 10.1319 5.58758 10.1037 5.70226 10.1037L5.70198 9.10371ZM4.9039 9.30284C4.65817 9.43351 4.44826 9.62249 4.29259 9.8532L5.12153 10.4125C5.18568 10.3175 5.27217 10.2396 5.37342 10.1858L4.9039 9.30284ZM5.12501 9.85842C4.97603 9.63154 4.77411 9.4443 4.53664 9.31284L4.05231 10.1877C4.14788 10.2406 4.22915 10.316 4.28911 10.4073L5.12501 9.85842ZM4.53664 9.31284C4.29918 9.18138 4.03331 9.10965 3.76195 9.10383L3.74051 10.1036C3.84973 10.1059 3.95673 10.1348 4.05231 10.1877L4.53664 9.31284ZM3.75123 9.10371H3.7008V10.1037H3.75123V9.10371ZM3.71867 9.10403C3.50046 9.09623 3.28285 9.13155 3.07832 9.20798L3.42833 10.1447C3.50965 10.1143 3.59617 10.1003 3.68292 10.1034L3.71867 9.10403ZM3.07832 9.20798C2.87378 9.2844 2.68633 9.40043 2.5267 9.54941L3.20902 10.2805C3.27249 10.2212 3.34701 10.1751 3.42833 10.1447L3.07832 9.20798ZM2.5267 9.54941C2.36708 9.6984 2.23841 9.87741 2.14808 10.0762L3.05849 10.4899C3.0944 10.4109 3.14556 10.3397 3.20902 10.2805L2.5267 9.54941ZM2.14808 10.0762C2.05775 10.275 2.00752 10.4896 2.00028 10.7079L2.99972 10.741C3.0026 10.6543 3.02257 10.5689 3.05849 10.4899L2.14808 10.0762ZM2 10.7245V10.7933H3V10.7245H2ZM2.00007 10.802C2.011 11.433 2.19107 12.0496 2.52149 12.5873L3.3735 12.0638C3.13677 11.6785 3.00776 11.2368 2.99993 10.7846L2.00007 10.802ZM2.56196 12.6439C2.62323 12.7181 2.6987 12.7793 2.78395 12.8239L3.24779 11.938C3.28053 11.9552 3.30951 11.9787 3.33303 12.0071L2.56196 12.6439ZM2.78395 12.8239C2.8692 12.8686 2.96251 12.8957 3.05839 12.9038L3.14241 11.9073C3.17922 11.9104 3.21505 11.9209 3.24779 11.938L2.78395 12.8239ZM3.1004 12.9056C3.28608 12.9056 3.46417 12.8318 3.59547 12.7005L2.88836 11.9934C2.9446 11.9372 3.02087 11.9056 3.1004 11.9056L3.1004 12.9056ZM3.59547 12.7005C3.72677 12.5692 3.80053 12.3911 3.80053 12.2054H2.80053C2.80053 12.1259 2.83212 12.0496 2.88836 11.9934L3.59547 12.7005ZM3.80053 12.2054V11.2048H2.80053V12.2054H3.80053ZM3.30053 11.2048C3.80041 11.194 3.80042 11.1942 3.80042 11.1944C3.80042 11.1944 3.80043 11.1946 3.80043 11.1947C3.80043 11.195 3.80044 11.1952 3.80044 11.1955C3.80045 11.1959 3.80046 11.1964 3.80047 11.1967C3.80048 11.1975 3.80048 11.1981 3.80049 11.1986C3.80049 11.1995 3.80049 11.1998 3.80049 11.1996C3.8005 11.1991 3.80052 11.1964 3.80069 11.1918C3.80104 11.1825 3.80197 11.1665 3.80436 11.146C3.80939 11.1027 3.81953 11.0515 3.83712 11.0053C3.85485 10.9588 3.8733 10.9351 3.88479 10.9246C3.89 10.9199 3.90385 10.9066 3.95225 10.9018L3.85441 9.90664C3.29358 9.96178 3.01774 10.3472 2.90264 10.6493C2.84688 10.7957 2.82235 10.9332 2.81104 11.0305C2.80526 11.0803 2.8026 11.1225 2.80141 11.1539C2.80081 11.1697 2.80058 11.183 2.80051 11.1933C2.80048 11.1985 2.80049 11.203 2.80052 11.2067C2.80054 11.2086 2.80056 11.2103 2.80058 11.2117C2.80059 11.2125 2.8006 11.2132 2.80061 11.2138C2.80062 11.2141 2.80062 11.2144 2.80063 11.2147C2.80063 11.2149 2.80064 11.2151 2.80064 11.2152C2.80064 11.2154 2.80065 11.2156 3.30053 11.2048ZM3.95111 10.902C3.99757 10.8975 4.024 10.9024 4.03486 10.9054C4.04547 10.9082 4.04488 10.9101 4.0387 10.9051C4.02955 10.8978 4.00133 10.8683 4.00133 10.8045H5.00133C5.00133 10.2546 4.48947 9.84568 3.85555 9.90653L3.95111 10.902ZM4.00133 10.8045V12.8058H5.00133V10.8045H4.00133ZM4.01626 12.6846L3.61599 14.2856L4.58613 14.5282L4.9864 12.9271L4.01626 12.6846ZM3.60106 14.4069V15.8078H4.60106V14.4069H3.60106ZM3.60106 15.8078C3.60106 15.9935 3.67482 16.1716 3.80613 16.3029L4.51323 15.5958C4.56947 15.652 4.60106 15.7283 4.60106 15.8078H3.60106ZM3.80613 16.3029C3.93743 16.4342 4.11551 16.508 4.30119 16.508V15.508C4.38072 15.508 4.457 15.5396 4.51323 15.5958L3.80613 16.3029ZM4.30752 16.5079C4.48293 16.5057 4.65118 16.438 4.77925 16.3181L4.09589 15.588C4.14991 15.5375 4.22088 15.5089 4.29487 15.508L4.30752 16.5079ZM4.77925 16.3181C4.90732 16.1983 4.98598 16.0348 4.99978 15.86L4.00288 15.7813C4.0087 15.7075 4.04187 15.6386 4.09589 15.588L4.77925 16.3181ZM5.00133 15.8206V14.4069H4.00133V15.8206H5.00133ZM4.90133 14.7069L6.10212 13.1058L5.30212 12.5058L4.10133 14.1069L4.90133 14.7069ZM5.20212 12.8058V13.6064H6.20212V12.8058H5.20212ZM5.20991 13.6943L5.61017 15.9357L6.5946 15.76L6.19434 13.5185L5.20991 13.6943ZM5.61415 15.9557C5.64842 16.1109 5.7342 16.2499 5.85753 16.3502L6.48836 15.5743C6.54018 15.6164 6.57623 15.6748 6.59063 15.74L5.61415 15.9557ZM5.85753 16.3502C5.98086 16.4505 6.13449 16.5061 6.29343 16.5079L6.3052 15.508C6.37199 15.5088 6.43654 15.5321 6.48836 15.5743L5.85753 16.3502ZM6.29125 16.5079C6.3832 16.5094 6.47453 16.4927 6.56005 16.4589L6.19226 15.529C6.22888 15.5145 6.268 15.5074 6.30738 15.508L6.29125 16.5079ZM6.56005 16.4589C6.64556 16.4251 6.72357 16.3748 6.78963 16.3108L6.09393 15.5924C6.12222 15.565 6.15563 15.5435 6.19226 15.529L6.56005 16.4589ZM6.78963 16.3108C6.85568 16.2468 6.90849 16.1704 6.94503 16.0861L6.02737 15.6887C6.04302 15.6526 6.06564 15.6198 6.09393 15.5924L6.78963 16.3108ZM6.94503 16.0861C6.98157 16.0017 7.00113 15.9109 7.00259 15.819L6.00272 15.8031C6.00334 15.7637 6.01172 15.7248 6.02737 15.6887L6.94503 16.0861ZM7.00178 15.7815L6.88571 13.817L5.88745 13.876L6.00352 15.8405L7.00178 15.7815ZM6.83448 14.0688L7.35082 13.0281L6.45502 12.5836L5.93868 13.6243L6.83448 14.0688ZM6.90292 13.3058H8.90424V12.3058H6.90292V13.3058ZM8.40424 12.8058V13.6064H9.40424V12.8058H8.40424ZM8.4122 13.6952L8.81887 15.9471L9.80296 15.7694L9.39629 13.5175L8.4122 13.6952ZM8.82979 15.9943C8.87094 16.1398 8.95772 16.2683 9.07736 16.3607L9.68881 15.5694C9.7387 15.608 9.77488 15.6615 9.79204 15.7222L8.82979 15.9943ZM9.07736 16.3607C9.197 16.4532 9.34317 16.5047 9.49433 16.5079L9.51495 15.5081C9.57798 15.5094 9.63893 15.5309 9.68881 15.5694L9.07736 16.3607ZM9.50464 16.508C9.69033 16.508 9.86841 16.4342 9.99971 16.3029L9.2926 15.5958C9.34884 15.5396 9.42511 15.508 9.50464 15.508V16.508ZM9.99971 16.3029C10.131 16.1716 10.2048 15.9935 10.2048 15.8078H9.20477C9.20477 15.7283 9.23637 15.652 9.2926 15.5958L9.99971 16.3029ZM10.2048 15.8078V13.6064H9.20477V15.8078H10.2048ZM10.1742 13.7786L10.468 12.9781L9.52918 12.6336L9.23539 13.4341L10.1742 13.7786ZM10.2283 13.25C10.5335 13.0921 10.7713 12.8293 10.898 12.5099L9.96849 12.1411C9.93073 12.2363 9.85983 12.3147 9.76887 12.3617L10.2283 13.25ZM10.867 12.5743L12.5969 9.55872L11.7295 9.06112L9.99955 12.0767L10.867 12.5743ZM11.7264 9.55324C11.861 9.79486 12.0755 9.98209 12.3331 10.0828L12.6972 9.15147C12.656 9.13533 12.6216 9.10532 12.6 9.0666L11.7264 9.55324ZM12.3331 10.0828C12.5907 10.1835 12.8753 10.1914 13.138 10.1052L12.8262 9.15506C12.7841 9.16888 12.7385 9.16761 12.6972 9.15147L12.3331 10.0828ZM12.6778 10.0268L13.5311 10.6816L14.1399 9.88829L13.2865 9.23346L12.6778 10.0268ZM13.5168 10.6702C13.6797 10.805 13.882 10.883 14.0931 10.8925L14.1383 9.89355C14.1441 9.89381 14.1497 9.89597 14.1542 9.89969L13.5168 10.6702ZM14.12 10.893C14.3271 10.8912 14.5271 10.8173 14.6856 10.6839L14.0414 9.91894C14.061 9.90243 14.0858 9.89328 14.1114 9.89306L14.12 10.893ZM14.6856 10.6839C14.844 10.5504 14.9509 10.3659 14.9879 10.1621L14.004 9.98352C14.0086 9.9583 14.0218 9.93546 14.0414 9.91894L14.6856 10.6839ZM14.9914 10.1404C15.0098 10.0055 14.9987 9.8682 14.9589 9.738L14.0025 10.0301C14.0001 10.0221 13.9994 10.0136 14.0005 10.0053L14.9914 10.1404ZM14.9589 9.738C14.9192 9.6078 14.8516 9.48776 14.761 9.38617L14.0147 10.0518C14.0092 10.0455 14.005 10.0381 14.0025 10.0301L14.9589 9.738Z" fill="white" mask="url(#path-1-outside-1_3631_2784)"/>
</svg>
