<svg width="17" height="20" viewBox="0 0 17 20" fill="none" xmlns="http://www.w3.org/2000/svg">
<path d="M8.03846 3.75C7.70473 3.75 7.40719 3.86234 7.19245 4.07707C6.97772 4.2918 6.86538 4.58934 6.86538 4.92308V8.36538H3.42308C3.08934 8.36538 2.7918 8.47772 2.57707 8.69245C2.36234 8.90719 2.25 9.20473 2.25 9.53846V10.4615C2.25 10.7953 2.36234 11.0928 2.57707 11.3075C2.7918 11.5223 3.08934 11.6346 3.42308 11.6346H6.86538V15.0769C6.86538 15.4107 6.97772 15.7082 7.19245 15.9229C7.40719 16.1377 7.70473 16.25 8.03846 16.25H8.96154C9.29527 16.25 9.59281 16.1377 9.80755 15.9229C10.0223 15.7082 10.1346 15.4107 10.1346 15.0769V11.6346H13.5769C13.9107 11.6346 14.2082 11.5223 14.4229 11.3075C14.6377 11.0928 14.75 10.7953 14.75 10.4615V9.53846C14.75 9.20473 14.6377 8.90719 14.4229 8.69245C14.2082 8.47772 13.9107 8.36538 13.5769 8.36538H10.1346V4.92308C10.1346 4.58934 10.0223 4.2918 9.80755 4.07707C9.59281 3.86234 9.29527 3.75 8.96154 3.75H8.03846Z" fill="#4F5A7D" stroke="white" stroke-width="0.5"/>
</svg>
