<svg width="17" height="20" viewBox="0 0 17 20" fill="none" xmlns="http://www.w3.org/2000/svg">
<path d="M14.5 3.75C14.6381 3.75 14.75 3.86193 14.75 4V15.0769C14.75 15.215 14.6381 15.3269 14.5 15.3269H2.5C2.36193 15.3269 2.25 15.215 2.25 15.0769V11.1262V11.1233L2.25002 11.1233C2.25224 10.9261 2.33625 10.7388 2.48163 10.606L5.24324 7.64189C5.2489 7.63581 5.25486 7.63002 5.26111 7.62453C5.55632 7.36505 6.00598 7.39426 6.26527 7.68937L14.5 3.75ZM14.5 3.75H12.6538C12.5158 3.75 12.4038 3.86193 12.4038 4V12.9808M14.5 3.75L12.4038 12.9808M8.92686 7.65054C8.93084 7.64629 8.93497 7.64219 8.93923 7.63823C9.22736 7.37102 9.67745 7.38792 9.94471 7.67602C10.0678 7.8086 10.1356 7.98303 10.1346 8.16387M8.92686 7.65054L9.88462 8.16308M8.92686 7.65054L6.44231 10.3002V8.16407M8.92686 7.65054L6.44231 8.16407M10.1346 8.16387C10.1346 8.1642 10.1346 8.16452 10.1346 8.16484L9.88462 8.16308M10.1346 8.16387V8.16308H9.88462M10.1346 8.16387V12.9808M9.88462 8.16308V12.9808H10.1346M10.1346 12.9808H12.4038M10.1346 12.9808V13.2308M10.1346 13.2308H12.4038V12.9808M10.1346 13.2308L12.6538 4V4.25V12.9808H12.4038M10.1346 13.2308L12.4038 12.9808M6.44231 8.16407C6.44357 7.98941 6.38052 7.82053 6.2653 7.6894L6.44231 8.16407Z" fill="#4F5A7D" stroke="white" stroke-width="0.5" stroke-linejoin="round"/>
</svg>
