<svg width="17" height="20" viewBox="0 0 17 20" fill="none" xmlns="http://www.w3.org/2000/svg">
<mask id="path-1-outside-1_3631_2778" maskUnits="userSpaceOnUse" x="1.49751" y="2.99889" width="14" height="14" fill="black">
<rect fill="white" x="1.49751" y="2.99889" width="14" height="14"/>
<path d="M14.4144 6.22409L14.036 5.8457L14.2205 5.58729C14.239 5.5596 14.2575 5.54115 14.2759 5.51346C14.4212 5.34763 14.5 5.134 14.4974 4.91358C14.4949 4.74135 14.4443 4.57326 14.3512 4.42833C14.2581 4.28339 14.1264 4.16739 13.9708 4.09345C13.8152 4.01951 13.6421 3.99058 13.4709 4.00993C13.2998 4.02928 13.1375 4.09614 13.0023 4.20295C12.9746 4.22141 12.947 4.2491 12.9193 4.26755L12.6516 4.46136L12.2954 4.10512C12.2371 4.0414 12.156 4.00334 12.0697 3.99925C11.9835 3.99517 11.8991 4.0254 11.8351 4.08333C11.7711 4.14126 11.7326 4.22219 11.728 4.30841C11.7235 4.39464 11.7533 4.47916 11.8109 4.5435L12.1957 4.92834L11.7343 5.38979L11.3725 5.02802C11.3142 4.96429 11.2331 4.92623 11.1468 4.92215C11.0606 4.91806 10.9762 4.94829 10.9122 5.00622C10.8482 5.06415 10.8097 5.14508 10.8051 5.23131C10.8006 5.31754 10.8304 5.40206 10.888 5.46639L11.2673 5.8457L10.8058 6.30715L10.4542 5.95553C10.4256 5.92353 10.391 5.89748 10.3523 5.87887C10.3137 5.86025 10.2717 5.84944 10.2288 5.84704C10.1423 5.84219 10.0574 5.87192 9.99277 5.92968C9.92815 5.98745 9.88913 6.06852 9.88428 6.15506C9.87944 6.24159 9.90917 6.32651 9.96693 6.39113L9.99277 6.41697L10.3444 6.76859L9.88295 7.23004L9.5184 6.8655C9.45844 6.80589 9.37769 6.77185 9.29315 6.77054C9.2086 6.76923 9.12684 6.80075 9.06506 6.85848C9.00327 6.9162 8.96627 6.99563 8.96183 7.08007C8.9574 7.16451 8.98587 7.24738 9.04127 7.31125L9.4215 7.69149L8.96005 8.15293L8.6232 7.81608C8.56947 7.74803 8.49092 7.70412 8.40481 7.69399C8.31871 7.68387 8.2321 7.70836 8.16406 7.76209C8.09601 7.81581 8.0521 7.89437 8.04197 7.98048C8.03185 8.06658 8.05634 8.15318 8.11007 8.22123C8.12945 8.24522 8.50599 8.61438 8.50599 8.61438L8.03716 9.07583L7.67354 8.71405C7.61172 8.65659 7.53175 8.62256 7.44748 8.61784C7.36321 8.61312 7.27995 8.63802 7.21209 8.68821C7.15329 8.74931 7.11835 8.82947 7.1136 8.91414C7.10886 8.99881 7.13464 9.08237 7.18625 9.14966L7.20656 9.16812L7.57571 9.53727L7.11427 9.99872L6.74511 9.62956C6.68214 9.57184 6.59981 9.53982 6.51439 9.53982C6.42896 9.53982 6.34664 9.57184 6.28366 9.62956L7.34315 10.6854L12.7347 5.30119L13.1131 4.92281H13.5745V5.38425L13.1961 5.76264L7.80736 11.1514L8.86776 12.2137C8.92863 12.1523 8.96278 12.0694 8.96278 11.9829C8.96278 11.8965 8.92863 11.8136 8.86776 11.7522L8.86038 11.7439L8.49861 11.3831L8.96005 10.9216L9.31445 11.276C9.37221 11.3406 9.45328 11.3796 9.53982 11.3845C9.62636 11.3893 9.71127 11.3596 9.77589 11.3018C9.84051 11.2441 9.87954 11.163 9.88438 11.0765C9.88923 10.9899 9.8595 10.905 9.80173 10.8404L9.4215 10.4602L9.88295 9.99872L10.2336 10.3494C10.2914 10.414 10.3725 10.4531 10.459 10.4579C10.5456 10.4628 10.6305 10.433 10.6951 10.3753C10.7597 10.3175 10.7987 10.2364 10.8036 10.1499C10.8084 10.0634 10.7787 9.97843 10.7209 9.91381L10.7025 9.89536L10.3444 9.53727L10.8058 9.07583L11.1538 9.42376C11.1838 9.45894 11.2209 9.48729 11.2628 9.50687C11.3047 9.52645 11.3503 9.53682 11.3965 9.53727C11.4618 9.54007 11.5265 9.5228 11.5817 9.48777C11.6369 9.45274 11.6801 9.40164 11.7055 9.34133C11.7308 9.28103 11.737 9.21442 11.7234 9.15045C11.7097 9.08649 11.6768 9.02824 11.6291 8.98354L11.2673 8.61438L11.7287 8.15293L12.0794 8.50363C12.1372 8.56825 12.2183 8.60728 12.3048 8.61212C12.3913 8.61697 12.4763 8.58724 12.5409 8.52947C12.6055 8.47171 12.6445 8.39064 12.6494 8.3041C12.6542 8.21756 12.6245 8.13265 12.5667 8.06803L12.5409 8.04219L12.1902 7.69149L12.6516 7.23004L13.0032 7.58166C13.061 7.64628 13.1421 7.68531 13.2286 7.69015C13.3152 7.695 13.4001 7.66527 13.4647 7.6075C13.5293 7.54974 13.5683 7.46867 13.5732 7.38213C13.578 7.29559 13.5483 7.21068 13.4905 7.14606L13.4675 7.12298L13.1131 6.76859L13.5745 6.30715L13.9271 6.65969C13.9848 6.72431 14.0659 6.76334 14.1524 6.76818C14.239 6.77303 14.3239 6.7433 14.3885 6.68553C14.4531 6.62777 14.4922 6.5467 14.497 6.46016C14.5018 6.37362 14.4721 6.28871 14.4144 6.22409ZM5.62841 10.3826C5.16973 9.92397 4.93716 9.53727 4.34559 9.53727H2.96125C2.83887 9.53727 2.72149 9.58589 2.63496 9.67243C2.54842 9.75897 2.4998 9.87634 2.4998 9.99872V12.7674C2.47586 13.2702 2.64041 13.7639 2.96125 14.1517L3.71341 14.9002C3.89452 15.1043 4.11406 15.2706 4.35948 15.3898C4.6049 15.509 4.8714 15.5787 5.14375 15.5949C5.41611 15.6111 5.68899 15.5735 5.94681 15.4842C6.20463 15.395 6.44234 15.2558 6.64636 15.0746L8.49861 13.2288L5.62841 10.3826ZM4.80703 12.306L3.66449 13.4485C3.5158 13.2517 3.43137 13.0139 3.42269 12.7674V10.4602H4.34559C4.46708 10.48 4.57708 10.5437 4.65476 10.6392C4.71136 10.6848 4.75515 10.7444 4.78185 10.812C4.80854 10.8796 4.81722 10.953 4.80703 11.025V12.306Z"/>
</mask>
<path d="M14.4144 6.22409L14.036 5.8457L14.2205 5.58729C14.239 5.5596 14.2575 5.54115 14.2759 5.51346C14.4212 5.34763 14.5 5.134 14.4974 4.91358C14.4949 4.74135 14.4443 4.57326 14.3512 4.42833C14.2581 4.28339 14.1264 4.16739 13.9708 4.09345C13.8152 4.01951 13.6421 3.99058 13.4709 4.00993C13.2998 4.02928 13.1375 4.09614 13.0023 4.20295C12.9746 4.22141 12.947 4.2491 12.9193 4.26755L12.6516 4.46136L12.2954 4.10512C12.2371 4.0414 12.156 4.00334 12.0697 3.99925C11.9835 3.99517 11.8991 4.0254 11.8351 4.08333C11.7711 4.14126 11.7326 4.22219 11.728 4.30841C11.7235 4.39464 11.7533 4.47916 11.8109 4.5435L12.1957 4.92834L11.7343 5.38979L11.3725 5.02802C11.3142 4.96429 11.2331 4.92623 11.1468 4.92215C11.0606 4.91806 10.9762 4.94829 10.9122 5.00622C10.8482 5.06415 10.8097 5.14508 10.8051 5.23131C10.8006 5.31754 10.8304 5.40206 10.888 5.46639L11.2673 5.8457L10.8058 6.30715L10.4542 5.95553C10.4256 5.92353 10.391 5.89748 10.3523 5.87887C10.3137 5.86025 10.2717 5.84944 10.2288 5.84704C10.1423 5.84219 10.0574 5.87192 9.99277 5.92968C9.92815 5.98745 9.88913 6.06852 9.88428 6.15506C9.87944 6.24159 9.90917 6.32651 9.96693 6.39113L9.99277 6.41697L10.3444 6.76859L9.88295 7.23004L9.5184 6.8655C9.45844 6.80589 9.37769 6.77185 9.29315 6.77054C9.2086 6.76923 9.12684 6.80075 9.06506 6.85848C9.00327 6.9162 8.96627 6.99563 8.96183 7.08007C8.9574 7.16451 8.98587 7.24738 9.04127 7.31125L9.4215 7.69149L8.96005 8.15293L8.6232 7.81608C8.56947 7.74803 8.49092 7.70412 8.40481 7.69399C8.31871 7.68387 8.2321 7.70836 8.16406 7.76209C8.09601 7.81581 8.0521 7.89437 8.04197 7.98048C8.03185 8.06658 8.05634 8.15318 8.11007 8.22123C8.12945 8.24522 8.50599 8.61438 8.50599 8.61438L8.03716 9.07583L7.67354 8.71405C7.61172 8.65659 7.53175 8.62256 7.44748 8.61784C7.36321 8.61312 7.27995 8.63802 7.21209 8.68821C7.15329 8.74931 7.11835 8.82947 7.1136 8.91414C7.10886 8.99881 7.13464 9.08237 7.18625 9.14966L7.20656 9.16812L7.57571 9.53727L7.11427 9.99872L6.74511 9.62956C6.68214 9.57184 6.59981 9.53982 6.51439 9.53982C6.42896 9.53982 6.34664 9.57184 6.28366 9.62956L7.34315 10.6854L12.7347 5.30119L13.1131 4.92281H13.5745V5.38425L13.1961 5.76264L7.80736 11.1514L8.86776 12.2137C8.92863 12.1523 8.96278 12.0694 8.96278 11.9829C8.96278 11.8965 8.92863 11.8136 8.86776 11.7522L8.86038 11.7439L8.49861 11.3831L8.96005 10.9216L9.31445 11.276C9.37221 11.3406 9.45328 11.3796 9.53982 11.3845C9.62636 11.3893 9.71127 11.3596 9.77589 11.3018C9.84051 11.2441 9.87954 11.163 9.88438 11.0765C9.88923 10.9899 9.8595 10.905 9.80173 10.8404L9.4215 10.4602L9.88295 9.99872L10.2336 10.3494C10.2914 10.414 10.3725 10.4531 10.459 10.4579C10.5456 10.4628 10.6305 10.433 10.6951 10.3753C10.7597 10.3175 10.7987 10.2364 10.8036 10.1499C10.8084 10.0634 10.7787 9.97843 10.7209 9.91381L10.7025 9.89536L10.3444 9.53727L10.8058 9.07583L11.1538 9.42376C11.1838 9.45894 11.2209 9.48729 11.2628 9.50687C11.3047 9.52645 11.3503 9.53682 11.3965 9.53727C11.4618 9.54007 11.5265 9.5228 11.5817 9.48777C11.6369 9.45274 11.6801 9.40164 11.7055 9.34133C11.7308 9.28103 11.737 9.21442 11.7234 9.15045C11.7097 9.08649 11.6768 9.02824 11.6291 8.98354L11.2673 8.61438L11.7287 8.15293L12.0794 8.50363C12.1372 8.56825 12.2183 8.60728 12.3048 8.61212C12.3913 8.61697 12.4763 8.58724 12.5409 8.52947C12.6055 8.47171 12.6445 8.39064 12.6494 8.3041C12.6542 8.21756 12.6245 8.13265 12.5667 8.06803L12.5409 8.04219L12.1902 7.69149L12.6516 7.23004L13.0032 7.58166C13.061 7.64628 13.1421 7.68531 13.2286 7.69015C13.3152 7.695 13.4001 7.66527 13.4647 7.6075C13.5293 7.54974 13.5683 7.46867 13.5732 7.38213C13.578 7.29559 13.5483 7.21068 13.4905 7.14606L13.4675 7.12298L13.1131 6.76859L13.5745 6.30715L13.9271 6.65969C13.9848 6.72431 14.0659 6.76334 14.1524 6.76818C14.239 6.77303 14.3239 6.7433 14.3885 6.68553C14.4531 6.62777 14.4922 6.5467 14.497 6.46016C14.5018 6.37362 14.4721 6.28871 14.4144 6.22409ZM5.62841 10.3826C5.16973 9.92397 4.93716 9.53727 4.34559 9.53727H2.96125C2.83887 9.53727 2.72149 9.58589 2.63496 9.67243C2.54842 9.75897 2.4998 9.87634 2.4998 9.99872V12.7674C2.47586 13.2702 2.64041 13.7639 2.96125 14.1517L3.71341 14.9002C3.89452 15.1043 4.11406 15.2706 4.35948 15.3898C4.6049 15.509 4.8714 15.5787 5.14375 15.5949C5.41611 15.6111 5.68899 15.5735 5.94681 15.4842C6.20463 15.395 6.44234 15.2558 6.64636 15.0746L8.49861 13.2288L5.62841 10.3826ZM4.80703 12.306L3.66449 13.4485C3.5158 13.2517 3.43137 13.0139 3.42269 12.7674V10.4602H4.34559C4.46708 10.48 4.57708 10.5437 4.65476 10.6392C4.71136 10.6848 4.75515 10.7444 4.78185 10.812C4.80854 10.8796 4.81722 10.953 4.80703 11.025V12.306Z" fill="#4F5A7D"/>
<path d="M14.4144 6.22409L14.036 5.8457L14.2205 5.58729C14.239 5.5596 14.2575 5.54115 14.2759 5.51346C14.4212 5.34763 14.5 5.134 14.4974 4.91358C14.4949 4.74135 14.4443 4.57326 14.3512 4.42833C14.2581 4.28339 14.1264 4.16739 13.9708 4.09345C13.8152 4.01951 13.6421 3.99058 13.4709 4.00993C13.2998 4.02928 13.1375 4.09614 13.0023 4.20295C12.9746 4.22141 12.947 4.2491 12.9193 4.26755L12.6516 4.46136L12.2954 4.10512C12.2371 4.0414 12.156 4.00334 12.0697 3.99925C11.9835 3.99517 11.8991 4.0254 11.8351 4.08333C11.7711 4.14126 11.7326 4.22219 11.728 4.30841C11.7235 4.39464 11.7533 4.47916 11.8109 4.5435L12.1957 4.92834L11.7343 5.38979L11.3725 5.02802C11.3142 4.96429 11.2331 4.92623 11.1468 4.92215C11.0606 4.91806 10.9762 4.94829 10.9122 5.00622C10.8482 5.06415 10.8097 5.14508 10.8051 5.23131C10.8006 5.31754 10.8304 5.40206 10.888 5.46639L11.2673 5.8457L10.8058 6.30715L10.4542 5.95553C10.4256 5.92353 10.391 5.89748 10.3523 5.87887C10.3137 5.86025 10.2717 5.84944 10.2288 5.84704C10.1423 5.84219 10.0574 5.87192 9.99277 5.92968C9.92815 5.98745 9.88913 6.06852 9.88428 6.15506C9.87944 6.24159 9.90917 6.32651 9.96693 6.39113L9.99277 6.41697L10.3444 6.76859L9.88295 7.23004L9.5184 6.8655C9.45844 6.80589 9.37769 6.77185 9.29315 6.77054C9.2086 6.76923 9.12684 6.80075 9.06506 6.85848C9.00327 6.9162 8.96627 6.99563 8.96183 7.08007C8.9574 7.16451 8.98587 7.24738 9.04127 7.31125L9.4215 7.69149L8.96005 8.15293L8.6232 7.81608C8.56947 7.74803 8.49092 7.70412 8.40481 7.69399C8.31871 7.68387 8.2321 7.70836 8.16406 7.76209C8.09601 7.81581 8.0521 7.89437 8.04197 7.98048C8.03185 8.06658 8.05634 8.15318 8.11007 8.22123C8.12945 8.24522 8.50599 8.61438 8.50599 8.61438L8.03716 9.07583L7.67354 8.71405C7.61172 8.65659 7.53175 8.62256 7.44748 8.61784C7.36321 8.61312 7.27995 8.63802 7.21209 8.68821C7.15329 8.74931 7.11835 8.82947 7.1136 8.91414C7.10886 8.99881 7.13464 9.08237 7.18625 9.14966L7.20656 9.16812L7.57571 9.53727L7.11427 9.99872L6.74511 9.62956C6.68214 9.57184 6.59981 9.53982 6.51439 9.53982C6.42896 9.53982 6.34664 9.57184 6.28366 9.62956L7.34315 10.6854L12.7347 5.30119L13.1131 4.92281H13.5745V5.38425L13.1961 5.76264L7.80736 11.1514L8.86776 12.2137C8.92863 12.1523 8.96278 12.0694 8.96278 11.9829C8.96278 11.8965 8.92863 11.8136 8.86776 11.7522L8.86038 11.7439L8.49861 11.3831L8.96005 10.9216L9.31445 11.276C9.37221 11.3406 9.45328 11.3796 9.53982 11.3845C9.62636 11.3893 9.71127 11.3596 9.77589 11.3018C9.84051 11.2441 9.87954 11.163 9.88438 11.0765C9.88923 10.9899 9.8595 10.905 9.80173 10.8404L9.4215 10.4602L9.88295 9.99872L10.2336 10.3494C10.2914 10.414 10.3725 10.4531 10.459 10.4579C10.5456 10.4628 10.6305 10.433 10.6951 10.3753C10.7597 10.3175 10.7987 10.2364 10.8036 10.1499C10.8084 10.0634 10.7787 9.97843 10.7209 9.91381L10.7025 9.89536L10.3444 9.53727L10.8058 9.07583L11.1538 9.42376C11.1838 9.45894 11.2209 9.48729 11.2628 9.50687C11.3047 9.52645 11.3503 9.53682 11.3965 9.53727C11.4618 9.54007 11.5265 9.5228 11.5817 9.48777C11.6369 9.45274 11.6801 9.40164 11.7055 9.34133C11.7308 9.28103 11.737 9.21442 11.7234 9.15045C11.7097 9.08649 11.6768 9.02824 11.6291 8.98354L11.2673 8.61438L11.7287 8.15293L12.0794 8.50363C12.1372 8.56825 12.2183 8.60728 12.3048 8.61212C12.3913 8.61697 12.4763 8.58724 12.5409 8.52947C12.6055 8.47171 12.6445 8.39064 12.6494 8.3041C12.6542 8.21756 12.6245 8.13265 12.5667 8.06803L12.5409 8.04219L12.1902 7.69149L12.6516 7.23004L13.0032 7.58166C13.061 7.64628 13.1421 7.68531 13.2286 7.69015C13.3152 7.695 13.4001 7.66527 13.4647 7.6075C13.5293 7.54974 13.5683 7.46867 13.5732 7.38213C13.578 7.29559 13.5483 7.21068 13.4905 7.14606L13.4675 7.12298L13.1131 6.76859L13.5745 6.30715L13.9271 6.65969C13.9848 6.72431 14.0659 6.76334 14.1524 6.76818C14.239 6.77303 14.3239 6.7433 14.3885 6.68553C14.4531 6.62777 14.4922 6.5467 14.497 6.46016C14.5018 6.37362 14.4721 6.28871 14.4144 6.22409ZM5.62841 10.3826C5.16973 9.92397 4.93716 9.53727 4.34559 9.53727H2.96125C2.83887 9.53727 2.72149 9.58589 2.63496 9.67243C2.54842 9.75897 2.4998 9.87634 2.4998 9.99872V12.7674C2.47586 13.2702 2.64041 13.7639 2.96125 14.1517L3.71341 14.9002C3.89452 15.1043 4.11406 15.2706 4.35948 15.3898C4.6049 15.509 4.8714 15.5787 5.14375 15.5949C5.41611 15.6111 5.68899 15.5735 5.94681 15.4842C6.20463 15.395 6.44234 15.2558 6.64636 15.0746L8.49861 13.2288L5.62841 10.3826ZM4.80703 12.306L3.66449 13.4485C3.5158 13.2517 3.43137 13.0139 3.42269 12.7674V10.4602H4.34559C4.46708 10.48 4.57708 10.5437 4.65476 10.6392C4.71136 10.6848 4.75515 10.7444 4.78185 10.812C4.80854 10.8796 4.81722 10.953 4.80703 11.025V12.306Z" stroke="white" mask="url(#path-1-outside-1_3631_2778)"/>
</svg>
