<svg width="17" height="20" viewBox="0 0 17 20" fill="none" xmlns="http://www.w3.org/2000/svg">
<path d="M11.5722 5.42797C11.582 5.42696 11.5918 5.42606 11.6017 5.42527C11.6074 5.42482 11.6131 5.42456 11.6188 5.42449C12.2458 5.41737 12.7786 5.86206 12.895 6.46464C13.4284 6.77264 13.7586 7.34719 13.7498 7.97006C13.7585 8.58499 13.4368 9.15282 12.9153 9.46357C12.916 9.58138 12.9027 9.69876 12.8758 9.81328L12.8758 9.81328C12.6937 10.5898 11.9363 11.0814 11.1603 10.9429C10.3551 11.2691 9.64001 11.7839 9.07515 12.4438V13.8835L10.2933 14.6448C10.3878 14.7039 10.4318 14.8185 10.4011 14.9257C10.3703 15.0329 10.2723 15.1068 10.1608 15.1068H5.98697C5.87481 15.1068 5.77637 15.0321 5.74619 14.9241C5.71601 14.8161 5.76147 14.7012 5.8574 14.643L7.11432 13.8812V10.0492C7.065 10.0339 7.01671 10.0156 6.9697 9.99445C6.80341 10.3898 6.47176 10.7009 6.0525 10.8366L6.05249 10.8366C5.3096 11.0769 4.51537 10.7042 4.21716 9.99809C3.77451 9.83132 3.43415 9.46297 3.30545 9.00242C3.10692 8.2921 3.4568 7.55806 4.10095 7.25178C4.07642 7.1412 4.06441 7.02791 4.06538 6.91401L11.5722 5.42797ZM11.5722 5.42797C11.3954 4.8842 10.8608 4.51524 10.2674 4.56981L10.2674 4.56981C10.1379 4.58173 10.012 4.61366 9.89377 4.66373M11.5722 5.42797L9.89377 4.66373M9.89377 4.66373C9.72241 4.15018 9.23773 3.78 8.66655 3.78C8.08329 3.78 7.59024 4.16599 7.42888 4.69648C6.94651 4.52031 6.38475 4.64964 6.03069 5.06245L6.03068 5.06246C5.9349 5.17415 5.85972 5.3011 5.80788 5.4374C5.73112 5.42709 5.65356 5.42275 5.5759 5.42445C4.74824 5.41978 4.0723 6.08576 4.06538 6.91397L9.89377 4.66373ZM9.94757 9.76436C9.99241 9.9877 10.0877 10.1974 10.2253 10.3774C9.81412 10.5945 9.42841 10.8563 9.07515 11.1579V9.49702C9.32416 9.66759 9.62252 9.76363 9.93479 9.76436H9.93538H9.94757Z" fill="#4F5A7D" stroke="white" stroke-width="0.5" stroke-linejoin="round"/>
</svg>
