<svg width="17" height="20" viewBox="0 0 17 20" fill="none" xmlns="http://www.w3.org/2000/svg">
<path d="M5.1074 12.5603L5.04496 12.8024C5.23093 12.8503 5.42583 12.8511 5.6121 12.8048L8.21886 12.3352V13.7921L4.66982 14.5019L4.64557 14.5067L4.62274 14.5162C4.35437 14.628 4.17969 14.8902 4.17969 15.1808C4.17969 15.5714 4.49078 15.8893 4.87874 15.9004C4.95047 15.9103 5.02328 15.9092 5.09478 15.8972L5.0948 15.8973L5.10221 15.8958L9.6203 14.9922L9.64451 14.9873L9.66731 14.9779C9.93123 14.868 10.1051 14.6125 10.1105 14.3268L10.1105 14.3268C10.118 13.9292 9.80176 13.6009 9.40429 13.5935L9.40429 13.5934H9.39959H9.27308H9.24327L9.21429 13.6004L8.96284 13.6613V12.231L9.03347 12.2053L10.1376 11.9845L11.5704 14.8586L11.5701 14.8587L11.5762 14.8696C11.8208 15.3044 12.3171 15.5326 12.8061 15.4357C12.8075 15.4355 12.8086 15.4353 12.8096 15.4351L12.8117 15.4347C12.8121 15.4346 12.8125 15.4345 12.8129 15.4344C13.4381 15.3148 13.8485 14.7114 13.7295 14.0859L13.7229 14.0511L13.7069 14.0195C13.657 13.9212 13.5934 13.8306 13.5178 13.7504L11.7312 10.2307C11.5331 9.78085 11.0713 9.50567 10.5809 9.54605L10.5666 9.54722L10.5526 9.55001L8.96284 9.86621V7.84038H8.96585H8.98613L9.00613 7.83711L9.42921 7.76804C9.75474 7.76206 10.0334 7.52924 10.0961 7.2081C10.1804 6.83416 9.94886 6.46121 9.57553 6.37141L9.5467 6.36447H9.51706H9.3273H9.30254L9.27827 6.36933L8.96284 6.43241V3V2.75H8.71284H8.51404H8.26404V3V6.50808L4.23955 6.95334L4.23175 6.9542L4.22403 6.95555C3.77162 7.03457 3.40913 7.3743 3.30115 7.82077L3.3011 7.82075L3.3 7.82574C3.264 7.98913 3.264 8.1585 3.3 8.32189L3.29993 8.3219L3.30136 8.32774L4.20498 12.0055L4.25175 12.1958H4.29665C4.44438 12.4948 4.71645 12.7184 5.04553 12.8025L5.1074 12.5603ZM5.1074 12.5603C4.80071 12.4819 4.55728 12.2489 4.46583 11.9458L5.55921 12.5603C5.41102 12.5985 5.2556 12.5985 5.1074 12.5603ZM3.30224 3.97606L3.30221 3.97616C3.29424 4.00677 3.28708 4.03784 3.28086 4.06916L3.28083 4.06931C3.10863 4.93911 3.67405 5.78377 4.54375 5.95609L4.54377 5.95609C5.37708 6.12113 6.19479 5.60847 6.40917 4.78637L6.40917 4.78636C6.63285 3.92847 6.11883 3.05146 5.26084 2.82776C4.40292 2.60407 3.52604 3.11812 3.30224 3.97606ZM6.56759 8.09723L8.26404 7.91401V10.0226L7.1084 10.2459L6.56759 8.09723Z" fill="#4F5A7D" stroke="white" stroke-width="0.5"/>
</svg>
