<svg width="17" height="20" viewBox="0 0 17 20" fill="none" xmlns="http://www.w3.org/2000/svg">
<path d="M6.43426 13.6591C6.5113 13.3213 6.32901 12.9702 5.99612 12.8443L5.99606 12.8443C5.66372 12.7187 5.28946 12.8599 5.12364 13.1747L5.12359 13.1746L5.12121 13.1794L4.21212 14.9976L4.20591 15.01L4.20111 15.023C4.17076 15.1055 4.1575 15.1911 4.1591 15.2756C4.16064 15.6633 4.47552 15.9773 4.86364 15.9773L4.86502 15.9773C5.08627 15.976 5.29148 15.87 5.42056 15.695H5.47977L5.54613 15.5476L5.76208 15.0682H11.2379L11.4318 15.4987V15.5534L11.4611 15.6084C11.5812 15.8345 11.8154 15.9759 12.0711 15.9773H12.0724C12.4512 15.9773 12.7602 15.6783 12.7763 15.3036C12.7974 15.201 12.7951 15.0949 12.7694 14.9931L12.7627 14.9668L12.7506 14.9425L11.8415 13.1243L11.8416 13.1243L11.8391 13.1196C11.7032 12.8616 11.4301 12.7223 11.1563 12.7456C11.0639 12.7534 10.9719 12.7803 10.8871 12.825C10.887 12.825 10.887 12.825 10.887 12.825L11.0036 13.0462L6.43426 13.6591ZM6.43426 13.6591H10.5434H6.43426ZM4.40909 2.75C3.76893 2.75 3.25 3.26893 3.25 3.90909V11.1818C3.25 11.822 3.76893 12.3409 4.40909 12.3409H12.5909C13.2311 12.3409 13.75 11.822 13.75 11.1818V3.90909C13.75 3.26893 13.2311 2.75 12.5909 2.75H4.40909ZM4.86364 5.06818H7.79545V8.20455H4.86364C4.75071 8.20455 4.65909 8.11293 4.65909 8V5.27273C4.65909 5.1598 4.75071 5.06818 4.86364 5.06818ZM9.20455 5.06818H12.1364C12.2493 5.06818 12.3409 5.1598 12.3409 5.27273V8C12.3409 8.11293 12.2493 8.20455 12.1364 8.20455H9.20455V5.06818ZM6.22727 9.61364C6.59129 9.61364 6.88636 9.90871 6.88636 10.2727C6.88636 10.6367 6.59129 10.9318 6.22727 10.9318C5.86325 10.9318 5.56818 10.6367 5.56818 10.2727C5.56818 9.90871 5.86325 9.61364 6.22727 9.61364ZM10.7727 9.61364C11.1367 9.61364 11.4318 9.90871 11.4318 10.2727C11.4318 10.6367 11.1367 10.9318 10.7727 10.9318C10.4087 10.9318 10.1136 10.6367 10.1136 10.2727C10.1136 9.90871 10.4087 9.61364 10.7727 9.61364Z" fill="#4F5A7D" stroke="white" stroke-width="0.5"/>
</svg>
