<svg width="17" height="20" viewBox="0 0 17 20" fill="none" xmlns="http://www.w3.org/2000/svg">
<path d="M6.61018 15.621C6.61035 15.871 6.61047 15.871 6.6106 15.871L6.61086 15.871L6.61146 15.871L6.6129 15.871L6.61674 15.871L6.62818 15.8707C6.63742 15.8704 6.64985 15.8698 6.66502 15.8688C6.69527 15.8667 6.73692 15.8626 6.78619 15.8546C6.8834 15.8388 7.01718 15.8068 7.15317 15.7401C7.29003 15.6729 7.43529 15.5673 7.54297 15.4027C7.652 15.236 7.71123 15.0258 7.7014 14.77L7.7014 14.77L7.49105 9.30092C7.48829 9.22894 7.52177 9.14464 7.63526 9.03077C7.75042 8.91524 7.91202 8.80469 8.10181 8.67709C8.10807 8.67288 8.11436 8.66865 8.12068 8.6644C8.29543 8.54697 8.49347 8.41388 8.64794 8.26428C8.80874 8.10855 8.9582 7.90119 8.96364 7.63278L8.96415 7.60768L8.95966 7.58299L8.11825 2.95528L8.08093 2.75H7.87229H7.45159H7.18547L7.20207 3.01559L7.40344 6.23748L7.25623 6.33562L7.07015 2.98613L7.05703 2.75H6.82053H6.39983H6.16334L6.15022 2.98613L5.96414 6.33562L5.81693 6.23748L6.01829 3.01559L6.03489 2.75H5.76878H5.34808H5.13944L5.10211 2.95528L4.26071 7.58298C4.26071 7.58298 4.26071 7.58299 4.26071 7.58299C4.20873 7.86881 4.3511 8.09405 4.51086 8.25539C4.66798 8.41408 4.88319 8.55336 5.07099 8.67469L5.07954 8.68021C5.27593 8.80707 5.44738 8.91783 5.57202 9.03457C5.69883 9.15335 5.73178 9.23675 5.72932 9.30091L5.51897 14.77L5.51897 14.77C5.50914 15.0258 5.56837 15.236 5.67739 15.4027C5.78507 15.5673 5.93033 15.6729 6.0672 15.7401C6.20318 15.8068 6.33697 15.8388 6.43418 15.8546C6.48344 15.8626 6.52509 15.8667 6.55535 15.8688C6.57052 15.8698 6.58295 15.8704 6.59219 15.8707L6.60363 15.871L6.60747 15.871L6.60891 15.871L6.6095 15.871L6.60977 15.871C6.60989 15.871 6.61002 15.871 6.61018 15.621ZM6.61018 15.621L6.61035 15.871H6.61002L6.61018 15.621ZM11.6586 15.621C11.6586 15.871 11.6587 15.871 11.6589 15.871L11.6591 15.871L11.6597 15.871L11.6612 15.871L11.665 15.871L11.6764 15.8707C11.6855 15.8704 11.6977 15.8698 11.7126 15.8688C11.7422 15.8666 11.7829 15.8625 11.8312 15.8545C11.9264 15.8386 12.0572 15.8064 12.1911 15.7395C12.3259 15.672 12.4684 15.567 12.5765 15.4047C12.6858 15.2409 12.75 15.0337 12.75 14.7796V3V2.75H12.5C12.1281 2.75 11.6691 2.91048 11.2576 3.16651C10.844 3.42386 10.4459 3.79774 10.2131 4.26052C10.0181 4.61434 9.89994 5.15336 9.82823 5.68097C9.75492 6.22038 9.72579 6.78432 9.72579 7.20701V9.31052C9.72579 9.79467 10.0583 10.0728 10.374 10.2168C10.572 10.3071 10.7857 10.3572 10.966 10.3818L10.5682 14.757L10.5682 14.757C10.5448 15.0143 10.597 15.2283 10.7057 15.399C10.8126 15.5667 10.9617 15.673 11.1011 15.7399C11.2398 15.8066 11.3775 15.8385 11.4774 15.8543C11.528 15.8623 11.5709 15.8665 11.602 15.8686C11.6176 15.8697 11.6303 15.8703 11.6397 15.8706L11.6513 15.871L11.6552 15.871L11.6566 15.871L11.6572 15.871L11.6574 15.871C11.6575 15.871 11.6577 15.871 11.6586 15.621ZM11.6586 15.621V15.871H11.6577L11.6586 15.621Z" fill="#4F5A7D" stroke="white" stroke-width="0.5"/>
</svg>
