<svg width="17" height="20" viewBox="0 0 17 20" fill="none" xmlns="http://www.w3.org/2000/svg">
<path d="M13.578 8.33145L13.5723 8.32486L13.5661 8.3187L11.8512 6.6038C11.7231 6.45098 11.5344 6.36146 11.3343 6.35952V6.35951H11.3319H4.96112C4.57391 6.35951 4.25994 6.67348 4.25994 7.0607C4.25994 7.44791 4.57391 7.76188 4.96112 7.76188H6.99016L4.28704 13.0836L4.27202 13.1132L4.26523 13.1457C4.2493 13.2219 4.24638 13.3 4.25646 13.3769C4.20661 13.743 4.44776 14.0908 4.81498 14.1679C5.18457 14.2456 5.54737 14.0208 5.64641 13.6618L6.4581 12.2738H7.73096L6.1556 15.7347C6.09858 15.8345 6.0675 15.9469 6.06483 16.0615C6.00401 16.4367 6.25074 16.7959 6.62663 16.871C6.99893 16.9455 7.36159 16.714 7.45401 16.3501L11.5242 8.22698L12.5785 9.3105L12.587 9.31927L12.5964 9.32716C12.8922 9.57705 13.3346 9.53974 13.5844 9.244L13.5845 9.24395C13.8075 8.97982 13.8049 8.59247 13.578 8.33145ZM10.3754 5.95713C11.261 5.95713 11.979 5.23917 11.979 4.35357C11.979 3.46796 11.261 2.75 10.3754 2.75C9.48979 2.75 8.77182 3.46797 8.77182 4.35357C8.77182 5.23917 9.48979 5.95713 10.3754 5.95713ZM11.729 12.6761C11.0925 12.6761 10.5766 13.1921 10.5766 13.8285C10.5766 14.465 11.0925 14.9809 11.729 14.9809C12.3654 14.9809 12.8813 14.465 12.8813 13.8285C12.8813 13.1921 12.3654 12.6761 11.729 12.6761Z" fill="#4F5A7D" stroke="white" stroke-width="0.5"/>
</svg>
