<svg width="17" height="20" viewBox="0 0 17 20" fill="none" xmlns="http://www.w3.org/2000/svg">
<path d="M10.2406 5.1172L10.1373 4.88931L10.1278 4.89409L7.4789 6.23335C7.21298 6.34452 7.05332 6.59707 6.98836 6.83631C6.92345 7.07533 6.93384 7.37219 7.09849 7.59425L7.71051 8.4821L4.78783 9.97579L4.43135 10.158L4.7515 10.3983L6.3499 11.5983L6.48435 11.6993L6.62855 11.6128L8.50155 10.4899L10.373 11.6128L10.5404 11.7132L10.6784 11.5752L11.48 10.7736L11.6333 10.6203L11.5032 10.4468L11.1708 10.0036C11.4664 10.2814 11.8642 10.4516 12.3016 10.4516C13.2139 10.4516 13.9516 9.71154 13.9516 8.8C13.9516 7.88808 13.2134 7.15 12.3016 7.15C11.3901 7.15 10.65 7.88772 10.65 8.8C10.65 9.06871 10.7142 9.32246 10.8282 9.54674L9.26974 7.46886L11.0695 6.3923C11.34 6.25339 11.4737 6.0554 11.5267 5.84668C11.5645 5.69823 11.5581 5.53617 11.5546 5.44555C11.5538 5.42549 11.5532 5.40893 11.5532 5.3968H11.5532L11.5532 5.39192C11.549 5.18082 11.3877 5.01771 11.2373 4.92355C11.0701 4.81885 10.8459 4.75 10.589 4.75C10.527 4.75 10.4634 4.76737 10.4253 4.77872C10.3796 4.79234 10.332 4.80956 10.291 4.82539C10.2495 4.84145 10.2114 4.85733 10.184 4.8691L10.1508 4.88354L10.1413 4.88775L10.1386 4.88896L10.1378 4.88932L10.1376 4.88944L10.1375 4.88948L10.1374 4.8895L10.2406 5.1172ZM4.62862 11.1856L4.5 11.1085L4.37138 11.1856L2.37138 12.3856L2.25 12.4585V12.6V13.8V14.2415L2.62862 14.0144L4.5 12.8915L6.37138 14.0144L6.49995 14.0915L6.62855 14.0144L8.50155 12.8915L10.373 14.0144L10.5172 14.1009L10.6517 13.9999L12.1265 12.8927L14.3882 14.0236L14.75 14.2045V13.8V12.6V12.4455L14.6118 12.3764L12.2118 11.1764L12.0735 11.1073L11.9499 11.2001L10.486 12.2991L8.63022 11.1856L8.50165 11.1085L8.37305 11.1856L6.50005 12.3085L4.62862 11.1856Z" fill="#4F5A7D" stroke="white" stroke-width="0.5"/>
</svg>
