<svg width="17" height="20" viewBox="0 0 17 20" fill="none" xmlns="http://www.w3.org/2000/svg">
<path d="M3.5 13.0909H3.25V5.81818C3.25 4.68011 4.18011 3.75 5.31818 3.75H11.6818C12.8199 3.75 13.75 4.68011 13.75 5.81818V13.0909C13.75 13.3619 13.6815 13.5818 13.566 13.7552C13.4515 13.9269 13.3006 14.0383 13.1573 14.11C13.0441 14.1666 12.9328 14.1999 12.8409 14.2196M3.5 13.0909V5.81818C3.5 4.81818 4.31818 4 5.31818 4H11.6818C12.6818 4 13.5 4.81818 13.5 5.81818V13.0909C13.5 14 12.5909 14 12.5909 14M3.5 13.0909C3.25 13.0909 3.25 13.091 3.25 13.0912L3.25 13.0914L3.25 13.0921L3.25001 13.0936L3.25006 13.0975L3.25036 13.1094C3.25068 13.1191 3.25128 13.132 3.25241 13.1478C3.25466 13.1793 3.25904 13.2227 3.26761 13.2741C3.28454 13.3757 3.31887 13.5149 3.39003 13.6573C3.46168 13.8006 3.57307 13.9515 3.74485 14.066C3.86141 14.1437 3.99903 14.2001 4.15909 14.2287M3.5 13.0909L4.15909 14.2287M12.8409 14.2196V14H12.5909M12.8409 14.2196V14.9091C12.8409 15.5472 12.3199 16.0682 11.6818 16.0682C11.0437 16.0682 10.5227 15.5472 10.5227 14.9091V14.25H6.47727V14.9091C6.47727 15.5472 5.95625 16.0682 5.31818 16.0682C4.68011 16.0682 4.15909 15.5472 4.15909 14.9091V14.2287M12.8409 14.2196C12.8172 14.2247 12.7949 14.2289 12.7741 14.2324C12.7227 14.241 12.6793 14.2453 12.6478 14.2476C12.632 14.2487 12.6191 14.2493 12.6094 14.2496L12.5975 14.2499L12.5936 14.25L12.5921 14.25L12.5914 14.25L12.5912 14.25C12.591 14.25 12.5909 14.25 12.5909 14M12.5909 14L4.15909 14.2287M4.65909 7.18182C4.65909 7.06534 4.74716 6.97727 4.86364 6.97727H12.1364C12.2528 6.97727 12.3409 7.06534 12.3409 7.18182V9.90909C12.3409 10.0256 12.2528 10.1136 12.1364 10.1136H4.86364C4.74716 10.1136 4.65909 10.0256 4.65909 9.90909V7.18182ZM4.65909 12.1818C4.65909 11.8199 4.95625 11.5227 5.31818 11.5227C5.68011 11.5227 5.97727 11.8199 5.97727 12.1818C5.97727 12.5437 5.68011 12.8409 5.31818 12.8409C4.95625 12.8409 4.65909 12.5437 4.65909 12.1818ZM11.0227 12.1818C11.0227 11.8199 11.3199 11.5227 11.6818 11.5227C12.0437 11.5227 12.3409 11.8199 12.3409 12.1818C12.3409 12.5437 12.0437 12.8409 11.6818 12.8409C11.3199 12.8409 11.0227 12.5437 11.0227 12.1818ZM5.77273 5.56818C5.65625 5.56818 5.56818 5.48011 5.56818 5.36364C5.56818 5.24716 5.65625 5.15909 5.77273 5.15909H11.2273C11.3437 5.15909 11.4318 5.24716 11.4318 5.36364C11.4318 5.48011 11.3437 5.56818 11.2273 5.56818H5.77273Z" fill="#4F5A7D" stroke="white" stroke-width="0.5"/>
</svg>
