<svg width="17" height="20" viewBox="0 0 17 20" fill="none" xmlns="http://www.w3.org/2000/svg">
<path d="M10.9735 6.09428H2.5H2.16731L2.25987 6.41384L3.56716 10.9271L3.57292 10.947L3.58187 10.9656C3.58648 10.9753 3.59109 10.9835 3.59496 10.9899C3.85005 11.6707 4.4836 12.1634 5.24228 12.2109L5.26116 12.2189H5.31233H11.15C11.1473 12.2399 11.1433 12.2655 11.1374 12.2952C11.1179 12.3937 11.0778 12.5363 10.9953 12.7012C10.8949 12.902 10.8513 12.9763 10.7758 13.0266C10.6999 13.0772 10.5528 13.1251 10.1881 13.1251H4.09475C3.79255 13.1251 3.54753 13.2409 3.38059 13.4287C3.21773 13.6119 3.14167 13.8491 3.14167 14.0782C3.14167 14.3072 3.21773 14.5444 3.38059 14.7276C3.54753 14.9155 3.79255 15.0313 4.09475 15.0313H4.31835C4.19089 15.2252 4.12489 15.4612 4.12489 15.7187C4.12489 16.0568 4.23866 16.3579 4.45591 16.5751C4.67315 16.7924 4.97428 16.9062 5.31233 16.9062C5.65037 16.9062 5.9515 16.7924 6.16875 16.5751C6.386 16.3579 6.49977 16.0568 6.49977 15.7187C6.49977 15.4612 6.43376 15.2252 6.3063 15.0313H9.00557C8.87811 15.2252 8.8121 15.4612 8.8121 15.7187C8.8121 16.0568 8.92587 16.3579 9.14312 16.5751C9.36037 16.7924 9.6615 16.9062 9.99954 16.9062C10.3376 16.9062 10.6387 16.7924 10.856 16.5751C11.0732 16.3579 11.187 16.0568 11.187 15.7187C11.187 15.4098 11.092 15.1317 10.9098 14.9203C11.7231 14.6918 12.3265 14.142 12.5729 13.567C12.7235 13.2157 12.7987 12.8906 12.8365 12.6528C12.8554 12.5337 12.8651 12.4358 12.87 12.3666C12.8724 12.3319 12.8737 12.3044 12.8744 12.2849L12.875 12.2617L12.8751 12.2548L12.8751 12.2526L12.8751 12.2518L12.8751 12.2515L12.8751 12.2514C12.8751 12.2513 12.8751 12.2512 12.6251 12.2509L12.8751 12.2512V12.2509V11.9689V6.34428C12.8751 6.13036 12.9226 5.94628 12.9991 5.82452C13.07 5.71168 13.1599 5.65684 13.2806 5.65684H13.7969C14.3233 5.65684 14.75 5.23012 14.75 4.70376C14.75 4.1774 14.3233 3.75067 13.7969 3.75067H13.7525L13.7514 3.75065L13.7387 3.7504C13.7278 3.75022 13.7123 3.75004 13.6927 3.75001C13.6535 3.74994 13.5977 3.75044 13.5293 3.7527C13.3929 3.75721 13.2047 3.76875 12.9985 3.79711C12.7931 3.82536 12.5641 3.87105 12.3482 3.94591C12.1344 4.02002 11.9175 4.12812 11.7511 4.29042C11.4908 4.54427 11.2862 4.7878 11.1532 5.11512C11.0435 5.38496 10.9887 5.6963 10.9735 6.09428Z" fill="#4F5A7D" stroke="white" stroke-width="0.5"/>
</svg>
