<svg width="17" height="20" viewBox="0 0 17 20" fill="none" xmlns="http://www.w3.org/2000/svg">
<path d="M7.16651 8.97222L7.16656 8.97222C7.16677 8.97222 7.16692 8.97222 7.16703 8.97222H7.16651ZM7.16651 8.97222L7.16115 8.97211C7.15575 8.97197 7.14691 8.97165 7.13518 8.97097C7.11164 8.9696 7.07704 8.96677 7.03566 8.96097C6.95098 8.9491 6.84727 8.92607 6.75343 8.88376C6.65941 8.84138 6.59078 8.78684 6.55106 8.72006C6.51438 8.6584 6.48531 8.55805 6.52223 8.38572C6.52223 8.38571 6.52223 8.38571 6.52223 8.3857L7.18889 5.27461M7.16651 8.97222L7.18889 5.27461M7.18889 5.27461C7.18889 5.27461 7.18889 5.27461 7.18889 5.2746C7.27506 4.87255 7.41717 4.7083 7.5027 4.64178C7.54694 4.60737 7.58346 4.59313 7.60373 4.58722C7.61146 4.58497 7.6171 4.58385 7.62018 4.58333H9.37982C9.3829 4.58385 9.38854 4.58497 9.39627 4.58722C9.41654 4.59313 9.45306 4.60737 9.4973 4.64178C9.58283 4.7083 9.72495 4.87255 9.81111 5.27461L10.4778 8.3857L7.18889 5.27461ZM5.38863 13.0278C5.38876 13.0278 5.38889 13.0278 5.38889 12.7778V13.0278H11.6111V12.7778C11.6111 13.0278 11.6112 13.0278 11.6114 13.0278L11.6116 13.0278L11.6123 13.0278L11.6137 13.0278L11.6177 13.0277L11.6294 13.0274C11.6389 13.0271 11.6516 13.0265 11.6671 13.0254C11.6981 13.0232 11.7407 13.0189 11.7911 13.0105C11.8908 12.9939 12.0276 12.9602 12.1674 12.8903C12.3081 12.8199 12.4565 12.7104 12.5691 12.5415C12.6828 12.371 12.75 12.1549 12.75 11.8889V8.77778V8.7443L12.7412 8.712L11.4079 3.82312C11.2701 3.31791 11.0079 3.04023 10.7566 2.89475C10.6343 2.82394 10.5205 2.78789 10.4353 2.76951C10.3926 2.7603 10.3567 2.75544 10.3298 2.75287C10.3164 2.75159 10.3052 2.75087 10.2964 2.75047L10.2851 2.75009L10.281 2.75002L10.2792 2.75L10.2785 2.75L10.2781 2.75C10.2779 2.75 10.2778 2.75 10.2778 3V2.75H6.72222V3C6.72222 2.75 6.72206 2.75 6.72189 2.75L6.72154 2.75L6.72079 2.75L6.7191 2.75002L6.71496 2.75008L6.7037 2.75046C6.69492 2.75084 6.68358 2.75155 6.66999 2.75281C6.64284 2.75534 6.6064 2.76013 6.56308 2.76925C6.47667 2.78744 6.36096 2.82326 6.23708 2.89405C5.9824 3.03958 5.71893 3.31842 5.59146 3.8256L4.25881 8.712L4.25 8.7443V8.77778V11.8889C4.25 12.1549 4.31721 12.371 4.43088 12.5415C4.5435 12.7104 4.69187 12.8199 4.83264 12.8903C4.97243 12.9602 5.10919 12.9939 5.2089 13.0105C5.25935 13.0189 5.30193 13.0232 5.33288 13.0254C5.3484 13.0265 5.36112 13.0271 5.37058 13.0274L5.38231 13.0277L5.38626 13.0278L5.38774 13.0278L5.38836 13.0278L5.38863 13.0278ZM5.5 13.4167H5.32675L5.26592 13.5789L4.26592 16.2456L4.13925 16.5833H4.5H5.83333H6.00658L6.06742 16.4211L6.33992 15.6944H10.6601L10.9326 16.4211L10.9934 16.5833H11.1667H12.5H12.8608L12.7341 16.2456L11.7341 13.5789L11.6733 13.4167H11.5H10.1667H9.80592L9.93258 13.7544L10.1392 14.3056H6.86075L7.06742 13.7544L7.19408 13.4167H6.83333H5.5ZM6.27778 10.3611C6.63064 10.3611 6.91667 10.6471 6.91667 11C6.91667 11.3529 6.63064 11.6389 6.27778 11.6389C5.92492 11.6389 5.63889 11.3529 5.63889 11C5.63889 10.6471 5.92492 10.3611 6.27778 10.3611ZM10.7222 10.3611C11.0751 10.3611 11.3611 10.6471 11.3611 11C11.3611 11.3529 11.0751 11.6389 10.7222 11.6389C10.3694 11.6389 10.0833 11.3529 10.0833 11C10.0833 10.6471 10.3694 10.3611 10.7222 10.3611Z" fill="#4F5A7D" stroke="white" stroke-width="0.5"/>
</svg>
