<svg width="16" height="20" viewBox="0 0 16 20" fill="none" xmlns="http://www.w3.org/2000/svg">
<path d="M8.46436 3H7.54551M8.46436 3C8.46436 3 9.33333 3 9.33333 3.88889V6.30556H9.58333M8.46436 3V2.75H7.54551V3M8.46436 3C8.46436 2.75 8.46448 2.75 8.46462 2.75L8.4649 2.75L8.46552 2.75L8.46701 2.75001L8.47097 2.75006L8.48263 2.75036C8.49201 2.75068 8.50459 2.75128 8.51991 2.7524C8.55047 2.75463 8.59245 2.75897 8.64215 2.76744C8.74038 2.78419 8.87507 2.81815 9.01268 2.88853C9.1514 2.95948 9.29688 3.06953 9.407 3.2385C9.51796 3.40876 9.58333 3.62407 9.58333 3.88889V6.30556M7.54551 3L12 6.55556H11.75H9.58333V6.30556M7.54551 3L9.58333 9.47222M7.54551 3C7.54551 2.75 7.54539 2.75 7.54526 2.75L7.545 2.75L7.5444 2.75L7.54296 2.75001L7.53909 2.75006L7.52759 2.75034C7.51831 2.75064 7.50581 2.7512 7.49054 2.75225C7.46008 2.75435 7.41815 2.75844 7.36845 2.76645C7.27027 2.78225 7.13538 2.81434 6.99735 2.88102C6.85853 2.94808 6.71084 3.053 6.59822 3.21621C6.48422 3.38142 6.41667 3.59125 6.41667 3.84907V6.30556H4C3.86193 6.30556 3.75 6.41748 3.75 6.55556V9.22222C3.75 9.36029 3.86193 9.47222 4 9.47222H6.41667M7.54551 3L6.41667 9.47222M9.58333 6.30556H12C12.1381 6.30556 12.25 6.41748 12.25 6.55556V9.22222C12.25 9.36029 12.1381 9.47222 12 9.47222H9.58333M9.58333 9.47222V16.3333C9.58333 16.4714 9.4714 16.5833 9.33333 16.5833H6.66667C6.5286 16.5833 6.41667 16.4714 6.41667 16.3333V9.47222M9.58333 9.47222H6.41667" fill="#4F5A7D" stroke="white" stroke-width="0.5" stroke-linejoin="round"/>
</svg>
