<svg width="17" height="20" viewBox="0 0 17 20" fill="none" xmlns="http://www.w3.org/2000/svg">
<path d="M1.27565 10.6618L1.27567 10.6617L3.09467 3.93573L3.15965 3.69547L3.4002 3.75938L5.8352 4.40638L6.07789 4.47087L6.01233 4.71327L4.19348 11.4387C4.19345 11.4388 4.19342 11.4389 4.1934 11.439L4.19333 11.4393L1.27565 10.6618ZM1.27565 10.6618C1.23885 10.798 1.24144 10.9419 1.28312 11.0767L1.27565 10.6618ZM7.88749 5.117C7.31229 5.11712 6.74957 5.32133 6.30414 5.71206L6.24741 5.76183L6.22769 5.83468L5.33869 9.11868L5.32372 9.17395L5.33431 9.23023C5.5405 10.3261 6.10091 11.3707 6.7903 12.1176C7.4691 12.853 8.32843 13.3552 9.13788 13.2311L9.13792 13.2314L9.14923 13.2291C9.26058 13.2067 9.36785 13.1675 9.46735 13.1128C9.63265 13.0287 9.8155 12.9849 10.001 12.9849C10.1865 12.9849 10.3694 13.0287 10.5347 13.1128C10.6361 13.1686 10.7456 13.2082 10.8592 13.2304L10.8591 13.2306L10.87 13.2322C11.4489 13.3189 12.0518 13.0835 12.5863 12.6851C13.1249 12.2837 13.6227 11.6968 14.0041 11.0197C14.7619 9.67408 15.0963 7.89777 14.2682 6.44424L14.268 6.44393C13.8163 5.65368 12.8604 5.11719 12.0014 5.117M7.88749 5.117C8.49734 5.1146 9.09303 5.30063 9.59311 5.64962C9.71225 5.72905 9.85253 5.77084 9.99575 5.76952C10.1386 5.76821 10.2778 5.72406 10.3953 5.64281C10.8602 5.29944 11.4234 5.11503 12.0014 5.117M7.88749 5.117C7.88732 5.117 7.88714 5.117 7.88697 5.117L7.888 5.367V5.117C7.88783 5.117 7.88766 5.117 7.88749 5.117ZM12.0014 5.117C12.0013 5.117 12.0012 5.117 12.001 5.117V5.367L12.0019 5.117C12.0017 5.117 12.0016 5.117 12.0014 5.117ZM5.97783 3.88862L6.21825 3.95248L6.2833 3.71238L6.7233 2.08838L6.72345 2.08782C6.74905 1.99248 6.75557 1.89302 6.74264 1.79515C6.72971 1.69729 6.69759 1.60293 6.64812 1.5175C6.59865 1.43208 6.5328 1.35726 6.45435 1.29734C6.37603 1.23752 6.28669 1.19372 6.19143 1.16845C6.19127 1.1684 6.19111 1.16836 6.19095 1.16832L4.73212 0.776631L4.667 1.018L4.73183 0.776553L4.73198 0.776594C4.53974 0.724769 4.33481 0.75098 4.16179 0.849524C3.98874 0.948092 3.86164 1.11104 3.80818 1.30289L3.80817 1.30289L3.80775 1.30443L3.36475 2.93443L3.29881 3.17708L3.54183 3.24162L5.97783 3.88862ZM10.5 5.25H10.75V5C10.75 3.86115 10.5634 3.02236 10.0205 2.47947C9.47764 1.93658 8.63885 1.75 7.5 1.75H7.25V2C7.25 3.13885 7.43658 3.97764 7.97947 4.52053C8.52236 5.06342 9.36115 5.25 10.5 5.25Z" fill="#4F5A7D" stroke="white" stroke-width="0.5"/>
</svg>
