<svg width="17" height="20" viewBox="0 0 17 20" fill="none" xmlns="http://www.w3.org/2000/svg">
<path d="M14.036 7.54261V7.54263C14.106 7.54364 14.1758 7.55474 14.2431 7.57595L14.036 7.54261ZM14.036 7.54261H14.0324M14.036 7.54261H14.0324M14.0324 7.54261H12.5089L12.1741 5.54214L12.1744 5.54208M14.0324 7.54261L12.1744 5.54208M12.1744 5.54208L12.1715 5.52902M12.1744 5.54208L12.1715 5.52902M12.1715 5.52902C12 4.75979 11.4207 4.14654 10.6629 3.9313C10.3097 3.81813 9.94209 3.75712 9.57135 3.75005L9.57135 3.75M12.1715 5.52902L9.57135 3.75M9.57135 3.75H9.56658M9.57135 3.75H9.56658M9.56658 3.75H7.44272V3.74995M9.56658 3.75L7.44272 3.74995M7.44272 3.74995L7.43796 3.75005M7.44272 3.74995L7.43796 3.75005M7.43796 3.75005C7.06722 3.75712 6.69958 3.81813 6.34646 3.9313C5.58856 4.14654 5.00929 4.75979 4.83782 5.52902L4.83747 5.52894M7.43796 3.75005L4.83747 5.52894M4.83747 5.52894L4.83526 5.54214M4.83747 5.52894L4.83526 5.54214M4.83526 5.54214L4.50041 7.54261M4.83526 5.54214L4.50041 7.54261M2.25001 8.26239L2.25001 8.2623C2.25247 7.86271 2.57808 7.54061 2.97761 7.54261M2.25001 8.26239L2.97847 7.54261C2.97818 7.54261 2.9779 7.54261 2.97761 7.54261M2.25001 8.26239C2.24958 8.3366 2.26049 8.41068 2.28274 8.48203L4.06478 14.4538L4.06475 14.4538M2.25001 8.26239L4.06475 14.4538M2.97761 7.54261H4.50041M2.97761 7.54261H4.50041M4.06475 14.4538L4.06585 14.4573M4.06475 14.4538L4.06585 14.4573M4.06585 14.4573C4.28481 15.1536 4.93018 15.6274 5.66005 15.6278H5.6602M4.06585 14.4573L5.6602 15.6278M5.6602 15.6278L11.3491 15.6278L11.3509 15.6278M5.6602 15.6278L11.3509 15.6278M11.3509 15.6278C12.0767 15.6226 12.7163 15.1497 12.934 14.4573L12.934 14.4573M11.3509 15.6278L12.934 14.4573M12.934 14.4573L12.935 14.4538M12.934 14.4573L12.935 14.4538M12.935 14.4538L14.7171 8.482M12.935 14.4538L14.7171 8.482M14.7171 8.482C14.8358 8.1011 14.6239 7.69586 14.2432 7.57599L14.7171 8.482ZM6.76286 5.31807L6.78035 5.31518L6.79725 5.30986C7.00784 5.24351 7.22634 5.20596 7.44704 5.19815H9.56277C9.78648 5.20516 10.0082 5.24272 10.2216 5.30989L10.2385 5.31519L10.2559 5.31807C10.5005 5.35845 10.6964 5.54201 10.7528 5.78285L11.0366 7.54261H5.97405L6.26591 5.78335C6.32215 5.54226 6.51814 5.35848 6.76286 5.31807Z" fill="#4F5A7D" stroke="white" stroke-width="0.5"/>
</svg>
