<svg width="16" height="20" viewBox="0 0 16 20" fill="none" xmlns="http://www.w3.org/2000/svg">
<circle cx="8" cy="10" r="7.5" fill="#4F5A7D" stroke="white"/>
<path d="M12 7.46154H9.53846V9.57846C9.53846 9.57846 9.53846 9.57846 9.53846 9.61538C9.54031 10.1751 9.91957 10.6631 10.4615 10.8031V13H10.1538C9.98394 13 9.84615 13.1378 9.84615 13.3077C9.84615 13.4776 9.98394 13.6154 10.1538 13.6154H11.3846C11.5545 13.6154 11.6923 13.4776 11.6923 13.3077C11.6923 13.1378 11.5545 13 11.3846 13H11.0769V10.8031C11.6189 10.6631 11.9982 10.1751 12 9.61538C12 9.61538 12 9.61538 12 9.57846V7.46154ZM11.3846 9.61538C11.3846 9.95526 11.1091 10.2308 10.7692 10.2308C10.4294 10.2308 10.1538 9.95526 10.1538 9.61538V8.07692H11.3846V9.61538ZM6.76923 6.53846V6.23077C6.93914 6.23077 7.07692 6.09298 7.07692 5.92308C7.07692 5.75317 6.93914 5.61538 6.76923 5.61538V5.30769C6.76923 5.13778 6.63145 5 6.46154 5H5.84615C5.67625 5 5.53846 5.13778 5.53846 5.30769V5.61538C5.36855 5.61538 5.23077 5.75317 5.23077 5.92308C5.23077 6.09298 5.36855 6.23077 5.53846 6.23077V6.53846C5.53846 7.41846 4 8.42769 4 9.30769V13C4 13.3399 4.27551 13.6154 4.61538 13.6154H7.69231C8.01957 13.5868 8.27908 13.3273 8.30769 13V9.30769C8.30769 8.47692 6.76923 7.36923 6.76923 6.53846ZM6.15385 12.3846C5.30418 12.3846 4.61538 11.6958 4.61538 10.8462C4.61538 9.99649 5.30418 9.30769 6.15385 9.30769C7.00351 9.30769 7.69231 9.99649 7.69231 10.8462C7.69231 11.6958 7.00351 12.3846 6.15385 12.3846Z" fill="white"/>
</svg>
