<svg width="16" height="20" viewBox="0 0 16 20" fill="none" xmlns="http://www.w3.org/2000/svg">
<circle cx="8" cy="10" r="7.5" fill="#4F5A7D" stroke="white"/>
<path d="M6.52933 7.92133L7 11.3333C6.99809 11.4214 7.01403 11.509 7.04686 11.5907C7.07968 11.6724 7.12872 11.7467 7.19101 11.809C7.2533 11.8713 7.32755 11.9203 7.4093 11.9531C7.49105 11.986 7.5786 12.0019 7.66667 12H8.33333C8.4214 12.0019 8.50895 11.986 8.5907 11.9531C8.67245 11.9203 8.7467 11.8713 8.80899 11.809C8.87128 11.7467 8.92032 11.6724 8.95315 11.5907C8.98597 11.509 9.00191 11.4214 9 11.3333L9.47067 7.92133C9.47067 7 8 7 8 7C8 7 6.52733 7 6.52933 7.92133ZM5.33333 8.33333C4.33333 8.33333 4.33333 9 4.33333 9L5 11.6667H6C6.13715 11.6669 6.26904 11.6139 6.3678 11.5187C6.46657 11.4236 6.52449 11.2937 6.52933 11.1567L6 8.33333H5.33333ZM4 10C3.73817 9.99774 3.48546 10.0961 3.294 10.2747C3.12621 10.4272 3.02137 10.6369 3 10.8627V12.3333H3.588C3.68152 12.3424 3.7759 12.3319 3.86518 12.3027C3.95447 12.2734 4.03672 12.226 4.10675 12.1633C4.17678 12.1007 4.23307 12.0242 4.27207 11.9387C4.31107 11.8532 4.33193 11.7606 4.33333 11.6667L4 10ZM10.6667 8.33333C11.6667 8.33333 11.6667 9 11.6667 9L11 11.6667H10C9.86285 11.6669 9.73096 11.6139 9.6322 11.5187C9.53343 11.4236 9.47551 11.2937 9.47067 11.1567L10 8.33333H10.6667ZM12 10C12.2618 9.99774 12.5145 10.0961 12.706 10.2747C12.8738 10.4272 12.9786 10.6369 13 10.8627V12.3333H12.412C12.3185 12.3424 12.2241 12.3319 12.1348 12.3027C12.0455 12.2734 11.9633 12.226 11.8932 12.1633C11.8232 12.1007 11.7669 12.0242 11.7279 11.9387C11.6889 11.8532 11.6681 11.7606 11.6667 11.6667L12 10Z" fill="white"/>
</svg>
