<svg width="16" height="20" viewBox="0 0 16 20" fill="none" xmlns="http://www.w3.org/2000/svg">
<circle cx="8" cy="10" r="7.5" fill="#4F5A7D" stroke="white"/>
<path d="M11.3333 7.81481V5.7037C11.3333 5.7037 10.6296 5 8.16667 5C5.7037 5 5 5.7037 5 5.7037V7.81481C5.02027 8.79402 5.26079 9.75605 5.7037 10.6296C6.14387 11.6393 6.14387 12.7866 5.7037 13.7963C5.7037 13.7963 5.7037 14.5 8.16667 14.5C10.6296 14.5 10.6296 13.7963 10.6296 13.7963C10.1895 12.7866 10.1895 11.6393 10.6296 10.6296C11.0725 9.75605 11.3131 8.79402 11.3333 7.81481ZM8.16667 13.7963C7.6061 13.8209 7.04517 13.7544 6.50593 13.5993C6.64878 13.0909 6.71985 12.5651 6.71704 12.037H9.6163C9.61348 12.5651 9.68456 13.0909 9.82741 13.5993C9.28816 13.7544 8.72724 13.8209 8.16667 13.7963ZM8.16667 7.81481C7.33179 7.83586 6.49931 7.71693 5.7037 7.46296V6.05556C6.49959 5.803 7.33186 5.68414 8.16667 5.7037C9.00147 5.68414 9.83374 5.803 10.6296 6.05556V7.46296C9.83402 7.71693 9.00154 7.83586 8.16667 7.81481Z" fill="white"/>
</svg>
