<svg width="16" height="20" viewBox="0 0 16 20" fill="none" xmlns="http://www.w3.org/2000/svg">
<circle cx="8" cy="10" r="7.5" fill="#4F5A7D" stroke="white"/>
<path d="M4 6.45455C4 5.65455 4.65455 5 5.45455 5H10.5455C11.3455 5 12 5.65455 12 6.45455V12.2727C12 13 11.2727 13 11.2727 13V13.7273C11.2727 14.1273 10.9455 14.4545 10.5455 14.4545C10.1455 14.4545 9.81818 14.1273 9.81818 13.7273V13H6.18182V13.7273C6.18182 14.1273 5.85455 14.4545 5.45455 14.4545C5.05455 14.4545 4.72727 14.1273 4.72727 13.7273V13C4 13 4 12.2727 4 12.2727V6.45455ZM5.09091 7.18182C4.88727 7.18182 4.72727 7.34182 4.72727 7.54545V9.72727C4.72727 9.93091 4.88727 10.0909 5.09091 10.0909H10.9091C11.1127 10.0909 11.2727 9.93091 11.2727 9.72727V7.54545C11.2727 7.34182 11.1127 7.18182 10.9091 7.18182H5.09091ZM5.45455 10.8182C5.05455 10.8182 4.72727 11.1455 4.72727 11.5455C4.72727 11.9455 5.05455 12.2727 5.45455 12.2727C5.85455 12.2727 6.18182 11.9455 6.18182 11.5455C6.18182 11.1455 5.85455 10.8182 5.45455 10.8182ZM10.5455 10.8182C10.1455 10.8182 9.81818 11.1455 9.81818 11.5455C9.81818 11.9455 10.1455 12.2727 10.5455 12.2727C10.9455 12.2727 11.2727 11.9455 11.2727 11.5455C11.2727 11.1455 10.9455 10.8182 10.5455 10.8182ZM5.45455 6.09091C5.45455 6.29455 5.61455 6.45455 5.81818 6.45455H10.1818C10.3855 6.45455 10.5455 6.29455 10.5455 6.09091C10.5455 5.88727 10.3855 5.72727 10.1818 5.72727H5.81818C5.61455 5.72727 5.45455 5.88727 5.45455 6.09091Z" fill="white"/>
</svg>
