<svg width="16" height="20" viewBox="0 0 16 20" fill="none" xmlns="http://www.w3.org/2000/svg">
<circle cx="8" cy="10" r="7.5" fill="#4F5A7D" stroke="white"/>
<path d="M5.1813 7.72748C5.68607 7.72748 6.12679 7.45323 6.36259 7.04561H11.3181C11.6947 7.04561 12 6.74032 12 6.36374C12 5.98716 11.6947 5.68187 11.3181 5.68187H6.36259C6.12679 5.27425 5.68607 5 5.1813 5C4.67652 5 4.2358 5.27425 4 5.68187H5.1813V7.04561H4C4.2358 7.45323 4.67652 7.72748 5.1813 7.72748ZM4.59929 10.696C4.53535 10.76 4.49943 10.8467 4.49943 10.9371V13.5234C4.49943 13.7116 4.65207 13.8643 4.84036 13.8643H5.86317C6.05146 13.8643 6.2041 13.7116 6.2041 13.5234V13.1824H10.2953V13.5234C10.2953 13.7116 10.448 13.8643 10.6363 13.8643H11.6591C11.8473 13.8643 12 13.7116 12 13.5234V10.9371C12 10.8467 11.9641 10.76 11.9002 10.696L11.3181 10.114L10.3946 8.57487C10.333 8.47218 10.222 8.40935 10.1023 8.40935H6.39713C6.27738 8.40935 6.1664 8.47218 6.10479 8.57487L5.1813 10.114L4.59929 10.696ZM10.7275 10.455H5.77195L6.59017 9.09122H9.90926L10.7275 10.455ZM6.88597 11.7014V11.9551C6.88597 12.0681 6.79439 12.1596 6.68141 12.1596H5.38586C5.27288 12.1596 5.1813 12.0681 5.1813 11.9551V11.3863C5.1813 11.2572 5.2994 11.1604 5.42597 11.1858L6.66671 11.4339C6.7942 11.4594 6.88597 11.5713 6.88597 11.7014ZM11.3181 11.4695V11.9551C11.3181 12.0681 11.2266 12.1596 11.1136 12.1596H9.81802C9.70504 12.1596 9.61345 12.0681 9.61345 11.9551V11.6454C9.61345 11.5479 9.68228 11.464 9.77789 11.4449L10.9919 11.2021C11.1607 11.1683 11.3181 11.2974 11.3181 11.4695Z" fill="white"/>
</svg>
