<svg width="16" height="20" viewBox="0 0 16 20" fill="none" xmlns="http://www.w3.org/2000/svg">
<circle cx="8" cy="10" r="7.5" fill="#4F5A7D" stroke="white"/>
<path d="M12.8769 8.96307L11.9231 8.07692L11.0769 6.38461C11.0043 6.26645 10.9024 6.16899 10.7811 6.10163C10.6599 6.03426 10.5233 5.99926 10.3846 6H5.61538C5.47667 5.99926 5.34011 6.03426 5.21886 6.10163C5.0976 6.16899 4.99573 6.26645 4.92308 6.38461L4.07692 8.07692L3.12308 8.96307C3.08422 8.99911 3.05323 9.04279 3.03205 9.09137C3.01087 9.13995 2.99996 9.19238 3 9.24538V12.5385C3 12.6405 3.04052 12.7383 3.11265 12.8104C3.18478 12.8826 3.28261 12.9231 3.38462 12.9231H4.92308C5.07692 12.9231 5.30769 12.7692 5.30769 12.6154V12.1538H10.6923V12.5385C10.6923 12.6923 10.8462 12.9231 11 12.9231H12.6154C12.7174 12.9231 12.8152 12.8826 12.8873 12.8104C12.9595 12.7383 13 12.6405 13 12.5385V9.24538C13 9.19238 12.9891 9.13995 12.968 9.09137C12.9468 9.04279 12.9158 8.99911 12.8769 8.96307ZM5.69231 6.76923H10.3077L11.0769 8.30769H4.92308L5.69231 6.76923ZM6.07692 10.3077C6.07692 10.4615 5.84615 10.6154 5.69231 10.6154H4.07692C3.92308 10.6154 3.76923 10.3846 3.76923 10.2308V9.38461C3.84615 9.15384 4 9 4.23077 9.07692L5.76923 9.38461C5.92308 9.38461 6.07692 9.61538 6.07692 9.76923V10.3077ZM12.2308 10.2308C12.2308 10.3846 12.0769 10.6154 11.9231 10.6154H10.3077C10.1538 10.6154 9.92308 10.4615 9.92308 10.3077V9.76923C9.92308 9.61538 10.0769 9.38461 10.2308 9.38461L11.7692 9.07692C12 9 12.1538 9.15384 12.2308 9.38461V10.2308Z" fill="white"/>
</svg>
