<svg width="16" height="20" viewBox="0 0 16 20" fill="none" xmlns="http://www.w3.org/2000/svg">
<circle cx="8" cy="10" r="7.5" fill="#4F5A7D" stroke="white"/>
<path d="M13 10.361C13 13.3701 11.0091 15.8156 8 15.8156C4.99091 15.8156 3 13.3701 3 10.361C5.05845 10.3784 6.88127 11.6944 7.54545 13.6428V9.45193H5.27273C4.51964 9.45193 3.90909 8.84139 3.90909 8.0883V5.36102C3.90909 5.11002 4.11264 4.90648 4.36364 4.90648C4.50673 4.90648 4.64145 4.97384 4.72727 5.0883L6.11818 6.90648L7.61818 4.17921C7.75436 3.9683 8.03573 3.90784 8.24664 4.04403C8.30073 4.07903 8.34682 4.12503 8.38182 4.17921L9.88182 6.90648L11.2727 5.0883C11.4234 4.88748 11.7083 4.84675 11.9091 4.99739C12.0235 5.08321 12.0909 5.21793 12.0909 5.36102V8.0883C12.0909 8.84139 11.4804 9.45193 10.7273 9.45193H8.45455V13.6428C9.11873 11.6944 10.9415 10.3784 13 10.361Z" fill="white"/>
</svg>
