<svg width="16" height="20" viewBox="0 0 16 20" fill="none" xmlns="http://www.w3.org/2000/svg">
<circle cx="8" cy="10" r="7.5" fill="#4F5A7D" stroke="white"/>
<path d="M12.3744 5.00056C12.3744 5.00056 11.2882 4.96838 10.8547 5.39116C10.438 5.79754 10.2658 6.10807 10.2658 6.95357H3L4.08941 10.7146C4.09215 10.7203 4.09712 10.7258 4.10009 10.7314C4.28321 11.2449 4.76187 11.6147 5.33293 11.6362C5.33527 11.6372 5.34361 11.6408 5.34361 11.6408H10.4214V11.7964C10.4214 11.7964 10.422 12.0317 10.2658 12.3442C10.1096 12.6566 10.0317 12.8126 9.40677 12.8126H4.32896C3.54776 12.8126 3.54776 13.9844 4.32896 13.9844H5.26579H5.34361H9.1718H9.24962H9.32896C10.2664 13.9844 10.9683 13.4372 11.2026 12.8904C11.437 12.3436 11.4376 11.8758 11.4376 11.8758V11.6408V6.95357C11.4376 6.54453 11.6162 6.17237 11.9838 6.17237H12.4141C12.7377 6.17237 13 5.91004 13 5.58646C13 5.26289 12.7377 5.00056 12.4141 5.00056H12.3744ZM9.24962 13.9844C8.7809 13.9844 8.46842 14.2969 8.46842 14.7656C8.46842 15.2343 8.7809 15.5468 9.24962 15.5468C9.71834 15.5468 10.0308 15.2343 10.0308 14.7656C10.0308 14.2969 9.71834 13.9844 9.24962 13.9844ZM5.34361 13.9844C4.87489 13.9844 4.5624 14.2969 4.5624 14.7656C4.5624 15.2343 4.87489 15.5468 5.34361 15.5468C5.81233 15.5468 6.12481 15.2343 6.12481 14.7656C6.12481 14.2969 5.81233 13.9844 5.34361 13.9844Z" fill="white"/>
</svg>
