<svg width="16" height="20" viewBox="0 0 16 20" fill="none" xmlns="http://www.w3.org/2000/svg">
<circle cx="8" cy="10" r="7.5" fill="#4F5A7D" stroke="white"/>
<path d="M13.9091 6.72727C13.9091 6.72727 12.4545 6.29091 11.3636 7.09091L8.23636 9.27273C7.65455 8.83636 6.78182 8.32727 5.90909 8.03636V7.45455C5.90909 6.65455 5.25455 6 4.45455 6C3.65455 6 3 6.65455 3 7.45455V8.54545C3 8.90909 3.36364 8.90909 3.36364 8.90909H4.45455H4.81818C6.27273 8.90909 7.36364 10 7.36364 10C7.36364 10 6.27273 11.0909 4.81818 11.0909H4.45455H3.36364C3.36364 11.0909 3 11.0909 3 11.4545V12.5455C3 13.3455 3.65455 14 4.45455 14C5.25455 14 5.90909 13.3455 5.90909 12.5455V11.9636C6.78182 11.6727 7.65455 11.1636 8.23636 10.7273L11.3636 12.9091C12.4545 13.7091 13.9091 13.2727 13.9091 13.2727L9.18182 10L13.9091 6.72727ZM5.18182 8.18182H4.45455H3.72727V7.45455C3.72727 7.01818 4.01818 6.72727 4.45455 6.72727C4.89091 6.72727 5.18182 7.01818 5.18182 7.45455V8.18182ZM5.18182 12.5455C5.18182 12.9818 4.89091 13.2727 4.45455 13.2727C4.01818 13.2727 3.72727 12.9818 3.72727 12.5455V11.8182H4.45455H5.18182V12.5455ZM8.27273 10.3636C8.07193 10.3636 7.90909 10.2008 7.90909 10C7.90909 9.7992 8.07193 9.63636 8.27273 9.63636C8.47353 9.63636 8.63636 9.7992 8.63636 10C8.63636 10.2008 8.47353 10.3636 8.27273 10.3636Z" fill="white"/>
</svg>
