<svg width="16" height="20" viewBox="0 0 16 20" fill="none" xmlns="http://www.w3.org/2000/svg">
<circle cx="8" cy="10" r="7.5" fill="#4F5A7D" stroke="white"/>
<path d="M3.7692 14.808C3.7692 14.9142 3.85532 15.0003 3.96155 15.0003H6.84597V12.6922H9.15413V15.0003H12.0386C12.1448 15.0003 12.2309 14.9142 12.2309 14.808V10.3847H3.7692V14.808ZM12.948 9.29148L12.231 8.66143V5.76939C12.231 5.34447 11.8865 5 11.4616 5C11.0367 5 10.6922 5.34447 10.6922 5.76939V7.30816L8.13992 5.06924C8.06722 4.99208 7.94578 4.98829 7.86841 5.06078L7.85994 5.06924L3.05198 9.2724C2.97935 9.34992 2.98332 9.47164 3.06084 9.54427C3.09582 9.57704 3.14177 9.59557 3.1897 9.59623L4.53858 9.61547H12.807C12.9132 9.61582 12.9996 9.52999 13 9.42376C13.0002 9.37466 12.9815 9.32729 12.948 9.29148Z" fill="white"/>
</svg>
