<svg width="16" height="20" viewBox="0 0 16 20" fill="none" xmlns="http://www.w3.org/2000/svg">
<circle cx="8" cy="10" r="7.5" fill="#4F5A7D" stroke="white"/>
<path d="M7.00265 5.66711C7.00265 5.53517 7.04178 5.40619 7.11508 5.29648C7.18838 5.18678 7.29257 5.10127 7.41447 5.05078C7.53637 5.00029 7.6705 4.98708 7.79991 5.01282C7.92931 5.03856 8.04818 5.1021 8.14148 5.19539C8.23478 5.28869 8.29831 5.40756 8.32405 5.53696C8.34979 5.66637 8.33658 5.8005 8.28609 5.9224C8.2356 6.0443 8.15009 6.14849 8.04039 6.22179C7.93068 6.29509 7.8017 6.33422 7.66976 6.33422C7.49283 6.33422 7.32315 6.26393 7.19804 6.13883C7.07294 6.01372 7.00265 5.84404 7.00265 5.66711ZM8.33687 7.33488C8.33764 7.322 8.33764 7.30907 8.33687 7.29619C8.33172 7.21286 8.29369 7.13499 8.23114 7.0797C8.16859 7.02441 8.08664 6.99622 8.00332 7.00133H7.33621C7.32332 7.00055 7.3104 7.00055 7.29751 7.00133C7.21419 7.00648 7.13632 7.04451 7.08102 7.10706C7.02573 7.16961 6.99754 7.25155 7.00265 7.33488V9.66976H8.33687V7.33488ZM12.9066 9.76583L11.539 8.20212L11.5957 7.86256C11.5984 7.84869 11.6002 7.83465 11.601 7.82054C11.601 7.7763 11.5835 7.73388 11.5522 7.70261C11.5209 7.67133 11.4785 7.65376 11.4343 7.65376C11.3966 7.65738 11.3604 7.67021 11.3289 7.69112L9.00398 9.66976H8.33687L9.00398 10.3369V11.3375C9.00398 11.426 8.96884 11.5108 8.90628 11.5734C8.84373 11.6359 8.75889 11.6711 8.67042 11.6711C8.58196 11.6711 8.49712 11.6359 8.43457 11.5734C8.37201 11.5108 8.33687 11.426 8.33687 11.3375V10.6704L7.00265 9.66976H5.66844C5.50469 9.66981 5.34346 9.71004 5.19888 9.78692C5.05431 9.8638 4.93081 9.97498 4.83922 10.1107C4.75216 9.97814 4.63416 9.86872 4.4954 9.7919C4.35663 9.71508 4.20126 9.67316 4.04269 9.66976H4.00066C3.87359 9.66522 3.74688 9.68579 3.62777 9.73029C3.50866 9.77479 3.39951 9.84236 3.30655 9.92912C3.2136 10.0159 3.13867 10.1201 3.08607 10.2359C3.03347 10.3516 3.00422 10.4766 3 10.6037V10.6611C3.00782 11.1124 3.1366 11.5534 3.37291 11.9379C3.38864 11.957 3.40801 11.9727 3.42989 11.9841C3.45177 11.9956 3.47572 12.0026 3.50033 12.0046C3.54456 12.0046 3.58698 11.9871 3.61826 11.9558C3.64954 11.9245 3.66711 11.8821 3.66711 11.8379V11.004C3.66711 11.004 3.65377 10.3876 4.16944 10.3369C4.503 10.3048 4.66777 10.5056 4.66777 10.6704V12.3382L4.33422 13.6724V14.8399C4.33422 14.8841 4.35179 14.9265 4.38307 14.9578C4.41434 14.9891 4.45676 15.0066 4.50099 15.0066C4.54325 15.0061 4.58379 14.9898 4.61464 14.9609C4.6455 14.932 4.66445 14.8927 4.66777 14.8505V13.6724L5.66844 12.3382V13.0053L6.00199 14.8732C6.01027 14.9107 6.03099 14.9443 6.06079 14.9685C6.09058 14.9928 6.1277 15.0062 6.1661 15.0066C6.188 15.007 6.20976 15.003 6.23013 14.995C6.2505 14.9869 6.26908 14.9749 6.28482 14.9597C6.30055 14.9444 6.31313 14.9262 6.32183 14.9061C6.33054 14.886 6.3352 14.8644 6.33554 14.8425L6.23881 13.2054L6.6691 12.3382H8.33687V13.0053L8.67576 14.8819C8.68576 14.9172 8.70684 14.9484 8.73591 14.9709C8.76497 14.9933 8.80048 15.0059 8.8372 15.0066C8.88143 15.0066 8.92385 14.9891 8.95513 14.9578C8.98641 14.9265 9.00398 14.8841 9.00398 14.8399V13.0053L9.24881 12.3382C9.41387 12.2528 9.54252 12.1107 9.61105 11.9379L11.0527 9.42493C11.1177 9.54174 11.2214 9.63226 11.346 9.68095C11.4705 9.72964 11.6081 9.73347 11.7351 9.69178L12.4463 10.2375C12.5122 10.2921 12.5942 10.3237 12.6797 10.3275C12.7554 10.3269 12.8284 10.2999 12.8862 10.2512C12.9441 10.2025 12.9831 10.1351 12.9966 10.0607C13.0038 10.008 12.9995 9.95428 12.9839 9.90338C12.9684 9.85247 12.942 9.80555 12.9066 9.76583Z" fill="white"/>
</svg>
