<svg width="16" height="20" viewBox="0 0 16 20" fill="none" xmlns="http://www.w3.org/2000/svg">
<circle cx="8" cy="10" r="7.5" fill="#4F5A7D" stroke="white"/>
<path d="M7.53846 4C6.98462 4 6.61538 4.36923 6.61538 4.92308V8.61538H2.92308C2.36923 8.61538 2 8.98462 2 9.53846V10.4615C2 11.0154 2.36923 11.3846 2.92308 11.3846H6.61538V15.0769C6.61538 15.6308 6.98462 16 7.53846 16H8.46154C9.01538 16 9.38462 15.6308 9.38462 15.0769V11.3846H13.0769C13.6308 11.3846 14 11.0154 14 10.4615V9.53846C14 8.98462 13.6308 8.61538 13.0769 8.61538H9.38462V4.92308C9.38462 4.36923 9.01538 4 8.46154 4H7.53846Z" fill="white"/>
</svg>
