<svg width="16" height="20" viewBox="0 0 16 20" fill="none" xmlns="http://www.w3.org/2000/svg">
<circle cx="8" cy="10" r="7.5" fill="#4F5A7D" stroke="white"/>
<path d="M11.9376 7.6689L11.6538 7.38511L11.7923 7.1913C11.8061 7.17054 11.82 7.15669 11.8338 7.13593C11.9427 7.01156 12.0019 6.85134 11.9999 6.68602C11.9981 6.55685 11.9601 6.43078 11.8903 6.32208C11.8205 6.21338 11.7216 6.12638 11.605 6.07092C11.4883 6.01547 11.3584 5.99377 11.2301 6.00828C11.1017 6.02279 10.98 6.07294 10.8786 6.15305C10.8578 6.16689 10.8371 6.18766 10.8163 6.2015L10.6156 6.34686L10.3484 6.07968C10.3047 6.03189 10.2439 6.00334 10.1792 6.00027C10.1145 5.99721 10.0512 6.01988 10.0032 6.06333C9.95517 6.10678 9.9263 6.16747 9.92289 6.23215C9.91949 6.29682 9.94182 6.36021 9.98502 6.40846L10.2737 6.69709L9.92757 7.04318L9.65624 6.77185C9.61254 6.72406 9.55169 6.69551 9.487 6.69244C9.42231 6.68938 9.35904 6.71205 9.31102 6.7555C9.263 6.79895 9.23413 6.85964 9.23072 6.92432C9.22732 6.98899 9.24965 7.05238 9.29285 7.10063L9.57733 7.38511L9.23125 7.7312L8.96753 7.46748C8.94608 7.44348 8.92011 7.42395 8.89111 7.40998C8.86211 7.39602 8.83064 7.38791 8.7985 7.38611C8.7336 7.38248 8.66991 7.40477 8.62144 7.4481C8.57298 7.49142 8.54371 7.55222 8.54008 7.61713C8.53644 7.68203 8.55874 7.74572 8.60206 7.79418L8.62144 7.81356L8.88516 8.07728L8.53908 8.42336L8.26567 8.14996C8.22069 8.10525 8.16013 8.07972 8.09673 8.07874C8.03332 8.07776 7.972 8.1014 7.92566 8.14469C7.87932 8.18798 7.85157 8.24756 7.84824 8.31089C7.84491 8.37421 7.86627 8.43637 7.90782 8.48428L8.19299 8.76945L7.84691 9.11553L7.59426 8.86289C7.55397 8.81186 7.49505 8.77892 7.43047 8.77133C7.36589 8.76373 7.30094 8.78211 7.24991 8.8224C7.19888 8.8627 7.16594 8.92161 7.15835 8.98619C7.15075 9.05077 7.16912 9.11572 7.20942 9.16676C7.22395 9.18475 7.50636 9.46162 7.50636 9.46162L7.15474 9.8077L6.88202 9.53637C6.83565 9.49328 6.77568 9.46775 6.71248 9.46422C6.64928 9.46068 6.58683 9.47935 6.53594 9.51699C6.49183 9.56282 6.46562 9.62294 6.46207 9.68644C6.45851 9.74994 6.47784 9.81261 6.51656 9.86308L6.53178 9.87692L6.80865 10.1538L6.46257 10.4999L6.1857 10.223C6.13847 10.1797 6.07672 10.1557 6.01266 10.1557C5.94859 10.1557 5.88685 10.1797 5.83961 10.223L6.63422 11.0148L10.6779 6.97673L10.9617 6.69294H11.3078V7.03903L11.024 7.32281L6.98239 11.3644L7.77769 12.1611C7.82334 12.1151 7.84895 12.0529 7.84895 11.988C7.84895 11.9232 7.82334 11.861 7.77769 11.815L7.77215 11.8088L7.50082 11.5381L7.84691 11.192L8.1127 11.4578C8.15602 11.5063 8.21682 11.5356 8.28173 11.5392C8.34663 11.5428 8.41032 11.5205 8.45878 11.4772C8.50725 11.4339 8.53652 11.3731 8.54015 11.3082C8.54379 11.2433 8.52149 11.1796 8.47817 11.1311L8.19299 10.846L8.53908 10.4999L8.8021 10.7629C8.84542 10.8114 8.90623 10.8406 8.97113 10.8443C9.03603 10.8479 9.09972 10.8256 9.14819 10.7823C9.19665 10.739 9.22592 10.6782 9.22955 10.6133C9.23319 10.5483 9.21089 10.4847 9.16757 10.4362L9.15372 10.4224L8.88516 10.1538L9.23125 9.8077L9.49219 10.0687C9.51468 10.095 9.54256 10.1163 9.57397 10.131C9.60537 10.1457 9.63957 10.1535 9.67424 10.1538C9.72324 10.1559 9.77172 10.1429 9.81315 10.1167C9.85458 10.0904 9.88696 10.0521 9.90596 10.0068C9.92496 9.96161 9.92965 9.91165 9.9194 9.86367C9.90916 9.8157 9.88447 9.77201 9.84866 9.73849L9.57733 9.46162L9.92342 9.11553L10.1864 9.37856C10.2298 9.42702 10.2906 9.45629 10.3555 9.45993C10.4204 9.46356 10.4841 9.44126 10.5325 9.39794C10.581 9.35462 10.6103 9.29381 10.6139 9.22891C10.6175 9.16401 10.5952 9.10032 10.5519 9.05186L10.5325 9.03247L10.2695 8.76945L10.6156 8.42336L10.8793 8.68708C10.9226 8.73555 10.9834 8.76481 11.0483 8.76845C11.1132 8.77208 11.1769 8.74979 11.2254 8.70646C11.2739 8.66314 11.3031 8.60234 11.3068 8.53743C11.3104 8.47253 11.2881 8.40884 11.2448 8.36038L11.2275 8.34307L10.9617 8.07728L11.3078 7.7312L11.5722 7.9956C11.6155 8.04407 11.6763 8.07334 11.7412 8.07697C11.8061 8.08061 11.8698 8.05831 11.9182 8.01498C11.9667 7.97166 11.996 7.91086 11.9996 7.84596C12.0033 7.78105 11.981 7.71736 11.9376 7.6689ZM5.34817 10.7878C5.00416 10.4438 4.82974 10.1538 4.38606 10.1538H3.3478C3.25601 10.1538 3.16799 10.1903 3.10308 10.2552C3.03818 10.3201 3.00172 10.4081 3.00172 10.4999V12.5764C2.98376 12.9535 3.10717 13.3237 3.3478 13.6146L3.91192 14.176C4.04776 14.329 4.21241 14.4538 4.39648 14.5432C4.58054 14.6326 4.78042 14.6849 4.98468 14.697C5.18895 14.7092 5.39361 14.681 5.58697 14.614C5.78034 14.5471 5.95862 14.4427 6.11164 14.3068L7.50082 12.9225L5.34817 10.7878ZM4.73214 12.2303L3.87524 13.0872C3.76372 12.9396 3.70039 12.7613 3.69389 12.5764V10.846H4.38606C4.47718 10.8608 4.55968 10.9086 4.61793 10.9802C4.66039 11.0145 4.69323 11.0591 4.71325 11.1098C4.73327 11.1605 4.73978 11.2156 4.73214 11.2696V12.2303Z" fill="white"/>
</svg>
