<svg width="16" height="20" viewBox="0 0 16 20" fill="none" xmlns="http://www.w3.org/2000/svg">
<circle cx="8" cy="10" r="7.5" fill="#4F5A7D" stroke="white"/>
<path d="M12.9998 7.94006C13.0092 7.36717 12.6828 6.8416 12.165 6.5961C12.1212 6.05401 11.6654 5.6383 11.1216 5.64447C11.0391 5.65107 10.9578 5.66793 10.8795 5.69456C10.8288 5.14362 10.3412 4.73809 9.79032 4.78876C9.57437 4.80863 9.37077 4.89803 9.21 5.04345C9.21 4.46713 8.74287 4 8.16655 4C7.59023 4 7.1231 4.46713 7.1231 5.04345C7.1231 5.04345 7.15649 5.06014 7.15649 5.08519C6.72959 4.71898 6.08666 4.76823 5.72045 5.19521C5.59683 5.33937 5.51594 5.51517 5.48697 5.70291C5.35483 5.66075 5.21659 5.64105 5.07794 5.64447C4.38643 5.63871 3.82113 6.19458 3.81537 6.88609C3.81395 7.05288 3.84592 7.21816 3.90928 7.37243C3.24773 7.55732 2.86132 8.24358 3.04622 8.90513C3.16326 9.32392 3.49048 9.65115 3.90928 9.76818C4.12072 10.4217 4.822 10.7802 5.47554 10.5687C5.92238 10.4241 6.24969 10.0402 6.32173 9.57619C6.47449 9.709 6.6634 9.79331 6.86432 9.81827V13.9921L5.48697 14.8268H9.66077L8.32515 13.9921V12.3225C8.94129 11.5784 9.73715 11.0037 10.6374 10.653C11.3062 10.8099 11.9756 10.3949 12.1324 9.72619C12.1561 9.62511 12.1671 9.52143 12.165 9.41758C12.1675 9.37309 12.1675 9.32852 12.165 9.28402C12.6828 9.03852 13.0092 8.51296 12.9998 7.94006ZM8.32515 11.7048V8.83325C8.55079 9.23452 8.97501 9.48328 9.43538 9.48436H9.66911C9.68214 9.85091 9.85627 10.1931 10.1449 10.4193C9.46401 10.7315 8.84696 11.1674 8.32515 11.7048Z" fill="white"/>
</svg>
