<svg width="16" height="20" viewBox="0 0 16 20" fill="none" xmlns="http://www.w3.org/2000/svg">
<circle cx="8" cy="10" r="7.5" fill="#4F5A7D" stroke="white"/>
<path d="M4.03532 5.83133C4.18647 5.25186 4.77874 4.90465 5.35821 5.05574C5.93768 5.20682 6.28489 5.79916 6.1338 6.37863C5.98901 6.93389 5.43672 7.28015 4.87387 7.16868C4.28645 7.0523 3.90454 6.48179 4.02086 5.89429C4.02505 5.87318 4.02989 5.85215 4.03532 5.83133ZM11.9871 13.9061C12.0617 14.2983 11.8042 14.6767 11.412 14.7513C11.4109 14.7515 11.4099 14.7517 11.4088 14.7518C11.1014 14.814 10.789 14.671 10.6353 14.3976L9.42086 11.9615L8.37268 12.1711L8.21364 12.2289H8.17027V13.7832L8.61847 13.6747H8.71967C8.92721 13.6786 9.09232 13.85 9.08842 14.0577C9.0856 14.2069 8.9948 14.3403 8.85702 14.3976L5.24255 15.1205C5.20185 15.1274 5.16036 15.1274 5.11966 15.1205C4.91204 15.1205 4.74375 14.9522 4.74375 14.7446C4.74375 14.5929 4.83498 14.456 4.97508 14.3976L7.97509 13.7976V12.2289L5.64737 12.6482C5.52881 12.6788 5.40448 12.6788 5.28592 12.6482C5.04057 12.5855 4.84582 12.3991 4.77267 12.1567H4.75821L4.03532 9.21447C4.01276 9.11211 4.01276 9.00599 4.03532 8.90363C4.10298 8.62387 4.33011 8.41098 4.61363 8.36146L8.01123 7.98555V5H8.17027V7.96387H8.21364L8.37268 7.94941L8.66184 7.89158H8.81365C9.00688 7.93806 9.12636 8.1318 9.08112 8.32531C9.04938 8.49519 8.89967 8.61744 8.7269 8.61447L8.37268 8.6723H8.21364H8.17027V10.7398H8.21364L8.37268 10.6964L9.68111 10.4362C9.99014 10.4107 10.281 10.5852 10.404 10.8699L11.8498 13.7181C11.9055 13.7729 11.9518 13.8364 11.9871 13.9061ZM8.01123 8.70845L6.204 8.90363L6.73894 11.0289L8.01123 10.7832V8.70845Z" fill="white"/>
</svg>
