<svg width="16" height="20" viewBox="0 0 16 20" fill="none" xmlns="http://www.w3.org/2000/svg">
<circle cx="8" cy="10" r="7.5" fill="#4F5A7D" stroke="white"/>
<path d="M4.72727 5C4.3256 5 4 5.3256 4 5.72727V11.5455C4 11.9471 4.3256 12.2727 4.72727 12.2727H11.2727C11.6744 12.2727 12 11.9471 12 11.5455V5.72727C12 5.3256 11.6744 5 11.2727 5H4.72727ZM6.72727 5.36364H6.73438H9.27983C9.38027 5.36364 9.46165 5.44502 9.46165 5.54545C9.46165 5.64589 9.38027 5.72727 9.27983 5.72727H6.72727C6.62684 5.72727 6.54545 5.64589 6.54545 5.54545C6.54545 5.44502 6.62684 5.36364 6.72727 5.36364ZM5.09091 6.45455H7.63636V9.36364H5.09091C4.89011 9.36364 4.72727 9.2008 4.72727 9V6.81818C4.72727 6.61738 4.89011 6.45455 5.09091 6.45455ZM8.36364 6.45455H10.9091C11.1099 6.45455 11.2727 6.61738 11.2727 6.81818V9C11.2727 9.2008 11.1099 9.36364 10.9091 9.36364H8.36364V6.45455ZM6.18182 10.0909C6.58349 10.0909 6.90909 10.4165 6.90909 10.8182C6.90909 11.2199 6.58349 11.5455 6.18182 11.5455C5.78015 11.5455 5.45455 11.2199 5.45455 10.8182C5.45455 10.4165 5.78015 10.0909 6.18182 10.0909ZM9.81818 10.0909C10.2199 10.0909 10.5455 10.4165 10.5455 10.8182C10.5455 11.2199 10.2199 11.5455 9.81818 11.5455C9.41651 11.5455 9.09091 11.2199 9.09091 10.8182C9.09091 10.4165 9.41651 10.0909 9.81818 10.0909ZM10.142 12.9957C10.095 12.9997 10.0473 13.0135 10.0028 13.0369C9.84044 13.1225 9.76744 13.3156 9.83239 13.4872L9.95597 13.7273H6.04403L6.13778 13.5312C6.20884 13.3434 6.11399 13.1336 5.92614 13.0625C5.7545 12.9976 5.56138 13.0706 5.47585 13.233L4.74858 14.6875C4.73316 14.7294 4.72625 14.7736 4.72727 14.8182C4.72727 15.019 4.89011 15.1818 5.09091 15.1818C5.22196 15.1811 5.34188 15.1087 5.40341 14.9929V14.956H5.45455L5.6804 14.4545H10.3196L10.5455 14.956V14.9929C10.607 15.1087 10.7269 15.1811 10.858 15.1818C11.0588 15.1818 11.2216 15.019 11.2216 14.8182C11.2361 14.7609 11.2361 14.7008 11.2216 14.6435L10.4943 13.1889C10.4241 13.0557 10.2832 12.9837 10.142 12.9957Z" fill="white"/>
</svg>
