<svg width="16" height="20" viewBox="0 0 16 20" fill="none" xmlns="http://www.w3.org/2000/svg">
<circle cx="8" cy="10" r="7.5" fill="#4F5A7D" stroke="white"/>
<path d="M6.66667 5C6.66667 5 6.16667 5 6 5.66667L5 9.33333V11.6667C5 12.3333 5.66667 12.3333 5.66667 12.3333H10.3333C10.3333 12.3333 11 12.3333 11 11.6667V9.33333L10 5.66667C9.8182 5 9.33333 5 9.33333 5H6.66667ZM7.33333 6H8.66667C8.66667 6 9.0238 6 9.16667 6.66667L9.66667 9C9.80973 9.6678 9 9.66667 9 9.66667H7C7 9.66667 6.19027 9.6678 6.33333 9L6.83333 6.66667C6.9762 6 7.33333 6 7.33333 6ZM6.33333 10.3333C6.70153 10.3333 7 10.6318 7 11C7 11.3682 6.70153 11.6667 6.33333 11.6667C5.96513 11.6667 5.66667 11.3682 5.66667 11C5.66667 10.6318 5.96513 10.3333 6.33333 10.3333ZM7.5 10.3333H8.5C8.59233 10.3333 8.66667 10.4077 8.66667 10.5C8.66667 10.5923 8.59233 10.6667 8.5 10.6667H7.5C7.40767 10.6667 7.33333 10.5923 7.33333 10.5C7.33333 10.4077 7.40767 10.3333 7.5 10.3333ZM9.66667 10.3333C10.0349 10.3333 10.3333 10.6318 10.3333 11C10.3333 11.3682 10.0349 11.6667 9.66667 11.6667C9.29847 11.6667 9 11.3682 9 11C9 10.6318 9.29847 10.3333 9.66667 10.3333ZM5.75 13L5 15H6L6.25 14.3333H9.75L10 15H11L10.25 13H9.25L9.5 13.6667H6.5L6.75 13H5.75Z" fill="white"/>
</svg>
