<svg width="16" height="20" viewBox="0 0 16 20" fill="none" xmlns="http://www.w3.org/2000/svg">
<circle cx="8" cy="10" r="7.5" fill="#4F5A7D" stroke="white"/>
<path d="M5.63606 5L5.00501 8.47078C4.91262 8.97878 6.12923 9.21606 6.10935 9.73289L5.95159 13.8347C5.92735 14.4653 6.58264 14.4658 6.58264 14.4658C6.58264 14.4658 7.23792 14.4653 7.21369 13.8347L7.05593 9.73289C7.03611 9.21694 8.14979 8.98774 8.16027 8.47078L7.52922 5H7.21369L7.37145 7.52421L6.89816 7.83973L6.7404 5H6.42487L6.26711 7.83973L5.79382 7.52421L5.95159 5H5.63606ZM11 5C10.5353 5 9.76049 5.41328 9.4507 6.03284C9.19254 6.49755 9.10684 7.53569 9.10684 8.15526V9.73289C9.10684 10.2492 9.79526 10.3639 10.0534 10.3639L9.7379 13.8347C9.68079 14.4632 10.3689 14.4658 10.3689 14.4658C10.3689 14.4658 11 14.4658 11 13.8347V5Z" fill="white"/>
</svg>
