<svg width="16" height="20" viewBox="0 0 16 20" fill="none" xmlns="http://www.w3.org/2000/svg">
<circle cx="8" cy="10" r="7.5" fill="#4F5A7D" stroke="white"/>
<path d="M6.49359 7.03549L4.61995 6.53785L4.96068 5.28415C4.98819 5.18545 5.05357 5.10162 5.1426 5.05091C5.23163 5.0002 5.33709 4.98672 5.43601 5.01341L6.55897 5.31491C6.6079 5.32786 6.6538 5.35034 6.69402 5.38107C6.73425 5.41179 6.76802 5.45016 6.79338 5.49396C6.81875 5.53777 6.83522 5.58615 6.84185 5.63633C6.84848 5.68651 6.84514 5.73751 6.83201 5.7864L6.49359 7.03549ZM3.01705 12.6933C2.99571 12.6244 2.99437 12.5507 3.01321 12.481L4.41228 7.30777L6.28515 7.80541L4.88607 12.9787C4.86734 13.0486 4.82921 13.1118 4.77609 13.161L3.65544 14.197C3.64096 14.2102 3.62341 14.2195 3.6044 14.2241C3.58538 14.2287 3.56551 14.2285 3.5466 14.2235C3.52769 14.2184 3.51036 14.2087 3.49618 14.1952C3.48201 14.1817 3.47144 14.1649 3.46546 14.1462L3.01705 12.6933ZM9.92244 8.07614C8.19186 8.07614 7.615 7.49929 7.615 5.76871C9.34558 5.76871 9.92244 6.34557 9.92244 8.07614ZM8.84563 14.217C7.79191 14.3785 6.44129 12.9048 6.13824 11.2942L6.82201 8.76838C7.1289 8.49917 7.51655 8.35842 7.91343 8.35842C8.34362 8.35665 8.76381 8.48803 9.11637 8.73453C9.24049 8.81783 9.38689 8.86167 9.53636 8.8603C9.68584 8.85892 9.8314 8.81241 9.95397 8.72684C10.2788 8.4862 10.6727 8.35698 11.0769 8.35842C11.6692 8.35842 12.3406 8.73453 12.6537 9.28216C13.8351 11.3558 11.7353 14.4424 10.2355 14.2178C10.1668 14.2044 10.1006 14.1802 10.0393 14.1462C9.88439 14.0668 9.71276 14.0254 9.53863 14.0254C9.36451 14.0254 9.19287 14.0668 9.03792 14.1462C8.97786 14.1796 8.913 14.2035 8.84563 14.217Z" fill="white"/>
</svg>
