<svg width="15" height="15" viewBox="0 0 15 15" fill="none" xmlns="http://www.w3.org/2000/svg">
<g id="Group">
<path id="Vector" d="M3.78585 6.11363L2.12132 7.77815C1.55871 8.34076 1.24264 9.10383 1.24264 9.89948C1.24264 10.6951 1.55871 11.4582 2.12132 12.0208C2.68393 12.5834 3.44699 12.8995 4.24264 12.8995C5.03829 12.8995 5.80135 12.5834 6.36396 12.0208L8.48528 9.89947C8.82492 9.56019 9.07818 9.14435 9.22378 8.68688C9.36938 8.22942 9.40306 7.74369 9.322 7.27051C9.24094 6.79733 9.04751 6.35051 8.75795 5.96759C8.4684 5.58467 8.09117 5.27683 7.65797 5.06994L7.07107 5.65683C7.01026 5.71765 6.95793 5.78411 6.91621 5.85553C7.25078 5.9516 7.55449 6.13332 7.7973 6.38273C8.04012 6.63215 8.21363 6.94062 8.30069 7.27764C8.38775 7.61467 8.38534 7.96858 8.2937 8.30439C8.20206 8.6402 8.02436 8.94628 7.77817 9.19237L5.65685 11.3137C5.28178 11.6888 4.77307 11.8995 4.24264 11.8995C3.71221 11.8995 3.2035 11.6888 2.82843 11.3137C2.45335 10.9386 2.24264 10.4299 2.24264 9.89948C2.24264 9.36904 2.45335 8.86033 2.82843 8.48526L3.91384 7.39985C3.80211 6.97983 3.75827 6.54567 3.78585 6.11363Z" fill="#343F61"/>
<path id="Vector_2" d="M5.65661 4.24262C5.31697 4.5819 5.06371 4.99775 4.91812 5.45521C4.77252 5.91267 4.73883 6.3984 4.81989 6.87158C4.90095 7.34476 5.09438 7.79158 5.38394 8.1745C5.6735 8.55742 6.05072 8.86526 6.48393 9.07216L7.26033 8.29575C6.92122 8.20489 6.61201 8.02637 6.36376 7.77813C6.11552 7.52988 5.93699 7.22067 5.84612 6.88157C5.75526 6.54246 5.75525 6.18541 5.84611 5.8463C5.93696 5.50719 6.11548 5.19797 6.36372 4.94973L8.48504 2.8284C8.86011 2.45333 9.36882 2.24262 9.89925 2.24262C10.4297 2.24262 10.9384 2.45333 11.3135 2.8284C11.6885 3.20348 11.8993 3.71218 11.8993 4.24262C11.8993 4.77305 11.6885 5.28176 11.3135 5.65683L10.2281 6.74224C10.3397 7.16154 10.3826 7.59614 10.3553 8.02917L12.0206 6.36394C12.2992 6.08536 12.5201 5.75465 12.6709 5.39067C12.8217 5.02669 12.8993 4.63658 12.8993 4.24262C12.8993 3.84865 12.8217 3.45854 12.6709 3.09457C12.5201 2.73059 12.2991 2.39987 12.0206 2.1213C11.742 1.84272 11.4113 1.62174 11.0473 1.47098C10.6833 1.32022 10.2932 1.24262 9.89925 1.24262C9.50529 1.24262 9.11518 1.32022 8.7512 1.47098C8.38723 1.62174 8.05651 1.84272 7.77793 2.1213L5.65661 4.24262Z" fill="#343F61"/>
</g>
</svg>
