<svg width="16" height="20" viewBox="0 0 16 20" fill="none" xmlns="http://www.w3.org/2000/svg">
<circle cx="8" cy="10" r="7.5" fill="#4F5A7D" stroke="white"/>
<path d="M12.6103 8.16051H11.1644L10.8562 6.31951C10.7297 5.75204 10.3018 5.29985 9.74216 5.14222C9.46617 5.05341 9.17872 5.00553 8.88882 5H7.11894C6.82904 5.00553 6.54159 5.05341 6.2656 5.14222C5.70595 5.29985 5.27802 5.75204 5.15152 6.31951L4.84337 8.16051H3.39744C3.17929 8.15916 3.00135 8.33497 3.00001 8.5532C2.99977 8.59421 3.00585 8.63498 3.01818 8.67409L4.50362 13.6519C4.6588 14.1454 5.1162 14.4812 5.6335 14.4815H10.3743C10.8886 14.4778 11.3419 14.1426 11.4962 13.6519L12.9817 8.67409C13.0472 8.46597 12.9315 8.24418 12.7234 8.17868C12.6868 8.16714 12.6487 8.16106 12.6103 8.16051ZM5.6493 8.16051L5.93375 6.44593C5.99751 6.15951 6.22894 5.94065 6.51844 5.89284C6.71305 5.83153 6.91501 5.797 7.11894 5.79013H8.88882C9.09536 5.79629 9.30008 5.83082 9.49722 5.89284C9.78672 5.94065 10.0181 6.15951 10.0819 6.44593L10.3585 8.16051H5.6177H5.6493Z" fill="white"/>
</svg>
