<svg width="16" height="20" viewBox="0 0 16 20" fill="none" xmlns="http://www.w3.org/2000/svg">
<circle cx="8" cy="10" r="7.5" fill="#4F5A7D" stroke="white"/>
<path d="M10.4257 5.20317C10.4257 5.86764 9.88703 6.40634 9.22256 6.40634C8.55809 6.40634 8.0194 5.86764 8.0194 5.20317C8.0194 4.5387 8.55809 4 9.22256 4C9.88703 4 10.4257 4.5387 10.4257 5.20317ZM10.4257 12.8232C9.98273 12.8232 9.62362 13.1823 9.62362 13.6254C9.62362 14.0684 9.98273 14.4275 10.4257 14.4275C10.8687 14.4275 11.2278 14.0684 11.2278 13.6254C11.2278 13.1823 10.8687 12.8232 10.4257 12.8232ZM11.9016 8.88487L10.3696 7.35283C10.2973 7.26259 10.1884 7.20957 10.0728 7.20845H4.40989C4.18842 7.20845 4.00883 7.38804 4.00883 7.60951C4.00883 7.83097 4.18842 8.01056 4.40989 8.01056H6.57559L4.00883 13.0639C3.99776 13.1168 3.99776 13.1714 4.00883 13.2243C3.96231 13.4458 4.1042 13.6631 4.32567 13.7096C4.54713 13.7561 4.76442 13.6142 4.81094 13.3927L5.61306 12.0211H7.21728L5.66921 15.4221C5.63135 15.485 5.61193 15.5572 5.61306 15.6306C5.56878 15.8521 5.71244 16.0676 5.9339 16.1119C6.15537 16.1562 6.37089 16.0125 6.41517 15.7911L10.1851 8.26724L11.3401 9.45437C11.5094 9.5973 11.7624 9.57597 11.9053 9.4068C12.0329 9.25568 12.0314 9.03414 11.9016 8.88487Z" fill="white"/>
</svg>
