<svg width="16" height="20" viewBox="0 0 16 20" fill="none" xmlns="http://www.w3.org/2000/svg">
<circle cx="8" cy="10" r="7.5" fill="#4F5A7D" stroke="white"/>
<path d="M9.74087 6C9.66593 6 9.45053 6.09767 9.45053 6.09767L7.23567 7.21747C6.94073 7.33493 6.82387 7.8054 7.00133 8.04033L7.64847 8.97913L5.00133 10.332L6.33333 11.332L8.00133 10.332L9.668 11.332L10.336 10.664L8.336 7.99733L10.0404 6.9778C10.3928 6.80033 10.336 6.50813 10.336 6.33067C10.3333 6.19073 10.0958 6 9.74087 6ZM11.168 8C10.5231 8 10 8.5218 10 9.16667C10 9.81153 10.5231 10.3347 11.168 10.3347C11.8129 10.3347 12.3347 9.81153 12.3347 9.16667C12.3347 8.5218 11.8128 8 11.168 8ZM4.66667 11.3333L3 12.3333V13.3333L4.66667 12.3333L6.33333 13.3333L8.00133 12.3333L9.668 13.3333L11 12.3333L13 13.3333V12.3333L11 11.3333L9.668 12.3333L8.00133 11.3333L6.33333 12.3333L4.66667 11.3333Z" fill="white"/>
</svg>
