<svg width="20" height="20" viewBox="0 0 20 20" fill="none" xmlns="http://www.w3.org/2000/svg">
<circle cx="10" cy="10" r="9.5" fill="#4F5A7D" stroke="white"/>
<path d="M5 5.56818C5 4.56818 5.81818 3.75 6.81818 3.75H13.1818C14.1818 3.75 15 4.56818 15 5.56818V12.8409C15 13.75 14.0909 13.75 14.0909 13.75V14.6591C14.0909 15.1591 13.6818 15.5682 13.1818 15.5682C12.6818 15.5682 12.2727 15.1591 12.2727 14.6591V13.75H7.72727V14.6591C7.72727 15.1591 7.31818 15.5682 6.81818 15.5682C6.31818 15.5682 5.90909 15.1591 5.90909 14.6591V13.75C5 13.75 5 12.8409 5 12.8409V5.56818ZM6.36364 6.47727C6.10909 6.47727 5.90909 6.67727 5.90909 6.93182V9.65909C5.90909 9.91364 6.10909 10.1136 6.36364 10.1136H13.6364C13.8909 10.1136 14.0909 9.91364 14.0909 9.65909V6.93182C14.0909 6.67727 13.8909 6.47727 13.6364 6.47727H6.36364ZM6.81818 11.0227C6.31818 11.0227 5.90909 11.4318 5.90909 11.9318C5.90909 12.4318 6.31818 12.8409 6.81818 12.8409C7.31818 12.8409 7.72727 12.4318 7.72727 11.9318C7.72727 11.4318 7.31818 11.0227 6.81818 11.0227ZM13.1818 11.0227C12.6818 11.0227 12.2727 11.4318 12.2727 11.9318C12.2727 12.4318 12.6818 12.8409 13.1818 12.8409C13.6818 12.8409 14.0909 12.4318 14.0909 11.9318C14.0909 11.4318 13.6818 11.0227 13.1818 11.0227ZM6.81818 5.11364C6.81818 5.36818 7.01818 5.56818 7.27273 5.56818H12.7273C12.9818 5.56818 13.1818 5.36818 13.1818 5.11364C13.1818 4.85909 12.9818 4.65909 12.7273 4.65909H7.27273C7.01818 4.65909 6.81818 4.85909 6.81818 5.11364Z" fill="white"/>
</svg>
