<svg width="20" height="20" viewBox="0 0 20 20" fill="none" xmlns="http://www.w3.org/2000/svg">
<circle cx="10" cy="10" r="9.5" fill="#4F5A7D" stroke="white"/>
<path fill-rule="evenodd" clip-rule="evenodd" d="M14.8373 14.4324C14.9415 14.3282 15 14.1869 15 14.0396V8.20011C15.0001 8.11545 14.9808 8.0319 14.9436 7.95583C14.9064 7.87977 14.8524 7.8132 14.7856 7.76122L10.3411 4.30455C10.2436 4.22869 10.1236 4.1875 10 4.1875C9.87644 4.1875 9.75641 4.22869 9.65889 4.30455L5.21444 7.76122C5.14762 7.8132 5.09356 7.87977 5.0564 7.95583C5.01923 8.0319 4.99994 8.11545 5 8.20011V14.0396C5 14.1869 5.05853 14.3282 5.16272 14.4324C5.26691 14.5366 5.40821 14.5951 5.55556 14.5951H14.4444C14.5918 14.5951 14.7331 14.5366 14.8373 14.4324ZM9.13462 6.82692C9.13462 6.48076 9.36538 6.24999 9.71154 6.24999H10.2885C10.6346 6.24999 10.8654 6.48076 10.8654 6.82692V9.13461H13.1731C13.5192 9.13461 13.75 9.36538 13.75 9.71153V10.2885C13.75 10.6346 13.5192 10.8654 13.1731 10.8654H10.8654V13.1731C10.8654 13.5192 10.6346 13.75 10.2885 13.75H9.71154C9.36538 13.75 9.13462 13.5192 9.13462 13.1731V10.8654H6.82692C6.48077 10.8654 6.25 10.6346 6.25 10.2885V9.71153C6.25 9.36538 6.48077 9.13461 6.82692 9.13461H9.13462V6.82692Z" fill="white"/>
</svg>
