<svg width="20" height="20" viewBox="0 0 20 20" fill="none" xmlns="http://www.w3.org/2000/svg">
<circle cx="10" cy="10" r="9.5" fill="#4F5A7D" stroke="white"/>
<path d="M16.25 10.4513C16.25 14.2126 13.7614 17.2695 10 17.2695C6.23864 17.2695 3.75 14.2126 3.75 10.4513C6.32307 10.473 8.60159 12.118 9.43182 14.5536V9.31492H6.59091C5.64955 9.31492 4.88636 8.55174 4.88636 7.61037V4.20128C4.88636 3.88753 5.1408 3.6331 5.45455 3.6331C5.63341 3.6331 5.80182 3.71731 5.90909 3.86037L7.64773 6.1331L9.52273 2.72401C9.69295 2.46037 10.0447 2.38481 10.3083 2.55503C10.3759 2.59878 10.4335 2.65628 10.4773 2.72401L12.3523 6.1331L14.0909 3.86037C14.2792 3.60935 14.6353 3.55844 14.8864 3.74674C15.0294 3.85401 15.1136 4.02242 15.1136 4.20128V7.61037C15.1136 8.55174 14.3505 9.31492 13.4091 9.31492H10.5682V14.5536C11.3984 12.118 13.6769 10.473 16.25 10.4513Z" fill="white"/>
</svg>
