<svg width="20" height="20" viewBox="0 0 20 20" fill="none" xmlns="http://www.w3.org/2000/svg">
<circle cx="10" cy="10" r="9.5" fill="#4F5A7D" stroke="white"/>
<path d="M4.7115 16.01C4.7115 16.1427 4.81915 16.2504 4.95193 16.2504H8.55746V13.3652H11.4427V16.2504H15.0482C15.181 16.2504 15.2886 16.1427 15.2886 16.01V10.4809H4.7115V16.01ZM16.185 9.11435L15.2887 8.32678V4.71173C15.2887 4.18059 14.8581 3.75 14.327 3.75C13.7958 3.75 13.3653 4.18059 13.3653 4.71173V6.63519L10.1749 3.83656C10.084 3.74009 9.93222 3.73536 9.83551 3.82598L9.82493 3.83656L3.81497 9.0905C3.72419 9.1874 3.72915 9.33956 3.82605 9.43034C3.86977 9.4713 3.92722 9.49446 3.98712 9.49529L5.67323 9.51933H16.0088C16.1416 9.51977 16.2496 9.41248 16.25 9.2797C16.2502 9.21833 16.2269 9.15911 16.185 9.11435Z" fill="white"/>
</svg>
