<svg width="20" height="20" viewBox="0 0 20 20" fill="none" xmlns="http://www.w3.org/2000/svg">
<circle cx="10" cy="10" r="9.5" fill="#4F5A7D" stroke="white"/>
<path d="M9.42308 2.5C8.73077 2.5 8.26923 2.96154 8.26923 3.65385V8.26923H3.65385C2.96154 8.26923 2.5 8.73077 2.5 9.42308V10.5769C2.5 11.2692 2.96154 11.7308 3.65385 11.7308H8.26923V16.3462C8.26923 17.0385 8.73077 17.5 9.42308 17.5H10.5769C11.2692 17.5 11.7308 17.0385 11.7308 16.3462V11.7308H16.3462C17.0385 11.7308 17.5 11.2692 17.5 10.5769V9.42308C17.5 8.73077 17.0385 8.26923 16.3462 8.26923H11.7308V3.65385C11.7308 2.96154 11.2692 2.5 10.5769 2.5H9.42308Z" fill="white"/>
</svg>
