<svg width="20" height="20" viewBox="0 0 20 20" fill="none" xmlns="http://www.w3.org/2000/svg">
<circle cx="10" cy="10" r="9.5" fill="#4F5A7D" stroke="white"/>
<path d="M16.2498 7.42508C16.2615 6.70896 15.8534 6.052 15.2063 5.74512C15.1515 5.06751 14.5817 4.54787 13.902 4.55559C13.7989 4.56384 13.6973 4.58491 13.5994 4.6182C13.5361 3.92952 12.9265 3.42262 12.2379 3.48595C11.968 3.51079 11.7135 3.62254 11.5125 3.80431C11.5125 3.08391 10.9286 2.5 10.2082 2.5C9.48779 2.5 8.90387 3.08391 8.90387 3.80431C8.90387 3.80431 8.94561 3.82518 8.94561 3.85648C8.41199 3.39872 7.60833 3.46029 7.15057 3.99401C6.99603 4.17421 6.89492 4.39396 6.85872 4.62863C6.69354 4.57594 6.52074 4.55132 6.34743 4.55559C5.48303 4.54839 4.77641 5.24323 4.76921 6.10762C4.76744 6.3161 4.8074 6.5227 4.8866 6.71553C4.05967 6.94665 3.57665 7.80447 3.80778 8.63141C3.95407 9.1549 4.3631 9.56394 4.8866 9.71023C5.1509 10.5271 6.02751 10.9752 6.84442 10.7109C7.40298 10.5302 7.81211 10.0503 7.90216 9.47024C8.09312 9.63625 8.32925 9.74164 8.58041 9.77284V14.9901L6.85872 16.0335H12.076L10.4064 14.9901V12.9032C11.1766 11.9729 12.1714 11.2546 13.2968 10.8163C14.1328 11.0123 14.9694 10.4936 15.1655 9.65774C15.1951 9.53138 15.2089 9.40178 15.2063 9.27198C15.2093 9.21636 15.2093 9.16064 15.2063 9.10503C15.8534 8.79815 16.2615 8.14119 16.2498 7.42508ZM10.4064 12.131V8.54157C10.6885 9.04315 11.2188 9.3541 11.7942 9.35546H12.0864C12.1027 9.81363 12.3203 10.2413 12.6812 10.5241C11.83 10.9144 11.0587 11.4593 10.4064 12.131Z" fill="white"/>
</svg>
