<svg width="20" height="20" viewBox="0 0 20 20" fill="none" xmlns="http://www.w3.org/2000/svg">
<circle cx="10" cy="10" r="9.5" fill="#4F5A7D" stroke="white"/>
<path d="M8.11698 6.29436L5.77494 5.67232L6.20085 4.10518C6.23523 3.98181 6.31697 3.87702 6.42825 3.81364C6.53954 3.75025 6.67136 3.7334 6.79502 3.76676L8.19871 4.14364C8.25987 4.15983 8.31725 4.18793 8.36753 4.22634C8.41781 4.26474 8.46002 4.3127 8.49173 4.36745C8.52344 4.42221 8.54403 4.48268 8.55231 4.54541C8.5606 4.60814 8.55642 4.67189 8.54001 4.733L8.11698 6.29436ZM3.77131 13.3667C3.74463 13.2804 3.74297 13.1884 3.76651 13.1013L5.51535 6.63471L7.85644 7.25676L6.10759 13.7233C6.08417 13.8107 6.03651 13.8897 5.97011 13.9512L4.5693 15.2463C4.5512 15.2627 4.52927 15.2744 4.50549 15.2801C4.48172 15.2859 4.45688 15.2856 4.43325 15.2793C4.40962 15.273 4.38795 15.2609 4.37023 15.244C4.35251 15.2271 4.3393 15.2061 4.33183 15.1828L3.77131 13.3667ZM12.403 7.59518C10.2398 7.59518 9.51875 6.87411 9.51875 4.71089C11.682 4.71089 12.403 5.43196 12.403 7.59518ZM11.057 15.2713C9.73988 15.4732 8.05161 13.631 7.6728 11.6178L8.52752 8.46047C8.91113 8.12397 9.39569 7.94803 9.89179 7.94803C10.4295 7.94582 10.9548 8.11004 11.3955 8.41817C11.5506 8.52229 11.7336 8.57709 11.9205 8.57537C12.1073 8.57366 12.2893 8.51551 12.4425 8.40855C12.8485 8.10775 13.3409 7.94622 13.8462 7.94803C14.5865 7.94803 15.4258 8.41817 15.8171 9.10271C17.2938 11.6947 14.6691 15.5529 12.7943 15.2722C12.7084 15.2555 12.6257 15.2253 12.5492 15.1828C12.3555 15.0835 12.141 15.0317 11.9233 15.0317C11.7056 15.0317 11.4911 15.0835 11.2974 15.1828C11.2223 15.2245 11.1412 15.2543 11.057 15.2713Z" fill="white"/>
</svg>
