<svg width="20" height="20" viewBox="0 0 20 20" fill="none" xmlns="http://www.w3.org/2000/svg">
<circle cx="10" cy="10" r="9.5" fill="#4F5A7D" stroke="white"/>
<path d="M15.7629 7.70063H13.9555L13.5703 5.39939C13.4122 4.69005 12.8773 4.12482 12.1777 3.92778C11.8327 3.81677 11.4734 3.75691 11.111 3.75H8.89867C8.5363 3.75691 8.17699 3.81677 7.832 3.92778C7.13244 4.12482 6.59753 4.69005 6.4394 5.39939L6.05421 7.70063H4.2468C3.97411 7.69895 3.75169 7.91871 3.75001 8.1915C3.74971 8.24276 3.75732 8.29372 3.77272 8.34261L5.62952 14.5649C5.8235 15.1817 6.39525 15.6015 7.04187 15.6019H12.9678C13.6108 15.5973 14.1774 15.1783 14.3703 14.5649L16.2271 8.34261C16.309 8.08246 16.1644 7.80523 15.9042 7.72335C15.8585 7.70893 15.8109 7.70132 15.7629 7.70063ZM7.06163 7.70063L7.41718 5.55741C7.49689 5.19939 7.78617 4.92581 8.14805 4.86605C8.39131 4.78941 8.64376 4.74625 8.89867 4.73766H11.111C11.3692 4.74536 11.6251 4.78852 11.8715 4.86605C12.2334 4.92581 12.5227 5.19939 12.6024 5.55741L12.9481 7.70063H7.02212H7.06163Z" fill="white"/>
</svg>
