<svg width="20" height="20" viewBox="0 0 20 20" fill="none" xmlns="http://www.w3.org/2000/svg">
<circle cx="10" cy="10" r="9.5" fill="#4F5A7D" stroke="white"/>
<path d="M12.1761 5C12.0824 5 11.8132 5.12208 11.8132 5.12208L9.04458 6.52183C8.67592 6.66867 8.52983 7.25675 8.75167 7.55042L9.56058 8.72392L6.25167 10.415L7.91667 11.665L10.0017 10.415L12.085 11.665L12.92 10.83L10.42 7.49667L12.5505 6.22225C12.991 6.00042 12.92 5.63517 12.92 5.41333C12.9166 5.23842 12.6198 5 12.1761 5ZM13.96 7.5C13.1539 7.5 12.5 8.15225 12.5 8.95833C12.5 9.76442 13.1539 10.4183 13.96 10.4183C14.7661 10.4183 15.4183 9.76442 15.4183 8.95833C15.4183 8.15225 14.766 7.5 13.96 7.5ZM5.83333 11.6667L3.75 12.9167V14.1667L5.83333 12.9167L7.91667 14.1667L10.0017 12.9167L12.085 14.1667L13.75 12.9167L16.25 14.1667V12.9167L13.75 11.6667L12.085 12.9167L10.0017 11.6667L7.91667 12.9167L5.83333 11.6667Z" fill="white"/>
</svg>
